SplineFontDB: 3.0
FontName: mwg_mathsymb10
FullName: mwg_mathsymb10
FamilyName: mwg_mathsymb
Weight: Regular
Copyright: Copyright (C) 2012, Koichi Murase, 1994, 1995, Basil K. Malyshev. All Rights Reserved.\nBaKoMa Fonts Collection, Level-C.
Version: 1.0.19/2012-11-24
ItalicAngle: 0
UnderlinePosition: -136
UnderlineWidth: 20
Ascent: 819
Descent: 205
LayerCount: 2
Layer: 0 0 "+gMyXYgAA"  1
Layer: 1 0 "+Uk2XYgAA"  0
NeedsXUIDChange: 1
UniqueID: 4702302
FSType: 0
OS2Version: 0
OS2_WeightWidthSlopeOnly: 0
OS2_UseTypoMetrics: 0
CreationTime: 878738956
ModificationTime: 1353804592
OS2TypoAscent: 0
OS2TypoAOffset: 1
OS2TypoDescent: 0
OS2TypoDOffset: 1
OS2TypoLinegap: 92
OS2WinAscent: 0
OS2WinAOffset: 1
OS2WinDescent: 0
OS2WinDOffset: 1
HheadAscent: 0
HheadAOffset: 1
HheadDescent: 0
HheadDOffset: 1
OS2Vendor: 'PfEd'
MarkAttachClasses: 1
DEI: 91125
Encoding: Custom
UnicodeInterp: none
NameList: Adobe Glyph List
DisplaySize: -36
AntiAlias: 1
FitToEm: 1
WinInfo: 8613 33 16
BeginPrivate: 7
BlueValues 39 [-14 0 317 329 539 553 659 674 711 718]
OtherBlues 11 [-206 -199]
StdHW 4 [44]
StdVW 4 [44]
StemSnapV 10 [33 44 88]
BlueScale 9 0.0687917
StemSnapH 10 [33 44 61]
EndPrivate
BeginChars: 65550 488

StartChar: blackdiamond
Encoding: 9830 9830 1
Width: 799
VWidth: 1000
Flags: W
LayerCount: 2
Fore
SplineSet
722 247 m 0
 599 134 500 -1 425 -151 c 0
 418 -165 407 -168 400 -168 c 0
 383 -168 381 -161 367 -135 c 0
 316 -36 222 117 74 251 c 0
 54 270 52 272 52 282 c 0
 52 293 53 295 77 317 c 0
 200 430 299 566 375 715 c 0
 377 720 385 732 400 732 c 0
 416 732 419 725 432 699 c 0
 509 548 610 419 725 313 c 0
 741 298 747 294 747 282 c 0
 747 271 746 269 722 247 c 0
EndSplineSet
Validated: 1
EndChar

StartChar: angle
Encoding: 8736 8736 2
Width: 759
Flags: W
HStem: -5 54<141 704.375> 696 20G<673.5 687>
LayerCount: 2
Fore
SplineSet
53 23 m 0
 53 30 57 37 61 41 c 2
 660 708 l 2
 662 711 668 716 679 716 c 0
 695 716 705 701 705 689 c 0
 705 678 699 672 698 671 c 2
 141 49 l 1
 681 49 l 1
 682 49 l 2
 694 47 705 37 705 23 c 0
 705 8 694 -3 682 -5 c 2
 681 -5 l 1
 79 -5 l 1
 78 -5 l 2
 65 -3 53 8 53 23 c 0
EndSplineSet
Validated: 1
EndChar

StartChar: proportional
Encoding: 8733 8733 3
Width: 799
VWidth: 1000
Flags: W
HStem: -16 55<647.428 745.922> -16 42<162.196 305.911> 392 55<158.549 293.572> 405 42<635.953 740>
VStem: 52 35<124.792 300.544>
LayerCount: 2
Fore
SplineSet
435 196 m 1x68
 345 331 303 392 224 392 c 0
 139 392 87 304 87 215 c 0
 87 125 135 26 228 26 c 0
 350 26 419 160 435 196 c 1x68
746 43 m 1
 746 -11 l 1
 742 -12 l 2
 733 -14 717 -16 704 -16 c 0x98
 580 -16 509 84 466 148 c 1
 409 46 329 -16 235 -16 c 0
 117 -16 52 102 52 215 c 0
 52 335 122 447 237 447 c 0x68
 361 447 432 347 475 283 c 1
 532 385 612 447 706 447 c 0
 722 447 732 445 738 443 c 1
 739 443 l 0
 740 443 l 1
 740 442 l 2
 742 441 743 441 744 438 c 0
 746 432 746 420 746 407 c 2
 746 401 l 1
 740 402 l 2
 727 405 715 405 713 405 c 0
 591 405 522 271 506 235 c 1
 596 100 638 39 717 39 c 0x98
 722 39 734 39 740 41 c 2
 746 43 l 1
738 443 m 1
 738 443 l 1
EndSplineSet
Validated: 1
EndChar

StartChar: anticlockwise
Encoding: 8634 8634 4
Width: 818
Flags: W
HStem: -101 43<302.36 515.533> 539 39<241.692 284.935> 569 43<387.023 429.671>
VStem: 53 43<149.252 367.515> 721 43<149.252 365.852>
LayerCount: 2
Fore
SplineSet
53 256 m 0xb8
 53 390 131 517 253 575 c 0
 256 576 259 578 263 578 c 0
 275 578 285 569 285 557 c 0
 285 550 280 542 273 539 c 0xd8
 165 487 96 375 96 256 c 0
 96 84 237 -58 409 -58 c 0
 581 -58 721 84 721 256 c 0
 721 388 634 510 509 553 c 1
 506 543 l 1
 535 503 554 458 562 409 c 2
 563 401 l 1
 518 414 l 1
 517 417 l 2
 507 475 475 530 430 568 c 1
 423 569 415 569 408 569 c 0
 395 569 387 581 387 591 c 0
 387 604 399 612 411 612 c 0
 433 612 454 610 474 606 c 1
 520 619 562 645 593 680 c 2
 595 683 l 1
 642 671 l 1
 636 665 l 2
 606 635 574 608 536 589 c 1
 672 537 764 401 764 256 c 0
 764 59 606 -101 409 -101 c 0
 212 -101 53 59 53 256 c 0xb8
EndSplineSet
Validated: 1
EndChar

StartChar: harpoonupright
Encoding: 8638 8638 5
Width: 438
Flags: W
HStem: -204 21G<211 226.5> 696 20G<192 224>
VStem: 192 54<-203.581 601>
LayerCount: 2
Fore
SplineSet
192 -177 m 2
 192 716 l 1
 222 716 l 1
 224 713 l 2
 257 642 318 588 391 558 c 2
 394 556 l 1
 394 510 l 1
 388 512 l 2
 334 528 285 559 246 601 c 1
 246 -177 l 2
 246 -192 234 -204 219 -204 c 0
 203 -204 192 -192 192 -177 c 2
EndSplineSet
Validated: 1
EndChar

StartChar: curlyright
Encoding: 8620 8620 6
Width: 1051
Flags: W
HStem: 228 55<145.784 349 403 890> 542 55<127.014 297.836>
VStem: 32 54<334.837 500.509> 349 54<-49.5531 228 283 480.864>
LayerCount: 2
Fore
SplineSet
86 413 m 0
 86 283 198 283 310 283 c 2
 349 283 l 1
 348 347 347 401 339 445 c 0
 326 514 291 542 217 542 c 0
 126 542 86 506 86 413 c 0
349 228 m 1
 310 228 l 2
 174 228 32 234 32 413 c 0
 32 560 122 597 217 597 c 0
 401 597 403 423 403 283 c 1
 890 283 l 1
 849 323 817 371 795 424 c 2
 793 431 l 1
 839 431 l 1
 841 428 l 2
 871 355 924 294 995 260 c 2
 1004 256 l 1
 995 252 l 2
 924 217 871 156 841 83 c 2
 839 80 l 1
 793 80 l 1
 795 87 l 2
 817 140 849 188 890 228 c 1
 403 228 l 1
 403 -26 l 1
 398 -43 387 -50 376 -50 c 0
 360 -50 351 -37 349 -26 c 2
 349 -25 l 1
 349 228 l 1
EndSplineSet
Validated: 1
EndChar

StartChar: eqgreater
Encoding: 8925 8925 7
Width: 799
VWidth: 1000
Flags: W
HStem: -159 52<81.3799 102> 400 54<81.5801 104> 604 53<81.2954 716.705>
LayerCount: 2
Fore
SplineSet
717 631 m 0
 717 604 693 604 677 604 c 2
 121 604 l 2
 105 604 81 604 81 631 c 0
 81 657 107 657 121 657 c 2
 677 657 l 2
 691 657 717 657 717 631 c 0
717 148 m 0
 717 132 706 127 695 121 c 2
 128 -151 l 2
 115 -158 112 -159 108 -159 c 2
 107 -159 l 2
 96 -159 81 -150 81 -132 c 0
 81 -117 91 -112 102 -107 c 2
 629 148 l 1
 104 400 l 2
 86 409 81 417 81 428 c 0
 81 439 90 454 108 454 c 0
 112 454 114 454 126 447 c 2
 694 175 l 2
 703 170 717 164 717 148 c 0
EndSplineSet
Validated: 1
EndChar

StartChar: geq
Encoding: 8805 8805 8
Width: 799
VWidth: 1000
Flags: W
HStem: -159 53<81.2954 716.705> 44 54<81.5801 104> 605 52<81.3799 102>
LayerCount: 2
Fore
SplineSet
121 -159 m 2
 107 -159 81 -159 81 -133 c 0
 81 -106 105 -106 121 -106 c 2
 677 -106 l 2
 693 -106 717 -106 717 -133 c 0
 717 -159 691 -159 677 -159 c 2
 121 -159 l 2
126 51 m 2
 114 44 112 44 108 44 c 0
 90 44 81 59 81 70 c 0
 81 81 86 89 104 98 c 2
 629 350 l 1
 102 605 l 2
 91 610 81 615 81 630 c 0
 81 648 96 657 107 657 c 2
 108 657 l 2
 112 657 115 656 128 649 c 2
 695 377 l 2
 706 371 717 366 717 350 c 0
 717 334 703 328 694 323 c 2
 126 51 l 2
EndSplineSet
Validated: 1
EndChar

StartChar: rightarrow
Encoding: 8594 8594 9
Width: 1027
VWidth: 1000
Flags: W
HStem: 224 53<52.2734 865>
VStem: 766 46<66.4583 128.245 370.868 434.726>
LayerCount: 2
Fore
SplineSet
92 224 m 6
 75 224 52 224 52 251 c 0
 52 277 76 277 92 277 c 2
 865 277 l 1
 796 333 768 400 766 415 c 0
 766 416 766 416 766 417 c 0
 766 430 777 435 786 435 c 0
 798 435 804 427 807 421 c 0
 824 383 854 315 957 270 c 0
 965 266 968 265 971 262 c 0
 973 260 973 258 974 256 c 0
 975 254 975 252 975 250 c 0
 975 243 971 236 963 233 c 0
 934 221 857 188 812 91 c 0
 805 76 802 72 798 69 c 0
 797 68 796 68 795 68 c 0
 792 67 789 66 786 66 c 0
 777 66 766 71 766 84 c 0
 766 85 766 85 766 86 c 0
 768 100 797 169 865 224 c 1
 92 224 l 6
EndSplineSet
Validated: 1
EndChar

StartChar: check
Encoding: 10003 10003 10
Width: 876
Flags: W
LayerCount: 2
Fore
SplineSet
86 226 m 1
 84 227 83 228 83 232 c 0
 83 262 148 289 168 292 c 2
 169 292 l 1
 176 292 l 1
 178 291 l 2
 179 290 179 290 181 289 c 0
 182 288 183 287 184 285 c 2
 282 128 l 1
 325 252 389 366 470 468 c 0
 517 527 691 713 774 724 c 2
 775 724 l 1
 781 724 l 1
 782 723 l 1
 784 723 l 0
 787 722 792 719 792 711 c 0
 792 702 782 690 778 687 c 0
 753 664 727 648 702 628 c 0
 678 609 657 587 635 565 c 0
 591 521 537 460 487 380 c 0
 418 269 370 148 344 22 c 1
 336 -11 284 -33 259 -36 c 2
 258 -36 l 1
 252 -36 l 1
 251 -36 l 1
 251 -36 250 -35 249 -35 c 0
 247 -34 245 -32 243 -29 c 2
 86 226 l 1
EndSplineSet
Validated: 1
EndChar

StartChar: downfall
Encoding: 8910 8910 11
Width: 806
Flags: W
HStem: 543 54<83.5174 177.635 628.365 722.483>
VStem: 376 54<-27.4891 214.671>
LayerCount: 2
Fore
SplineSet
107 543 m 0
 96 544 83 554 83 570 c 0
 83 586 98 597 112 597 c 1
 287 580 367 425 403 273 c 1
 438 426 519 580 694 597 c 1
 708 597 723 586 723 570 c 0
 723 554 710 544 699 543 c 0
 462 518 430 189 430 -3 c 2
 430 -4 l 2
 428 -13 419 -28 403 -28 c 0
 388 -28 378 -16 376 -4 c 2
 376 -3 l 1
 376 189 344 518 107 543 c 0
EndSplineSet
Validated: 1
EndChar

StartChar: dotplus
Encoding: 8724 8724 12
Width: 818
Flags: W
HStem: 228 55<53.6813 382 436 763.321> 686 121<363.77 455.932>
VStem: 349 121<699.745 792.848> 382 54<-107.372 228 283 618.372>
LayerCount: 2
Fore
SplineSet
349 746 m 0xe0
 349 779 377 807 410 807 c 0
 443 807 470 779 470 746 c 0
 470 713 442 686 410 686 c 0
 376 686 349 713 349 746 c 0xe0
382 228 m 1xd0
 79 228 l 1
 78 228 l 2
 65 230 53 241 53 256 c 0
 53 270 65 281 78 283 c 2
 79 283 l 1
 382 283 l 1
 382 594 l 1
 382 595 l 2
 384 608 395 619 410 619 c 0
 424 619 434 608 436 595 c 2
 436 594 l 1
 436 283 l 1
 739 283 l 1
 740 283 l 2
 749 281 764 272 764 256 c 0
 764 241 752 230 740 228 c 2
 739 228 l 1
 436 228 l 1
 436 -83 l 1
 436 -84 l 2
 434 -97 424 -108 410 -108 c 0
 395 -108 384 -97 382 -84 c 2
 382 -83 l 1
 382 228 l 1xd0
EndSplineSet
Validated: 1
EndChar

StartChar: harpoonrightleft
Encoding: 8652 8652 13
Width: 1051
Flags: W
HStem: 125 54<168 997.614> 333 54<53.5879 884>
LayerCount: 2
Fore
SplineSet
81 387 m 2
 884 387 l 1
 842 425 811 475 795 529 c 2
 793 535 l 1
 839 535 l 1
 841 532 l 2
 871 458 924 397 995 363 c 2
 998 362 l 1
 998 333 l 1
 81 333 l 2
 66 333 53 344 53 359 c 0
 53 374 65 387 81 387 c 2
56 148 m 2
 53 149 l 1
 53 179 l 1
 972 179 l 2
 987 179 998 166 998 152 c 0
 998 138 987 125 972 125 c 2
 168 125 l 1
 210 86 241 36 257 -18 c 2
 259 -24 l 1
 213 -24 l 1
 211 -21 l 2
 181 53 127 114 56 148 c 2
EndSplineSet
Validated: 1
EndChar

StartChar: harpoonupleft
Encoding: 8639 8639 14
Width: 438
Flags: W
HStem: -204 21G<212 227.5> 696 20G<216 247>
VStem: 193 54<-203.581 601>
LayerCount: 2
Fore
SplineSet
193 601 m 1
 154 559 104 528 50 512 c 2
 44 510 l 1
 44 556 l 1
 47 558 l 2
 120 588 182 642 216 713 c 2
 217 716 l 1
 247 716 l 1
 247 -177 l 2
 247 -192 235 -204 220 -204 c 0
 204 -204 193 -192 193 -177 c 2
 193 601 l 1
EndSplineSet
Validated: 1
EndChar

StartChar: followsorequal
Encoding: -1 8829 15
Width: 799
VWidth: 1000
Flags: MW
HStem: -246 60<502 612.5 502 624.5> -63 60<186 296> 429 43<599.5 693 599.5 693>
VStem: 57 30<-220 -212 -212 -180 -220 -163> 711 30<-69 -37 -37 -29>
LayerCount: 2
Fore
SplineSet
72 -246 m 0
 61 -246 58 -228 57 -220 c 1
 57 -212 l 2
 57 -114 120 -3 228 -3 c 0
 371 -3 434 -186 570 -186 c 0
 655 -186 711 -109 711 -29 c 1
 712 -20 715 -3 726 -3 c 0
 737 -3 740 -20 741 -29 c 1
 741 -37 l 2
 741 -135 679 -246 570 -246 c 0
 427 -246 364 -63 228 -63 c 0
 144 -63 87 -140 87 -220 c 1
 86 -228 83 -246 72 -246 c 0
108 149 m 0
 94 149 86 160 86 173 c 1
 104 350 262 421 417 451 c 1
 262 480 104 551 86 729 c 1
 86 741 94 752 108 752 c 0
 119 752 127 743 129 733 c 0
 154 487 506 472 693 472 c 1
 703 470 712 462 712 451 c 0
 712 439 703 431 693 429 c 1
 505 429 154 414 129 169 c 0
 127 158 119 149 108 149 c 0
EndSplineSet
Validated: 1
EndChar

StartChar: squareimage
Encoding: 8847 8847 16
Width: 818
Flags: W
HStem: -58 54<137 734.372> 515 54<137 734.372>
VStem: 83 54<-4 515>
LayerCount: 2
Fore
SplineSet
83 545 m 2
 83 559 99 567 108 569 c 2
 109 569 l 1
 710 569 l 1
 711 569 l 2
 724 567 735 557 735 543 c 0
 735 528 724 517 711 515 c 2
 710 515 l 1
 137 515 l 1
 137 -4 l 1
 710 -4 l 1
 711 -4 l 2
 724 -6 735 -17 735 -32 c 0
 735 -46 724 -56 711 -58 c 2
 710 -58 l 1
 109 -58 l 2
 93 -58 85 -43 83 -35 c 2
 83 545 l 2
EndSplineSet
Validated: 1
EndChar

StartChar: triangle
Encoding: 9651 9651 17
Width: 743
Flags: W
HStem: -28 56<152 591>
LayerCount: 2
Fore
SplineSet
152 28 m 1
 591 28 l 1
 372 505 l 1
 152 28 l 1
83 -0 m 0
 83 1 83 6 84 9 c 1
 84 9 83 8 84 10 c 2
 346 580 l 2
 351 589 361 597 372 597 c 0
 383 597 392 589 397 580 c 2
 659 10 l 2
 661 6 660 2 660 -0 c 0
 660 -14 649 -25 637 -28 c 2
 107 -28 l 1
 95 -25 83 -15 83 -0 c 0
EndSplineSet
Validated: 1
EndChar

StartChar: nand
Encoding: 8892 8892 18
Width: 643
Flags: W
HStem: -5 21G<74 83.5 554.5 570> 684 54<53.6813 588.321>
VStem: 53 51<-4.25935 9> 537 52<-4.48391 12>
LayerCount: 2
Fore
SplineSet
53 712 m 0
 53 726 65 736 78 738 c 2
 79 738 l 1
 564 738 l 1
 565 738 l 2
 577 736 589 726 589 712 c 0
 589 697 577 686 565 684 c 2
 564 684 l 1
 79 684 l 1
 78 684 l 2
 65 686 53 697 53 712 c 0
57 36 m 2
 299 517 l 2
 303 525 313 530 322 530 c 0
 333 530 341 522 346 514 c 2
 588 33 l 1
 589 29 589 25 589 23 c 0
 589 10 578 -5 562 -5 c 0
 547 -5 540 5 537 12 c 2
 322 444 l 1
 104 9 l 2
 99 -3 86 -5 81 -5 c 0
 67 -5 53 8 53 23 c 0
 53 28 55 32 57 36 c 2
EndSplineSet
Validated: 1
EndChar

StartChar: multiopenright
Encoding: 8908 8908 19
Width: 818
Flags: W
HStem: 696 20G<734 742.5>
LayerCount: 2
Fore
SplineSet
53 -1 m 0
 53 7 57 13 61 18 c 2
 717 708 l 2
 724 715 732 716 736 716 c 0
 749 716 764 705 764 689 c 0
 764 678 758 672 757 671 c 2
 446 344 l 1
 757 18 l 2
 761 12 764 6 764 -1 c 0
 764 -17 749 -28 736 -28 c 0
 729 -28 721 -23 717 -19 c 2
 409 305 l 1
 100 -19 l 2
 96 -23 88 -28 81 -28 c 0
 68 -28 53 -17 53 -1 c 0
EndSplineSet
Validated: 1
EndChar

StartChar: revasymptequal
Encoding: 8909 8909 20
Width: 818
Flags: W
HStem: 21 54<53.7323 763.27> 250 71<159.731 313.178> 418 71<503.822 657.269>
VStem: 53 41<390.102 485.856> 723 41<253.334 349.646>
LayerCount: 2
Fore
SplineSet
53 450 m 2
 53 458 l 1
 53 459 l 2
 54 467 57 482 66 487 c 0
 68 488 71 489 74 489 c 0
 75 489 79 489 83 486 c 0
 87 483 92 476 94 459 c 2
 94 458 l 1
 94 383 159 321 233 321 c 0
 367 321 441 489 584 489 c 0
 690 489 764 391 764 290 c 2
 764 282 l 1
 764 281 l 2
 763 272 760 258 751 252 c 0
 751 252 747 250 743 250 c 0
 742 250 738 250 734 253 c 0
 726 260 724 275 723 281 c 2
 723 282 l 1
 723 357 658 418 584 418 c 0
 450 418 376 250 233 250 c 0
 127 250 53 349 53 450 c 2
53 47 m 0
 53 62 66 72 78 75 c 2
 740 75 l 1
 751 72 764 62 764 47 c 0
 764 32 751 23 740 21 c 2
 739 21 l 1
 79 21 l 1
 78 21 l 2
 66 23 53 32 53 47 c 0
EndSplineSet
Validated: 1
EndChar

StartChar: forces
Encoding: 8873 8873 21
Width: 759
Flags: W
HStem: -5 21G<73.5 88 281.5 296> 329 54<315 704.504> 696 20G<73.5 88 281.5 296>
VStem: 53 54<-4.37244 715.321> 261 54<-4.37244 329 383 715.321>
LayerCount: 2
Fore
SplineSet
261 20 m 1
 261 691 l 1
 261 692 l 2
 263 704 274 716 289 716 c 0
 303 716 313 704 315 692 c 2
 315 691 l 1
 315 383 l 1
 681 383 l 1
 682 383 l 2
 696 380 705 368 705 356 c 0
 705 341 694 331 682 329 c 2
 681 329 l 1
 315 329 l 1
 315 20 l 1
 315 19 l 2
 313 6 303 -5 289 -5 c 0
 274 -5 263 6 261 19 c 2
 261 20 l 1
53 20 m 1
 53 691 l 1
 53 692 l 2
 55 704 66 716 81 716 c 0
 95 716 105 704 107 692 c 2
 107 691 l 1
 107 20 l 1
 107 19 l 2
 105 6 95 -5 81 -5 c 0
 66 -5 55 6 53 19 c 2
 53 20 l 1
EndSplineSet
Validated: 1
EndChar

StartChar: arrowtailright
Encoding: 8611 8611 22
Width: 1169
Flags: W
HStem: 228 55<204.134 1007>
LayerCount: 2
Fore
SplineSet
174 235 m 1
 174 276 l 1
 128 317 94 368 71 424 c 2
 69 431 l 1
 115 431 l 1
 117 428 l 2
 140 369 180 318 232 283 c 1
 1007 283 l 1
 966 323 933 371 911 424 c 2
 909 431 l 1
 955 431 l 1
 957 428 l 2
 987 355 1041 294 1112 260 c 2
 1121 256 l 1
 1112 252 l 2
 1041 217 987 156 957 83 c 2
 955 80 l 1
 909 80 l 1
 911 87 l 2
 933 140 966 188 1007 228 c 1
 232 228 l 1
 180 193 141 142 117 83 c 2
 115 80 l 1
 69 80 l 1
 71 87 l 2
 94 143 128 194 174 235 c 1
EndSplineSet
Validated: 1
EndChar

StartChar: leqq
Encoding: 8806 8806 23
Width: 818
Flags: W
HStem: -202 54<83.4163 733.504> 6 54<83.4163 733.504> 170 50<721 733.398> 746 52<718 733.506>
LayerCount: 2
Fore
SplineSet
83 484 m 0
 83 495 91 504 100 509 c 2
 697 796 l 2
 699 797 701 798 708 798 c 0
 724 798 734 783 734 771 c 0
 734 759 727 750 718 746 c 2
 173 484 l 1
 721 220 l 2
 729 216 734 207 734 198 c 0
 734 183 721 170 708 170 c 0
 707 170 l 0
 706 170 704 170 702 170 c 0
 700 170 698 171 696 173 c 2
 97 460 l 2
 88 464 83 474 83 484 c 0
83 33 m 0
 83 48 95 58 108 60 c 2
 109 60 l 1
 710 60 l 1
 711 60 l 2
 723 58 734 48 734 33 c 0
 734 21 725 9 711 6 c 2
 710 6 l 1
 109 6 l 1
 108 6 l 2
 95 8 83 19 83 33 c 0
83 -175 m 0
 83 -160 95 -150 108 -148 c 2
 109 -148 l 1
 710 -148 l 1
 711 -148 l 2
 723 -150 734 -160 734 -175 c 0
 734 -187 725 -199 711 -202 c 2
 710 -202 l 1
 109 -202 l 1
 108 -202 l 2
 95 -200 83 -189 83 -175 c 0
EndSplineSet
Validated: 1
EndChar

StartChar: triangleright
Encoding: 8882 8882 24
Width: 818
Flags: W
VStem: 83 54<12 499>
LayerCount: 2
Fore
SplineSet
137 12 m 1
 644 256 l 1
 137 499 l 1
 137 12 l 1
83 -34 m 1
 83 545 l 1
 83 546 l 2
 85 558 96 569 111 569 c 0
 114 569 117 569 121 568 c 2
 718 280 l 2
 727 275 735 267 735 256 c 0
 735 246 730 236 721 232 c 2
 121 -57 l 1
 117 -58 113 -58 111 -58 c 0
 96 -58 85 -47 83 -35 c 2
 83 -34 l 1
EndSplineSet
Validated: 1
EndChar

StartChar: triangleinv
Encoding: 9661 9661 25
Width: 743
Flags: W
HStem: 543 54<152 591>
LayerCount: 2
Fore
SplineSet
372 64 m 1
 591 543 l 1
 152 543 l 1
 372 64 l 1
84 559 m 2
 82 563 83 567 83 569 c 0
 83 584 95 594 107 597 c 2
 637 597 l 1
 649 594 660 583 660 569 c 0
 660 568 660 563 659 560 c 1
 659 559 l 2
 397 -10 l 2
 393 -19 384 -28 372 -28 c 0
 360 -28 351 -19 346 -10 c 2
 84 559 l 2
EndSplineSet
Validated: 1
EndChar

StartChar: measuredangle
Encoding: 8737 8737 26
Width: 759
Flags: W
HStem: -5 54<140 408 464 704.375>
VStem: 408 56<49 139.329>
LayerCount: 2
Fore
SplineSet
140 49 m 1
 408 49 l 1
 399 125 369 198 321 257 c 1
 140 49 l 1
53 23 m 0
 53 30 57 37 61 41 c 2
 660 730 l 2
 662 733 668 738 679 738 c 0
 693 738 705 726 705 711 c 0
 705 704 703 697 698 692 c 2
 357 299 l 1
 407 239 462 130 464 49 c 1
 681 49 l 1
 682 49 l 2
 694 47 705 37 705 23 c 0
 705 8 694 -3 682 -5 c 2
 681 -5 l 1
 465 -5 l 1
 462 -17 452 -28 438 -28 c 0
 433 -28 418 -26 412 -5 c 1
 79 -5 l 1
 78 -5 l 2
 65 -3 53 8 53 23 c 0
EndSplineSet
Validated: 1
EndChar

StartChar: superseteq
Encoding: 8839 8839 27
Width: 799
VWidth: 1000
Flags: W
HStem: -159 53<81.2954 694.705> 44 53<81.2954 507.039> 604 53<81.2954 502.844>
VStem: 664 53<250.875 450.031>
LayerCount: 2
Fore
SplineSet
121 -159 m 2
 104 -159 81 -159 81 -132 c 0
 81 -106 107 -106 121 -106 c 2
 656 -106 l 2
 671 -106 695 -106 695 -133 c 0
 695 -159 669 -159 656 -159 c 2
 121 -159 l 2
121 604 m 2
 104 604 81 604 81 631 c 0
 81 657 107 657 121 657 c 2
 401 657 l 2
 567 657 717 528 717 350 c 0
 717 176 569 44 401 44 c 2
 121 44 l 2
 104 44 81 44 81 71 c 0
 81 97 107 97 121 97 c 2
 397 97 l 2
 547 97 664 210 664 351 c 0
 664 488 549 604 397 604 c 2
 121 604 l 2
EndSplineSet
Validated: 1
EndChar

StartChar: therefore
Encoding: 8756 8756 28
Width: 701
Flags: W
HStem: -85 125<40.8634 134.8 564.863 659.37> 369 124<302.863 397.37>
VStem: 26 124<-70.1366 24.3698> 288 125<383.863 477.8> 550 125<-70.1366 24.3698>
LayerCount: 2
Fore
SplineSet
350 493 m 0
 384 493 413 465 413 431 c 0
 413 396 384 369 350 369 c 0
 315 369 288 396 288 431 c 0
 288 465 315 493 350 493 c 0
612 40 m 0
 646 40 675 11 675 -23 c 0
 675 -58 646 -85 612 -85 c 0
 577 -85 550 -58 550 -23 c 0
 550 11 577 40 612 40 c 0
88 40 m 0
 122 40 150 11 150 -23 c 0
 150 -58 122 -85 88 -85 c 0
 53 -85 26 -58 26 -23 c 0
 26 11 53 40 88 40 c 0
EndSplineSet
Validated: 1
EndChar

StartChar: rightanglese
Encoding: 9496 9496 29
Width: 525
Flags: W
HStem: -28 55<53.6813 418>
VStem: 418 54<27 390.372>
LayerCount: 2
Fore
SplineSet
53 -1 m 0
 53 14 65 25 78 27 c 2
 79 27 l 1
 418 27 l 1
 418 366 l 1
 418 367 l 2
 420 380 430 391 444 391 c 0
 459 391 470 380 472 367 c 2
 472 366 l 1
 472 -3 l 2
 472 -18 456 -26 447 -28 c 2
 446 -28 l 1
 79 -28 l 1
 78 -28 l 2
 65 -26 53 -15 53 -1 c 0
EndSplineSet
Validated: 1
EndChar

StartChar: squareplus
Encoding: 8862 8862 30
Width: 818
Flags: W
HStem: -5 54<107 382 436 710> 335 54<107 382 436 710> 674 54<107 382 436 710>
VStem: 53 54<49 335 389 674> 382 54<49 335 389 674> 710 54<49 335 389 674>
LayerCount: 2
Fore
SplineSet
436 389 m 1
 710 389 l 1
 710 674 l 1
 436 674 l 1
 436 389 l 1
107 389 m 1
 382 389 l 1
 382 674 l 1
 107 674 l 1
 107 389 l 1
436 49 m 1
 710 49 l 1
 710 335 l 1
 436 335 l 1
 436 49 l 1
107 49 m 1
 382 49 l 1
 382 335 l 1
 107 335 l 1
 107 49 l 1
53 20 m 2
 53 704 l 1
 55 712 63 728 79 728 c 2
 740 728 l 1
 748 726 764 718 764 703 c 2
 764 20 l 1
 764 19 l 2
 762 10 754 -5 739 -5 c 2
 79 -5 l 1
 78 -5 l 2
 67 -3 53 5 53 20 c 2
EndSplineSet
Validated: 1
EndChar

StartChar: satisfies
Encoding: 8872 8872 31
Width: 643
Flags: W
HStem: -5 21G<73.5 88> 225 54<107 588.321> 433 54<107 588.321> 696 20G<73.5 88>
VStem: 53 54<-4.37244 225 279 433 487 715.321>
LayerCount: 2
Fore
SplineSet
53 20 m 1
 53 691 l 1
 53 692 l 2
 55 704 66 716 81 716 c 0
 95 716 105 704 107 692 c 2
 107 691 l 1
 107 487 l 1
 564 487 l 1
 565 487 l 2
 577 485 589 475 589 461 c 0
 589 446 577 435 565 433 c 2
 564 433 l 1
 107 433 l 1
 107 279 l 1
 564 279 l 1
 565 279 l 2
 577 277 589 267 589 253 c 0
 589 238 577 227 565 225 c 2
 564 225 l 1
 107 225 l 1
 107 20 l 1
 107 19 l 2
 105 6 95 -5 81 -5 c 0
 66 -5 55 6 53 19 c 2
 53 20 l 1
EndSplineSet
Validated: 1
EndChar

StartChar: arrowparrleftright
Encoding: 8646 8646 32
Width: 1051
Flags: W
HStem: -6 21G<793 841> 142 54<53.5879 890> 484 55<161 997.367>
LayerCount: 2
Fore
SplineSet
56 507 m 2
 47 511 l 1
 56 515 l 2
 127 549 181 610 211 684 c 2
 213 687 l 1
 259 687 l 1
 257 680 l 2
 235 626 202 578 161 539 c 1
 972 539 l 2
 987 539 998 525 998 511 c 0
 998 497 987 484 972 484 c 2
 161 484 l 1
 202 444 235 396 257 342 c 2
 259 335 l 1
 213 335 l 1
 211 338 l 2
 181 412 127 473 56 507 c 2
53 170 m 0
 53 185 66 196 81 196 c 2
 890 196 l 1
 849 236 817 285 795 338 c 2
 793 345 l 1
 839 345 l 1
 841 342 l 2
 871 269 924 208 995 174 c 2
 1004 170 l 1
 995 166 l 2
 924 132 871 71 841 -3 c 2
 839 -6 l 1
 793 -6 l 1
 795 1 l 2
 817 55 849 103 890 142 c 1
 81 142 l 2
 65 142 53 155 53 170 c 0
EndSplineSet
Validated: 1
EndChar

StartChar: because
Encoding: 8757 8757 33
Width: 701
Flags: W
HStem: -85 125<302.863 397.37> 369 124<40.8634 134.8 564.863 659.37>
VStem: 26 124<383.863 477.8> 288 125<-70.1366 24.3698> 550 125<383.863 477.8>
LayerCount: 2
Fore
SplineSet
612 493 m 0
 646 493 675 465 675 431 c 0
 675 396 646 369 612 369 c 0
 577 369 550 396 550 431 c 0
 550 465 577 493 612 493 c 0
88 493 m 0
 122 493 150 465 150 431 c 0
 150 396 122 369 88 369 c 0
 53 369 26 396 26 431 c 0
 26 465 53 493 88 493 c 0
350 40 m 0
 384 40 413 11 413 -23 c 0
 413 -58 384 -85 350 -85 c 0
 315 -85 288 -58 288 -23 c 0
 288 11 315 40 350 40 c 0
EndSplineSet
Validated: 1
EndChar

StartChar: lessorgreater
Encoding: 8822 8822 34
Width: 818
Flags: W
HStem: -281 52<39.309 55> 231 52<39.543 55> 671 52<762 777.568>
LayerCount: 2
Fore
SplineSet
39 441 m 0
 39 451 46 461 55 466 c 2
 55 467 l 1
 742 722 l 2
 744 723 746 723 752 723 c 0
 767 723 778 710 778 696 c 0
 778 685 772 675 762 671 c 2
 143 441 l 1
 762 212 l 1
 762 211 l 2
 771 206 778 196 778 186 c 0
 778 172 767 159 752 159 c 0
 748 159 743 160 741 161 c 2
 55 416 l 2
 45 420 39 430 39 441 c 0
55 -229 m 2
 674 1 l 1
 55 231 l 2
 45 235 39 245 39 256 c 0
 39 269 51 283 65 283 c 0
 66 283 l 0
 72 283 73 280 74 281 c 1
 75 281 l 1
 762 27 l 1
 762 26 l 2
 771 21 778 11 778 1 c 0
 778 -10 772 -19 762 -24 c 2
 762 -25 l 1
 75 -280 l 2
 72 -281 69 -281 67 -281 c 2
 66 -281 l 2
 51 -281 39 -269 39 -255 c 0
 39 -244 44 -233 55 -229 c 2
EndSplineSet
Validated: 1
EndChar

StartChar: trianglerightequal
Encoding: 8885 8885 35
Width: 818
Flags: W
HStem: -163 54<83.4163 734.553> 654 20G<103.5 112.5>
VStem: 83 54<116 602>
LayerCount: 2
Fore
SplineSet
137 116 m 1
 644 359 l 1
 137 602 l 1
 137 116 l 1
83 71 m 1
 83 649 l 1
 83 650 l 2
 85 662 96 674 111 674 c 0
 114 674 117 674 121 673 c 2
 718 385 l 2
 727 380 735 371 735 360 c 0
 735 350 730 340 721 336 c 2
 121 47 l 1
 117 46 113 46 111 46 c 0
 96 46 85 58 83 70 c 2
 83 71 l 1
83 -136 m 0
 83 -121 95 -111 108 -109 c 2
 109 -109 l 1
 710 -109 l 1
 711 -109 l 2
 722 -111 735 -120 735 -136 c 0
 735 -150 724 -161 711 -163 c 2
 710 -163 l 1
 109 -163 l 1
 108 -163 l 2
 95 -161 83 -150 83 -136 c 0
EndSplineSet
Validated: 1
EndChar

StartChar: lessequalgreater
Encoding: 8922 8922 36
Width: 796
Flags: W
HStem: 227 54<83.6813 712.319> 677 52<666.879 712.484>
LayerCount: 2
Fore
SplineSet
83 547 m 0
 83 558 89 570 100 573 c 2
 677 728 l 2
 679 729 679 729 681 729 c 0
 682 729 l 0
 683 729 683 729 685 729 c 0
 698 729 713 718 713 702 c 0
 713 690 705 681 695 677 c 2
 185 547 l 1
 695 418 l 2
 706 415 713 403 713 393 c 0
 713 379 700 365 685 365 c 2
 685 365 683 365 681 365 c 0
 680 365 678 365 677 366 c 0
 676 366 676 367 675 367 c 2
 100 522 l 2
 89 526 83 536 83 547 c 0
83 255 m 0
 83 269 95 279 108 281 c 2
 109 281 l 1
 687 281 l 1
 688 281 l 2
 701 279 713 269 713 255 c 0
 713 240 701 229 688 227 c 2
 687 227 l 1
 109 227 l 1
 108 227 l 2
 95 229 83 240 83 255 c 0
100 -168 m 2
 611 -38 l 1
 100 92 l 2
 89 95 83 106 83 117 c 0
 83 133 98 144 111 144 c 0
 114 144 117 144 121 143 c 2
 695 -13 l 2
 705 -17 713 -26 713 -38 c 0
 713 -53 700 -63 695 -64 c 2
 119 -219 l 2
 117 -220 117 -220 115 -220 c 0
 114 -220 l 0
 113 -220 113 -220 111 -220 c 0
 98 -220 83 -209 83 -193 c 0
 83 -182 89 -172 100 -168 c 2
EndSplineSet
EndChar

StartChar: geomequivalent
Encoding: 8782 8782 37
Width: 818
Flags: W
HStem: -7 54<346.874 470.849> 125 54<53.4482 258.019 559.006 763.553> 333 54<53.7323 258.019 559.006 763.27> 464 54<346.874 470.849>
VStem: 253 51<91.3109 125 387 420.29> 513 51<91.3109 125 387 420.29>
LayerCount: 2
Fore
SplineSet
53 359 m 0
 53 374 66 384 78 387 c 2
 253 387 l 1
 266 461 332 518 409 518 c 0
 486 518 551 461 564 387 c 1
 740 387 l 1
 751 384 764 374 764 359 c 0
 764 344 751 335 740 333 c 2
 739 333 l 1
 538 333 l 2
 524 333 515 346 513 356 c 2
 513 357 l 2
 513 414 467 464 409 464 c 0
 351 464 304 414 304 357 c 0
 304 342 291 335 281 333 c 2
 79 333 l 1
 78 333 l 2
 66 335 53 344 53 359 c 0
53 152 m 0
 53 167 66 176 78 179 c 2
 280 179 l 2
 290 179 300 172 304 155 c 2
 304 154 l 2
 304 97 351 47 409 47 c 0
 467 47 513 97 513 154 c 0
 513 159 514 172 536 179 c 2
 537 179 l 1
 740 179 l 1
 751 176 764 167 764 152 c 0
 764 137 752 127 740 125 c 2
 739 125 l 1
 564 125 l 1
 551 50 486 -7 409 -7 c 0
 332 -7 266 50 253 125 c 1
 79 125 l 1
 78 125 l 2
 65 127 53 137 53 152 c 0
EndSplineSet
Validated: 1
EndChar

StartChar: complement
Encoding: 8705 8705 38
Width: 525
Flags: W
HStem: -28 99<172.996 352.004> 552 21G<404 439.5> 774 98<177.353 352.004>
VStem: 53 98<95.296 749.679> 374 98<95.296 284.587 560.427 749.679>
LayerCount: 2
Fore
SplineSet
53 721 m 2
 53 829 172 872 260 872 c 2
 265 872 l 2
 353 872 472 829 472 721 c 2
 472 599 l 1
 472 598 l 2
 469 572 453 555 426 552 c 2
 425 552 l 1
 420 552 l 1
 419 552 l 2
 389 556 377 578 374 598 c 2
 374 599 l 1
 374 716 l 2
 374 762 301 774 263 774 c 0
 200 774 173 754 160 740 c 0
 158 737 154 734 153 731 c 0
 152 729 151 725 151 723 c 2
 151 129 l 2
 151 83 224 71 263 71 c 0
 297 71 341 76 366 104 c 0
 368 106 370 109 372 114 c 0
 373 116 374 120 374 122 c 2
 374 246 l 1
 374 247 l 2
 377 267 389 289 419 293 c 2
 420 293 l 1
 425 293 l 1
 426 293 l 2
 452 290 469 274 472 247 c 2
 472 246 l 1
 472 124 l 2
 472 16 353 -28 265 -28 c 2
 260 -28 l 2
 172 -28 53 16 53 124 c 2
 53 721 l 2
EndSplineSet
Validated: 1
EndChar

StartChar: square
Encoding: 9633 9633 39
Width: 818
Flags: W
HStem: -5 54<107 710> 674 54<107 710>
VStem: 53 54<49 674> 710 54<49 674>
LayerCount: 2
Fore
SplineSet
107 49 m 1
 710 49 l 1
 710 674 l 1
 107 674 l 1
 107 49 l 1
53 703 m 2
 53 718 69 726 78 728 c 2
 79 728 l 1
 739 728 l 2
 754 728 762 712 764 704 c 2
 764 20 l 2
 764 5 749 -3 740 -5 c 2
 79 -5 l 2
 65 -5 55 7 53 19 c 2
 53 20 l 1
 53 703 l 2
EndSplineSet
Validated: 1
EndChar

StartChar: dblarrowheadleft
Encoding: 8606 8606 40
Width: 1051
Flags: W
HStem: 228 55<161 316.05 355 997.498>
LayerCount: 2
Fore
SplineSet
56 252 m 2
 47 256 l 1
 56 260 l 2
 127 294 181 355 211 428 c 2
 213 431 l 1
 259 431 l 1
 257 424 l 2
 235 371 202 323 161 283 c 1
 288 283 l 1
 340 318 381 369 405 428 c 2
 407 431 l 1
 452 431 l 1
 450 424 l 2
 428 371 396 323 355 283 c 1
 972 283 l 2
 987 283 998 270 998 256 c 0
 998 241 987 228 972 228 c 2
 355 228 l 1
 396 188 428 140 450 87 c 2
 452 80 l 1
 407 80 l 1
 405 83 l 2
 381 142 340 193 288 228 c 1
 161 228 l 1
 202 188 235 140 257 87 c 2
 259 80 l 1
 213 80 l 1
 211 83 l 2
 181 156 127 217 56 252 c 2
EndSplineSet
Validated: 1
EndChar

StartChar: northwestarrow
Encoding: 8598 8598 41
Width: 1027
VWidth: 1000
Flags: W
HStem: 635 40<152.469 285.51>
VStem: 76 40<464.652 598.788>
LayerCount: 2
Fore
SplineSet
114 599 m 1
 115 590 116 579 116 566 c 0
 116 511 98 437 79 425 c 0
 77 424 75 423 72 423 c 0
 63 423 50 433 50 445 c 0
 50 446 l 0
 50 447 50 447 50 448 c 0
 51 452 54 459 57 467 c 0
 76 513 76 563 76 566 c 0
 76 569 76 618 57 665 c 0
 53 674 53 675 52 678 c 0
 52 679 52 680 52 681 c 0
 52 691 60 699 70 699 c 0
 72 699 72 699 73 699 c 0
 76 698 81 696 86 694 c 0
 133 676 182 675 185 675 c 2
 186 675 l 2
 197 675 242 676 290 696 c 0
 298 699 300 701 303 701 c 0
 303 701 303 701 304 701 c 0
 304 701 305 701 306 701 c 0
 315 701 328 690 328 679 c 0
 328 676 328 674 326 672 c 0
 313 653 236 635 186 635 c 0
 173 635 162 636 152 637 c 1
 961 -172 l 2
 973 -184 975 -187 975 -197 c 0
 975 -212 964 -224 948 -224 c 0
 938 -224 935 -222 923 -210 c 2
 114 599 l 1
EndSplineSet
Validated: 1
EndChar

StartChar: defines
Encoding: 8796 8796 42
Width: 818
Flags: W
HStem: 125 54<53.4482 764.553> 333 54<53.7323 764.27> 499 54<252 566>
LayerCount: 2
Fore
SplineSet
252 553 m 1
 566 553 l 1
 410 827 l 1
 252 553 l 1
177 525 m 0
 177 528 178 535 181 540 c 2
 386 895 l 2
 391 903 400 907 410 907 c 0
 419 907 427 902 432 895 c 2
 637 540 l 2
 640 535 641 528 641 525 c 0
 641 511 629 501 616 499 c 2
 615 499 l 1
 203 499 l 1
 202 499 l 2
 189 501 177 511 177 525 c 0
53 359 m 0
 53 374 66 384 78 387 c 2
 741 387 l 1
 752 384 765 374 765 359 c 0
 765 344 752 335 741 333 c 2
 740 333 l 1
 79 333 l 1
 78 333 l 2
 66 335 53 344 53 359 c 0
53 152 m 0
 53 167 66 176 78 179 c 2
 741 179 l 1
 752 176 765 167 765 152 c 0
 765 137 753 127 741 125 c 2
 740 125 l 1
 79 125 l 1
 78 125 l 2
 65 127 53 137 53 152 c 0
EndSplineSet
Validated: 1
EndChar

StartChar: subsetdbl
Encoding: 8912 8912 43
Width: 818
Flags: W
HStem: -58 54<304.995 733.375> 106 54<338.547 733.504> 351 54<338.547 733.375> 515 54<304.995 733.375>
VStem: 83 54<152.999 358.465> 247 54<196.453 314.847>
LayerCount: 2
Fore
SplineSet
247 256 m 0
 247 338 314 405 397 405 c 2
 404 405 l 2
 408 405 410 405 412 405 c 2
 710 405 l 1
 711 405 l 2
 723 403 734 393 734 379 c 0
 734 364 723 353 711 351 c 2
 710 351 l 1
 405 351 l 1
 403 351 l 1
 403 351 402 351 400 351 c 2
 397 351 l 2
 345 351 301 307 301 256 c 0
 301 204 345 160 397 160 c 2
 402 160 l 2
 402 160 405 160 407 160 c 2
 710 160 l 1
 711 160 l 2
 725 157 734 145 734 133 c 0
 734 118 723 108 711 106 c 2
 710 106 l 1
 411 106 l 2
 410 106 407 106 404 106 c 2
 397 106 l 2
 314 106 247 173 247 256 c 0
407 569 m 2
 710 569 l 1
 711 569 l 2
 723 567 734 557 734 543 c 0
 734 528 723 517 711 515 c 2
 710 515 l 1
 411 515 l 2
 265 515 137 405 137 256 c 0
 137 106 265 -4 411 -4 c 2
 710 -4 l 1
 711 -4 l 2
 723 -6 734 -17 734 -32 c 0
 734 -46 723 -56 711 -58 c 2
 710 -58 l 1
 407 -58 l 2
 233 -58 83 79 83 256 c 0
 83 432 233 569 407 569 c 2
EndSplineSet
Validated: 1
EndChar

StartChar: ggreater
Encoding: 8811 8811 44
Width: 1027
VWidth: 1000
Flags: W
LayerCount: 2
Fore
SplineSet
952 223 m 2
 399 -84 l 1
 398 -84 l 2
 389 -84 365 -84 365 -58 c 0
 365 -44 371 -40 388 -31 c 2
 894 251 l 1
 386 533 l 2
 375 538 365 543 365 559 c 0
 365 575 379 585 391 585 c 0
 395 585 402 583 411 578 c 2
 955 277 l 2
 964 272 975 265 975 251 c 0
 975 236 968 232 952 223 c 2
639 223 m 2
 86 -84 l 1
 85 -84 l 2
 76 -84 52 -84 52 -58 c 0
 52 -44 58 -40 75 -31 c 2
 581 251 l 1
 73 533 l 2
 62 538 52 543 52 559 c 0
 52 575 66 585 78 585 c 0
 82 585 89 583 98 578 c 2
 642 277 l 2
 651 272 662 265 662 251 c 0
 662 236 655 232 639 223 c 2
EndSplineSet
Validated: 1
EndChar

StartChar: circlering
Encoding: 8858 8858 45
Width: 818
Flags: W
HStem: -101 43<302.36 515.533> 106 54<349.382 468.336> 352 54<349.382 468.336> 569 43<302.36 515.533>
VStem: 53 43<149.252 362.254> 258 54<197.565 314.435> 505 54<196.664 315.336> 721 43<149.252 362.254>
LayerCount: 2
Fore
SplineSet
312 256 m 0
 312 204 357 160 409 160 c 0
 461 160 505 204 505 256 c 0
 505 308 461 352 409 352 c 0
 357 352 312 308 312 256 c 0
409 406 m 0
 491 406 559 338 559 256 c 0
 559 174 491 106 409 106 c 0
 327 106 258 174 258 256 c 0
 258 338 327 406 409 406 c 0
409 -58 m 0
 581 -58 721 84 721 256 c 0
 721 427 581 569 409 569 c 0
 237 569 96 427 96 256 c 0
 96 84 237 -58 409 -58 c 0
53 256 m 0
 53 452 212 612 409 612 c 0
 606 612 764 452 764 256 c 0
 764 59 606 -101 409 -101 c 0
 212 -101 53 59 53 256 c 0
EndSplineSet
Validated: 1
EndChar

StartChar: squaresmallsolid
Encoding: 9642 9642 46
Width: 291
Flags: W
HStem: -5 207<53.4029 236.554>
VStem: 53 184<-4.67281 201.278>
LayerCount: 2
Fore
SplineSet
53 177 m 2
 53 192 69 200 78 202 c 2
 79 202 l 1
 213 202 l 2
 227 202 235 187 237 178 c 2
 237 20 l 2
 237 6 224 -3 214 -5 c 2
 79 -5 l 2
 65 -5 55 7 53 19 c 2
 53 20 l 1
 53 177 l 2
EndSplineSet
Validated: 1
EndChar

StartChar: Rightarrow
Encoding: 8658 8658 47
Width: 1027
VWidth: 1000
Flags: W
HStem: 122 53<52.3069 680> 233 35<907.494 961> 326 53<52.3069 680>
CounterMasks: 1 e0
LayerCount: 2
Fore
SplineSet
90 326 m 2
 76 326 52 326 52 352 c 0
 52 379 79 379 94 379 c 2
 680 379 l 1
 630 434 591 504 589 517 c 0
 589 517 589 517 589 518 c 0
 589 521 589 523 590 526 c 0
 591 528 593 530 595 531 c 0
 601 535 608 536 614 536 c 2
 615 536 l 2
 632 536 634 534 645 515 c 0
 729 362 847 299 960 268 c 2
 961 268 l 1
 961 267 l 2
 963 266 975 264 975 250 c 1
 973 237 963 234 960 233 c 0
 926 224 835 199 755 127 c 0
 719 95 683 56 645 -13 c 0
 634 -33 632 -35 615 -35 c 1
 615 -35 601 -35 595 -30 c 0
 593 -29 591 -27 590 -25 c 0
 589 -23 589 -20 589 -17 c 0
 589 -16 l 0
 591 -2 631 69 680 122 c 1
 94 122 l 2
 79 122 52 122 52 149 c 0
 52 175 77 175 90 175 c 2
 721 175 l 2
 738 175 738 176 745 182 c 0
 785 213 827 236 860 251 c 1
 806 274 763 306 745 320 c 0
 738 326 738 326 721 326 c 2
 90 326 l 2
EndSplineSet
Validated: 1
EndChar

StartChar: squiggleright
Encoding: 8669 8669 48
Width: 1051
Flags: W
HStem: 228 55<676 890>
LayerCount: 2
Fore
SplineSet
53 256 m 0
 53 263 58 271 62 275 c 2
 160 360 l 2
 161 361 167 367 178 367 c 0
 186 367 192 364 197 360 c 2
 373 207 l 1
 549 360 l 2
 555 364 561 367 567 367 c 0
 574 367 581 365 586 360 c 2
 676 283 l 1
 890 283 l 1
 849 323 817 371 795 424 c 2
 793 431 l 1
 839 431 l 1
 841 428 l 2
 871 355 924 294 995 260 c 2
 1004 256 l 1
 995 252 l 2
 924 217 871 156 841 83 c 2
 839 80 l 1
 793 80 l 1
 795 87 l 2
 817 140 849 188 890 228 c 1
 664 228 l 2
 656 228 651 232 645 238 c 2
 567 304 l 1
 391 151 l 2
 386 146 381 143 373 143 c 0
 365 143 359 146 354 151 c 2
 178 304 l 1
 99 236 l 2
 95 232 88 228 81 228 c 0
 67 228 53 241 53 256 c 0
EndSplineSet
Validated: 1
EndChar

StartChar: lessorsimilar
Encoding: 8818 8818 49
Width: 818
Flags: W
HStem: -252 72<503.108 656.335> -74 72<161.093 313.892> 143 50<721 733.398> 719 52<718 733.506>
VStem: 53 41<-248.666 -145.907> 723 41<-108.093 -5.28706>
LayerCount: 2
Fore
SplineSet
83 458 m 0
 83 469 91 477 100 482 c 2
 697 769 l 2
 699 770 701 771 708 771 c 0
 724 771 734 756 734 744 c 0
 734 732 727 723 718 719 c 2
 173 458 l 1
 721 193 l 2
 729 189 734 180 734 171 c 0
 734 156 721 143 708 143 c 0
 705 143 702 143 699 145 c 0
 698 145 699 146 698 146 c 0
 698 146 698 146 697 147 c 0
 697 147 697 146 696 147 c 2
 97 433 l 2
 87 437 83 448 83 458 c 0
53 -221 m 2
 53 -220 l 1
 53 -212 l 2
 53 -110 121 -2 233 -2 c 0
 379 -2 448 -180 584 -180 c 0
 663 -180 723 -111 723 -34 c 2
 723 -33 l 2
 724 -25 726 -11 734 -5 c 0
 735 -4 739 -2 743 -2 c 0
 746 -2 748 -2 751 -4 c 0
 760 -10 763 -24 764 -33 c 2
 764 -34 l 1
 764 -42 l 2
 764 -143 697 -252 584 -252 c 0
 438 -252 369 -74 233 -74 c 0
 155 -74 94 -143 94 -220 c 2
 94 -221 l 2
 93 -227 91 -242 83 -249 c 0
 82 -250 78 -252 74 -252 c 0
 73 -252 70 -253 66 -250 c 0
 61 -247 55 -239 53 -221 c 2
EndSplineSet
Validated: 1
EndChar

StartChar: equaldotleftright
Encoding: 8786 8786 50
Width: 818
Flags: W
HStem: -119 125<689.863 784.37> 125 54<53.4482 763.553> 333 54<53.7323 763.27> 505 125<33.8634 127.8>
VStem: 19 124<519.863 614.37> 675 125<-103.707 -9.20026>
LayerCount: 2
Fore
SplineSet
81 630 m 0
 115 630 143 601 143 567 c 0
 143 532 115 505 81 505 c 0
 46 505 19 532 19 567 c 0
 19 601 46 630 81 630 c 0
53 359 m 0
 53 374 66 384 78 387 c 2
 740 387 l 1
 751 384 764 374 764 359 c 0
 764 344 751 335 740 333 c 2
 739 333 l 1
 79 333 l 1
 78 333 l 2
 66 335 53 344 53 359 c 0
53 152 m 0
 53 167 66 176 78 179 c 2
 740 179 l 1
 751 176 764 167 764 152 c 0
 764 137 752 127 740 125 c 2
 739 125 l 1
 79 125 l 1
 78 125 l 2
 65 127 53 137 53 152 c 0
737 6 m 0
 771 6 800 -22 800 -56 c 0
 800 -91 771 -119 737 -119 c 0
 702 -119 675 -91 675 -56 c 0
 675 -22 702 6 737 6 c 0
EndSplineSet
Validated: 1
EndChar

StartChar: triangledownsld
Encoding: 9660 9660 51
Width: 743
Flags: W
LayerCount: 2
Fore
SplineSet
84 559 m 2
 82 563 83 567 83 569 c 0
 83 584 95 594 107 597 c 2
 637 597 l 1
 649 594 660 583 660 569 c 0
 660 568 660 563 659 560 c 1
 659 559 l 2
 397 -10 l 2
 393 -19 384 -28 372 -28 c 0
 360 -28 351 -19 346 -10 c 2
 84 559 l 2
EndSplineSet
Validated: 1
EndChar

StartChar: Yen
Encoding: 165 165 52
Width: 788
Flags: W
HStem: -5 46<241 343.413 445.588 549> 210 43<61.0967 345 444 727.903> 418 43<61.0967 229 374 478 560 727.903> 659 45<8 112.148 233.037 302 550 602.832 689.895 780>
VStem: 345 99<48.959 210 253 279>
LayerCount: 2
Fore
SplineSet
426 335 m 1
 478 418 l 1
 374 418 l 1
 426 335 l 1
60 228 m 2
 60 234 l 2
 60 237 61 237 61 238 c 0
 63 244 68 249 72 251 c 0
 74 252 76 253 78 253 c 2
 345 253 l 1
 345 279 l 1
 256 418 l 1
 78 418 l 2
 76 418 75 419 74 419 c 0
 69 421 63 426 61 432 c 0
 61 433 60 435 60 436 c 2
 60 442 l 2
 60 445 61 445 61 446 c 0
 63 452 68 457 72 459 c 0
 74 460 76 461 78 461 c 2
 229 461 l 1
 122 627 l 1
 98 658 55 659 13 659 c 2
 8 659 l 1
 8 704 l 1
 13 704 l 2
 56 704 99 701 143 701 c 0
 194 701 246 704 297 704 c 2
 302 704 l 1
 302 659 l 1
 297 659 l 1
 296 659 l 2
 284 659 233 659 233 640 c 0
 233 639 233 635 235 633 c 2
 346 461 l 1
 506 461 l 1
 598 604 l 2
 604 614 605 622 605 626 c 0
 605 652 573 659 555 659 c 2
 550 659 l 1
 550 704 l 1
 555 704 l 2
 595 704 636 701 677 701 c 0
 711 701 742 704 775 704 c 2
 780 704 l 1
 780 659 l 1
 775 659 l 2
 725 659 677 641 649 598 c 2
 560 461 l 1
 711 461 l 2
 712 461 714 461 717 459 c 0
 721 457 726 452 728 446 c 0
 728 445 729 444 729 442 c 2
 729 436 l 2
 729 433 728 434 728 432 c 0
 726 426 720 421 715 419 c 0
 714 419 713 418 711 418 c 2
 533 418 l 1
 444 279 l 1
 444 253 l 1
 711 253 l 2
 712 253 714 253 717 251 c 0
 721 249 726 244 728 238 c 0
 728 237 729 236 729 234 c 2
 729 228 l 2
 729 225 728 226 728 224 c 0
 726 218 720 213 715 211 c 0
 714 211 713 210 711 210 c 2
 444 210 l 1
 444 70 l 2
 444 43 507 41 544 41 c 2
 549 41 l 1
 549 -5 l 1
 544 -5 l 2
 494 -5 444 -2 394 -2 c 0
 345 -2 296 -5 246 -5 c 2
 241 -5 l 1
 241 41 l 1
 246 41 l 2
 282 41 345 43 345 70 c 2
 345 210 l 1
 78 210 l 2
 76 210 75 211 74 211 c 0
 69 213 63 218 61 224 c 0
 61 225 60 227 60 228 c 2
EndSplineSet
Validated: 1
EndChar

StartChar: uniondbl
Encoding: 8914 8914 53
Width: 701
Flags: W
HStem: -28 55<231.081 470.968> 136 54<292.551 407.449>
VStem: 53 54<125.662 618.375> 217 54<210.911 618.375> 429 54<210.911 618.375> 593 54<125.213 618.375>
LayerCount: 2
Fore
SplineSet
217 254 m 2
 217 595 l 1
 217 596 l 2
 219 608 230 619 245 619 c 0
 259 619 269 608 271 596 c 2
 271 595 l 1
 271 258 l 2
 271 217 310 190 350 190 c 0
 390 190 429 217 429 258 c 2
 429 595 l 1
 429 596 l 2
 431 608 442 619 457 619 c 0
 471 619 481 608 483 596 c 2
 483 595 l 1
 483 254 l 2
 483 182 414 136 350 136 c 0
 286 136 217 182 217 254 c 2
53 196 m 2
 53 595 l 1
 53 596 l 2
 55 608 66 619 81 619 c 0
 95 619 105 608 107 596 c 2
 107 595 l 1
 107 200 l 2
 107 78 245 27 350 27 c 0
 454 27 593 78 593 199 c 2
 593 595 l 1
 593 596 l 2
 595 608 606 619 621 619 c 0
 635 619 645 608 647 596 c 2
 647 595 l 1
 647 195 l 2
 647 41 478 -28 350 -28 c 0
 221 -28 53 41 53 196 c 2
EndSplineSet
Validated: 1
EndChar

StartChar: rightanglene
Encoding: 9488 9488 54
Width: 525
Flags: W
HStem: 662 54<53.4163 418>
VStem: 418 54<297.681 662>
LayerCount: 2
Fore
SplineSet
418 662 m 1
 79 662 l 1
 78 662 l 2
 65 664 53 674 53 689 c 0
 53 703 65 714 78 716 c 2
 79 716 l 1
 446 716 l 2
 462 716 470 700 472 692 c 2
 472 323 l 1
 472 322 l 2
 470 309 459 297 444 297 c 0
 430 297 420 309 418 322 c 2
 418 323 l 1
 418 662 l 1
EndSplineSet
Validated: 1
EndChar

StartChar: ominus
Encoding: 8854 8854 55
Width: 799
VWidth: 1000
Flags: W
HStem: -97 38<294.652 503.328> 232 38<90 708> 560 38<297.225 500.589>
VStem: 52 38<148.345 232 270 352.162> 708 38<148.345 232 270 352.162>
LayerCount: 2
Fore
SplineSet
708 232 m 1
 90 232 l 1
 102 60 243 -59 399 -59 c 0
 554 -59 696 60 708 232 c 1
90 270 m 1
 708 270 l 1
 696 438 558 560 399 560 c 0
 240 560 102 438 90 270 c 1
399 -97 m 0
 208 -97 52 57 52 251 c 0
 52 441 207 598 399 598 c 0
 590 598 746 444 746 250 c 0
 746 60 591 -97 399 -97 c 0
EndSplineSet
Validated: 1
EndChar

StartChar: clockwise
Encoding: 8635 8635 56
Width: 818
Flags: W
HStem: -101 43<302.36 515.533> 539 39<533.073 575.308> 569 43<387.33 429.992>
VStem: 53 43<149.252 365.852> 721 43<149.252 367.611>
LayerCount: 2
Fore
SplineSet
53 256 m 0xd8
 53 401 145 537 281 589 c 1
 243 608 211 635 181 665 c 2
 175 671 l 1
 222 683 l 1
 224 680 l 2
 255 644 297 619 343 606 c 1
 363 610 385 612 408 612 c 0
 419 612 430 604 430 591 c 0
 430 580 422 569 411 569 c 0xb8
 403 569 394 569 387 568 c 1
 342 530 310 475 300 417 c 2
 299 414 l 1
 254 401 l 1
 255 409 l 2
 263 458 282 503 311 543 c 1
 308 553 l 1
 183 510 96 388 96 256 c 0
 96 84 237 -58 409 -58 c 0
 581 -58 721 84 721 256 c 0
 721 375 652 487 544 539 c 0
 537 542 533 550 533 557 c 0
 533 569 542 578 554 578 c 0
 558 578 560 577 564 576 c 2
 686 518 764 390 764 256 c 0
 764 59 606 -101 409 -101 c 0
 212 -101 53 59 53 256 c 0xd8
EndSplineSet
Validated: 1
EndChar

StartChar: dblarrowdwn
Encoding: 8650 8650 57
Width: 876
Flags: W
HStem: -204 21G<259.5 268 612.5 617> -37 43<72.1428 125.128> 696 20G<256 268.5 607 619>
VStem: 237 53<-96 715.421> 587 54<-96 715.287>
LayerCount: 2
Fore
SplineSet
70 -22 m 2
 70 -10 l 2
 70 -9 69 -5 73 -1 c 0
 74 0 79 6 88 6 c 2
 93 6 l 1
 94 6 l 2
 148 -16 198 -51 237 -96 c 1
 237 691 l 2
 237 705 249 716 263 716 c 0
 274 716 290 706 290 691 c 2
 290 -96 l 1
 328 -51 378 -16 432 6 c 2
 433 6 l 1
 443 6 l 1
 444 6 l 2
 499 -16 549 -51 587 -96 c 1
 587 691 l 2
 587 706 601 716 613 716 c 0
 625 716 641 706 641 691 c 2
 641 -96 l 1
 679 -51 728 -16 783 6 c 2
 784 6 l 1
 790 6 l 2
 793 6 801 5 805 -3 c 0
 806 -6 807 -8 807 -10 c 2
 807 -22 l 2
 807 -23 807 -25 805 -29 c 0
 803 -33 800 -36 796 -37 c 0
 722 -64 662 -120 631 -192 c 0
 628 -199 621 -204 613 -204 c 0
 612 -204 610 -204 607 -203 c 0
 606 -202 600 -199 597 -192 c 0
 566 -122 509 -67 438 -39 c 1
 367 -67 310 -122 280 -192 c 0
 279 -195 273 -204 263 -204 c 0
 256 -204 250 -200 246 -192 c 0
 215 -120 156 -65 82 -37 c 0
 81 -37 75 -35 72 -29 c 0
 71 -27 70 -24 70 -22 c 2
EndSplineSet
Validated: 1
EndChar

StartChar: curlyleft
Encoding: 8619 8619 58
Width: 1051
Flags: W
HStem: 228 55<161 649 703 906.665> 542 55<753.972 924.174>
VStem: 649 54<-49.5531 228 283 480.864> 966 55<335.014 501.523>
LayerCount: 2
Fore
SplineSet
703 283 m 1
 741 283 l 2
 852 283 966 283 966 413 c 0
 966 506 926 542 835 542 c 0
 763 542 727 516 713 446 c 0
 704 402 703 348 703 283 c 1
56 252 m 2
 47 256 l 1
 56 260 l 2
 127 294 181 355 211 428 c 2
 213 431 l 1
 259 431 l 1
 257 424 l 2
 235 371 202 323 161 283 c 1
 649 283 l 1
 649 423 652 597 835 597 c 0
 984 597 1021 507 1021 413 c 0
 1021 235 879 228 742 228 c 2
 703 228 l 1
 703 -26 l 1
 698 -43 687 -50 676 -50 c 0
 660 -50 651 -37 649 -26 c 2
 649 -25 l 1
 649 228 l 1
 161 228 l 1
 202 188 235 140 257 87 c 2
 259 80 l 1
 213 80 l 1
 211 83 l 2
 181 156 127 217 56 252 c 2
EndSplineSet
Validated: 1
EndChar

StartChar: geqq
Encoding: 8807 8807 59
Width: 818
Flags: W
HStem: -202 54<83.4163 733.504> 6 54<83.4163 733.504> 170 52<83.6734 100> 747 51<83.5161 97>
LayerCount: 2
Fore
SplineSet
100 222 m 2
 644 484 l 1
 97 747 l 2
 88 751 83 761 83 771 c 0
 83 787 98 798 111 798 c 0
 114 798 117 798 121 797 c 2
 721 507 l 2
 729 503 734 493 734 484 c 0
 734 472 727 463 718 459 c 2
 121 173 l 2
 117 170 113 170 111 170 c 0
 97 170 83 183 83 198 c 0
 83 209 91 217 100 222 c 2
83 33 m 0
 83 48 95 58 108 60 c 2
 109 60 l 1
 710 60 l 1
 711 60 l 2
 723 58 734 48 734 33 c 0
 734 21 725 9 711 6 c 2
 710 6 l 1
 109 6 l 1
 108 6 l 2
 95 8 83 19 83 33 c 0
83 -175 m 0
 83 -160 95 -150 108 -148 c 2
 109 -148 l 1
 710 -148 l 1
 711 -148 l 2
 723 -150 734 -160 734 -175 c 0
 734 -187 725 -199 711 -202 c 2
 710 -202 l 1
 109 -202 l 1
 108 -202 l 2
 95 -200 83 -189 83 -175 c 0
EndSplineSet
Validated: 1
EndChar

StartChar: arrowtripleleft
Encoding: 8666 8666 60
Width: 1051
Flags: W
HStem: 21 54<395 997.504> 228 55<201 997.498> 436 54<395 997.375>
CounterMasks: 1 e0
LayerCount: 2
Fore
SplineSet
79 252 m 2
 71 256 l 1
 79 260 l 2
 228 341 342 476 399 636 c 2
 400 639 l 1
 465 639 l 1
 463 632 l 2
 446 582 422 534 395 490 c 1
 974 490 l 1
 975 490 l 2
 987 488 998 478 998 464 c 0
 998 449 987 438 975 436 c 2
 974 436 l 1
 358 436 l 1
 314 378 261 326 201 283 c 1
 972 283 l 2
 987 283 998 270 998 256 c 0
 998 241 987 228 972 228 c 2
 201 228 l 1
 261 185 314 133 358 75 c 1
 974 75 l 1
 975 75 l 2
 989 72 998 60 998 48 c 0
 998 33 987 23 975 21 c 2
 974 21 l 1
 395 21 l 1
 422 -23 446 -71 463 -121 c 2
 465 -128 l 1
 400 -128 l 1
 399 -125 l 2
 342 35 228 171 79 252 c 2
EndSplineSet
Validated: 1
EndChar

StartChar: uprise
Encoding: 8911 8911 61
Width: 806
Flags: W
HStem: -28 55<83.6276 180.334 625.615 722.372>
VStem: 376 54<354.364 596.489>
LayerCount: 2
Fore
SplineSet
107 27 m 1
 344 51 376 380 376 572 c 2
 376 573 l 2
 378 585 388 597 403 597 c 0
 419 597 428 582 430 573 c 2
 430 572 l 1
 430 380 462 51 699 27 c 1
 712 25 723 14 723 -1 c 0
 723 -17 708 -28 694 -28 c 1
 519 -11 438 143 403 296 c 1
 367 144 287 -11 112 -28 c 1
 98 -28 83 -17 83 -1 c 0
 83 14 94 25 107 27 c 1
EndSplineSet
Validated: 1
EndChar

StartChar: circleS
Encoding: 9416 9416 62
Width: 937
Flags: W
HStem: -186 54<339.413 598.587> -19 41<397.376 549.036> 519 39<387.078 520.998> 693 54<339.413 598.587>
VStem: 2 54<151.22 410.494> 282 66<370.038 479.19> 282 42<90.5942 175.859> 590 66<65.135 186.935> 591 43<355 444.189> 882 54<151.22 410.494>
LayerCount: 2
Fore
SplineSet
282 169 m 2xfb40
 282 170 282 173 284 176 c 0
 286 179 290 181 293 182 c 0
 295 183 296 183 297 183 c 2
 309 183 l 2
 312 183 311 183 313 182 c 0
 316 181 320 179 322 176 c 0
 323 174 324 172 324 169 c 0
 324 69 398 22 492 22 c 0
 547 22 590 71 590 124 c 0xfb40
 590 171 558 213 513 223 c 2
 406 248 l 2
 336 265 282 327 282 400 c 0
 282 489 359 558 446 558 c 0
 492 558 537 544 572 512 c 1
 602 552 l 2
 603 553 604 555 609 557 c 0
 611 558 613 558 615 558 c 0
 616 558 l 0
 619 558 623 557 627 555 c 0
 630 553 634 549 634 544 c 2
 634 370 l 2
 634 363 625 355 618 355 c 2
 606 355 l 2
 605 355 602 355 599 357 c 0
 596 359 595 360 593 363 c 0
 592 365 591 367 591 370 c 0
 591 406 570 455 544 482 c 1
 517 508 482 519 446 519 c 0
 395 519 348 479 348 427 c 0xfcc0
 348 384 381 348 423 338 c 2
 529 312 l 1
 605 295 656 224 656 148 c 0
 656 58 584 -19 492 -19 c 0
 440 -19 385 -6 343 28 c 1
 313 -13 l 2
 312 -14 311 -16 306 -18 c 0
 304 -19 302 -19 300 -19 c 0
 299 -19 l 0
 295 -19 292 -18 289 -16 c 0
 286 -14 282 -10 282 -5 c 2
 282 169 l 2xfb40
56 281 m 0
 56 54 243 -132 469 -132 c 0
 695 -132 882 54 882 281 c 0
 882 507 695 693 469 693 c 0
 243 693 56 507 56 281 c 0
469 747 m 0
 726 747 936 538 936 281 c 0
 936 24 726 -186 469 -186 c 0
 212 -186 2 24 2 281 c 0
 2 538 212 747 469 747 c 0
EndSplineSet
Validated: 1
EndChar

StartChar: harpoonleftright
Encoding: 8651 8651 63
Width: 1051
Flags: W
HStem: 125 54<53.4202 884> 333 54<168 997.367>
LayerCount: 2
Fore
SplineSet
53 333 m 1
 53 362 l 1
 56 363 l 2
 127 397 181 458 211 532 c 2
 213 535 l 1
 259 535 l 1
 257 529 l 2
 241 475 210 425 168 387 c 1
 972 387 l 2
 987 387 998 373 998 359 c 0
 998 344 987 333 972 333 c 2
 53 333 l 1
53 152 m 0
 53 167 65 179 81 179 c 2
 998 179 l 1
 998 149 l 1
 995 148 l 2
 924 114 871 53 841 -21 c 2
 839 -24 l 1
 793 -24 l 1
 795 -18 l 2
 811 36 842 86 884 125 c 1
 81 125 l 2
 65 125 53 137 53 152 c 0
EndSplineSet
Validated: 1
EndChar

StartChar: harpoondownright
Encoding: 8642 8642 64
Width: 438
Flags: W
HStem: -204 21G<192 224> 696 20G<211 226.5>
VStem: 192 54<-89 715.581>
LayerCount: 2
Fore
SplineSet
192 689 m 2
 192 704 203 716 219 716 c 0
 234 716 246 704 246 689 c 2
 246 -89 l 1
 285 -47 334 -16 388 -0 c 2
 394 2 l 1
 394 -44 l 1
 391 -46 l 2
 318 -76 257 -130 224 -201 c 2
 222 -204 l 1
 192 -204 l 1
 192 689 l 2
EndSplineSet
Validated: 1
EndChar

StartChar: greaterorless
Encoding: 8823 8823 65
Width: 818
Flags: W
HStem: -283 54<718 733.405> 159 53<83.4522 100> 229 52<718 733.668> 671 52<83.5161 100>
LayerCount: 2
Fore
SplineSet
100 212 m 2
 638 441 l 1
 100 671 l 2
 89 675 83 685 83 696 c 0
 83 712 98 723 111 723 c 0
 114 723 117 723 121 722 c 2
 718 467 l 2
 727 462 734 451 734 441 c 0
 734 430 728 420 718 416 c 2
 121 161 l 2
 117 159 114 159 112 159 c 2
 111 159 l 2
 96 159 83 171 83 186 c 0
 83 196 89 207 100 212 c 2
83 -0 m 0
 83 10 89 20 100 25 c 2
 697 280 l 2
 699 281 701 281 708 281 c 0
 721 281 734 269 734 255 c 0
 734 244 729 233 718 229 c 2
 179 -0 l 1
 718 -229 l 2
 727 -234 734 -245 734 -255 c 0
 734 -270 721 -283 708 -283 c 0
 705 -283 702 -283 699 -281 c 0
 698 -281 699 -280 698 -280 c 0
 698 -280 698 -280 697 -279 c 0
 697 -279 697 -280 696 -279 c 2
 100 -25 l 2
 89 -21 83 -11 83 -0 c 0
EndSplineSet
Validated: 1
EndChar

StartChar: leftarrow
Encoding: 8592 8592 66
Width: 1027
VWidth: 1000
Flags: W
HStem: 224 53<162 974.727>
VStem: 220 41<66.0147 119.362 383.412 433>
LayerCount: 2
Fore
SplineSet
162 224 m 1
 231 168 259 101 261 86 c 0
 261 85 261 85 261 84 c 0
 261 71 250 66 241 66 c 0
 229 66 223 74 220 80 c 0
 206 110 172 187 78 228 c 0
 66 233 61 235 58 238 c 0
 55 240 53 243 52 248 c 0
 52 249 52 250 52 251 c 2
 52 253 l 0
 53 259 56 262 57 263 c 0
 61 267 68 269 74 272 c 0
 148 303 191 359 215 410 c 0
 222 425 225 429 229 432 c 0
 230 433 231 433 232 433 c 0
 235 434 238 435 241 435 c 0
 250 435 261 430 261 417 c 0
 261 416 261 416 261 415 c 0
 259 401 230 332 162 277 c 1
 935 277 l 2
 952 277 975 277 975 250 c 0
 975 224 951 224 935 224 c 2
 162 224 l 1
EndSplineSet
Validated: 1
EndChar

StartChar: xor
Encoding: 8891 8891 67
Width: 643
Flags: W
HStem: -5 54<53.6813 588.321>
VStem: 53 50<725 737.398> 539 50<725 737.486>
LayerCount: 2
Fore
SplineSet
56 701 m 2
 55 702 54 703 53 706 c 0
 53 708 53 711 53 712 c 0
 53 725 65 738 81 738 c 0
 90 738 99 733 103 725 c 2
 322 291 l 1
 539 725 l 2
 543 733 553 738 562 738 c 0
 574 738 589 728 589 712 c 0
 589 706 589 704 588 702 c 1
 587 701 l 2
 345 217 l 2
 340 209 331 203 322 203 c 0
 313 203 301 209 298 217 c 2
 56 701 l 2
53 23 m 0
 53 37 65 47 78 49 c 2
 79 49 l 1
 564 49 l 1
 565 49 l 2
 577 47 589 37 589 23 c 0
 589 8 577 -3 565 -5 c 2
 564 -5 l 1
 79 -5 l 1
 78 -5 l 2
 65 -3 53 8 53 23 c 0
EndSplineSet
Validated: 1
EndChar

StartChar: multiopenleft
Encoding: 8907 8907 68
Width: 818
Flags: W
HStem: 696 20G<74.5 83>
LayerCount: 2
Fore
SplineSet
53 -1 m 0
 53 7 57 13 61 18 c 2
 371 344 l 1
 61 671 l 2
 56 676 53 681 53 689 c 0
 53 705 68 716 81 716 c 0
 85 716 93 715 100 708 c 2
 757 18 l 2
 761 12 764 6 764 -1 c 0
 764 -17 749 -28 736 -28 c 0
 729 -28 721 -23 717 -19 c 2
 409 305 l 1
 100 -19 l 2
 96 -23 88 -28 81 -28 c 0
 68 -28 53 -17 53 -1 c 0
EndSplineSet
Validated: 1
EndChar

StartChar: revsimilar
Encoding: 8765 8765 69
Width: 818
Flags: W
HStem: 126 72<160.38 308.931> 314 72<508.069 656.62>
VStem: 53 41<273.782 382.666> 723 41<129.334 238.218>
LayerCount: 2
Fore
SplineSet
53 346 m 2
 53 354 l 1
 53 355 l 2
 54 364 57 378 66 384 c 0
 66 384 70 386 74 386 c 0
 75 386 79 386 83 383 c 0
 91 376 93 361 94 355 c 2
 94 354 l 1
 94 274 149 198 233 198 c 0
 370 198 435 386 584 386 c 0
 700 386 764 267 764 166 c 2
 764 158 l 1
 764 157 l 2
 763 148 760 134 751 128 c 0
 751 128 747 126 743 126 c 0
 742 126 738 126 734 129 c 0
 726 136 724 151 723 157 c 2
 723 158 l 1
 723 238 668 314 584 314 c 0
 447 314 382 126 233 126 c 0
 117 126 53 245 53 346 c 2
EndSplineSet
Validated: 1
EndChar

StartChar: squareminus
Encoding: 8863 8863 70
Width: 818
Flags: W
HStem: -5 54<107 710> 335 54<107 710> 674 54<107 710>
VStem: 53 54<49 335 389 674> 710 54<49 335 389 674>
LayerCount: 2
Fore
SplineSet
107 389 m 1
 710 389 l 1
 710 674 l 1
 107 674 l 1
 107 389 l 1
107 49 m 1
 710 49 l 1
 710 335 l 1
 107 335 l 1
 107 49 l 1
53 703 m 2
 53 718 69 726 78 728 c 2
 79 728 l 1
 739 728 l 2
 754 728 762 712 764 704 c 2
 764 20 l 2
 764 5 749 -3 740 -5 c 2
 79 -5 l 2
 65 -5 55 7 53 19 c 2
 53 20 l 1
 53 703 l 2
EndSplineSet
Validated: 1
EndChar

StartChar: harpoondownleft
Encoding: 8643 8643 71
Width: 438
Flags: W
HStem: -204 21G<216 247> 696 20G<212 227.5>
VStem: 193 54<-89 715.581>
LayerCount: 2
Fore
SplineSet
44 -44 m 1
 44 2 l 1
 50 -0 l 2
 104 -16 154 -47 193 -89 c 1
 193 689 l 2
 193 704 204 716 220 716 c 0
 235 716 247 704 247 689 c 2
 247 -204 l 1
 217 -204 l 1
 216 -201 l 2
 182 -130 120 -76 47 -46 c 2
 44 -44 l 1
EndSplineSet
Validated: 1
EndChar

StartChar: greaterorsimilar
Encoding: 8819 8819 72
Width: 818
Flags: W
HStem: -257 72<508.069 656.62> -70 72<160.808 308.931> 148 52<83.4551 100> 724 51<83.3098 97>
VStem: 53 41<-253.666 -144.509> 723 41<-110.079 -1.28706>
LayerCount: 2
Fore
SplineSet
100 200 m 2
 644 462 l 1
 97 724 l 2
 87 728 83 739 83 749 c 0
 83 762 95 775 111 775 c 0
 114 775 117 775 121 774 c 2
 721 484 l 2
 729 480 734 471 734 462 c 0
 734 450 727 440 718 436 c 2
 121 151 l 2
 117 148 113 148 111 148 c 0
 96 148 83 160 83 175 c 0
 83 186 91 195 100 200 c 2
53 -226 m 2
 53 -225 l 1
 53 -217 l 2
 53 -115 118 2 233 2 c 0
 382 2 447 -185 584 -185 c 0
 668 -185 723 -110 723 -30 c 2
 723 -29 l 2
 724 -21 726 -7 734 -1 c 0
 735 0 739 2 743 2 c 0
 746 2 748 2 751 -0 c 0
 760 -6 763 -20 764 -29 c 2
 764 -30 l 1
 764 -38 l 2
 764 -139 700 -257 584 -257 c 0
 435 -257 370 -70 233 -70 c 0
 150 -70 94 -145 94 -225 c 2
 94 -226 l 2
 93 -232 91 -247 83 -254 c 0
 82 -255 78 -257 74 -257 c 0
 73 -257 70 -258 66 -255 c 0
 61 -252 55 -244 53 -226 c 2
EndSplineSet
Validated: 1
EndChar

StartChar: squareoriginal
Encoding: 8848 8848 73
Width: 818
Flags: W
HStem: -58 54<62.5371 703> 515 54<62.5371 703>
VStem: 703 54<-4 515>
LayerCount: 2
Fore
SplineSet
62 -32 m 0
 62 -15 74 -6 85 -4 c 2
 86 -4 l 1
 703 -4 l 1
 703 515 l 1
 86 515 l 1
 85 515 l 2
 74 517 62 526 62 543 c 0
 62 559 74 567 85 569 c 2
 86 569 l 1
 731 569 l 2
 746 569 754 555 757 547 c 2
 757 546 l 1
 757 -34 l 2
 757 -48 740 -56 732 -58 c 2
 86 -58 l 1
 85 -58 l 2
 74 -56 62 -48 62 -32 c 0
EndSplineSet
Validated: 1
EndChar

StartChar: trianglesolid
Encoding: 9650 9650 74
Width: 743
Flags: W
LayerCount: 2
Fore
SplineSet
83 -0 m 0
 83 1 83 6 84 9 c 1
 84 9 83 8 84 10 c 2
 346 580 l 2
 351 589 361 597 372 597 c 0
 383 597 392 589 397 580 c 2
 659 10 l 2
 661 6 660 2 660 -0 c 0
 660 -14 649 -25 637 -28 c 2
 107 -28 l 1
 95 -25 83 -15 83 -0 c 0
EndSplineSet
Validated: 1
EndChar

StartChar: subseteq
Encoding: 8838 8838 75
Width: 799
VWidth: 1000
Flags: W
HStem: -159 53<103.295 716.705> 44 53<295.156 716.705> 604 53<290.961 716.705>
VStem: 81 53<250.969 450.125>
LayerCount: 2
Fore
SplineSet
677 -106 m 2
 694 -106 717 -106 717 -133 c 0
 717 -159 691 -159 677 -159 c 2
 142 -159 l 2
 127 -159 103 -159 103 -132 c 0
 103 -106 129 -106 142 -106 c 2
 677 -106 l 2
401 604 m 2
 251 604 134 491 134 350 c 0
 134 213 249 97 401 97 c 2
 677 97 l 2
 694 97 717 97 717 70 c 0
 717 44 691 44 677 44 c 2
 397 44 l 2
 231 44 81 173 81 351 c 0
 81 525 229 657 397 657 c 2
 677 657 l 2
 694 657 717 657 717 630 c 0
 717 604 691 604 677 604 c 2
 401 604 l 2
EndSplineSet
Validated: 1
EndChar

StartChar: rightanglesw
Encoding: 9492 9492 76
Width: 525
Flags: W
HStem: -28 55<107 471.319>
VStem: 53 54<27 390.372>
LayerCount: 2
Fore
SplineSet
53 -4 m 2
 53 366 l 1
 53 367 l 2
 55 380 66 391 81 391 c 0
 95 391 105 380 107 367 c 2
 107 366 l 1
 107 27 l 1
 446 27 l 1
 447 27 l 2
 460 25 472 14 472 -1 c 0
 472 -15 460 -26 447 -28 c 2
 446 -28 l 1
 79 -28 l 2
 63 -28 55 -12 53 -4 c 2
EndSplineSet
Validated: 1
EndChar

StartChar: squaredot
Encoding: 8865 8865 77
Width: 818
Flags: W
HStem: -5 54<107 710> 300 125<362.293 456.8> 674 54<107 710>
VStem: 53 54<49 674> 347 125<314.863 409.37> 710 54<49 674>
LayerCount: 2
Fore
SplineSet
410 425 m 0
 444 425 472 396 472 362 c 0
 472 327 444 300 410 300 c 0
 375 300 347 327 347 362 c 0
 347 396 375 425 410 425 c 0
107 49 m 1
 710 49 l 1
 710 674 l 1
 107 674 l 1
 107 49 l 1
53 703 m 2
 53 718 69 726 78 728 c 2
 79 728 l 1
 739 728 l 2
 754 728 762 712 764 704 c 2
 764 20 l 2
 764 5 749 -3 740 -5 c 2
 79 -5 l 2
 65 -5 55 7 53 19 c 2
 53 20 l 1
 53 703 l 2
EndSplineSet
Validated: 1
EndChar

StartChar: forcesbar
Encoding: 8874 8874 78
Width: 934
Flags: W
HStem: -5 21G<73.5 88 267 282 462.5 477> 329 54<497 881.489> 696 20G<73.5 88 267.5 283 462.5 478>
VStem: 53 54<-4.37244 715.321> 248 54<-4.55307 715.489> 442 55<-4.37244 329 383 715.321>
LayerCount: 2
Fore
SplineSet
442 20 m 1
 442 691 l 1
 442 692 l 2
 444 704 455 716 470 716 c 0
 486 716 495 701 497 692 c 2
 497 691 l 1
 497 383 l 1
 857 383 l 1
 858 383 l 2
 867 381 882 372 882 356 c 0
 882 341 870 331 858 329 c 2
 857 329 l 1
 497 329 l 1
 497 20 l 1
 497 19 l 2
 495 6 484 -5 470 -5 c 0
 455 -5 444 6 442 19 c 2
 442 20 l 1
248 20 m 1
 248 691 l 1
 248 692 l 2
 250 704 260 716 275 716 c 0
 291 716 300 701 302 692 c 2
 302 691 l 1
 302 20 l 1
 302 19 l 2
 300 6 289 -5 275 -5 c 0
 259 -5 250 8 248 19 c 2
 248 20 l 1
53 20 m 1
 53 691 l 1
 53 692 l 2
 55 704 66 716 81 716 c 0
 95 716 105 704 107 692 c 2
 107 691 l 1
 107 20 l 1
 107 19 l 2
 105 6 95 -5 81 -5 c 0
 66 -5 55 6 53 19 c 2
 53 20 l 1
EndSplineSet
Validated: 1
EndChar

StartChar: arrowtailleft
Encoding: 8610 8610 79
Width: 1169
Flags: W
HStem: 228 55<161 963.958>
LayerCount: 2
Fore
SplineSet
56 252 m 2
 47 256 l 1
 56 260 l 2
 127 294 181 355 211 428 c 2
 213 431 l 1
 259 431 l 1
 257 424 l 2
 235 371 202 323 161 283 c 1
 936 283 l 1
 988 318 1029 369 1052 428 c 2
 1054 431 l 1
 1100 431 l 1
 1098 424 l 2
 1075 368 1040 317 994 276 c 1
 994 235 l 1
 1040 194 1075 143 1098 87 c 2
 1100 80 l 1
 1054 80 l 1
 1052 83 l 2
 1028 142 988 193 936 228 c 1
 161 228 l 1
 202 188 235 140 257 87 c 2
 259 80 l 1
 213 80 l 1
 211 83 l 2
 181 156 127 217 56 252 c 2
EndSplineSet
Validated: 1
EndChar

StartChar: multimap
Encoding: 8888 8888 80
Width: 1169
Flags: W
HStem: 82 54<873.631 1009.41> 228 55<53.6813 774.339> 375 54<873.631 1009.41>
VStem: 770 52<187.194 228 283 323.806> 1061 54<187.911 323.413>
CounterMasks: 1 e0
LayerCount: 2
Fore
SplineSet
942 136 m 0
 1006 136 1061 191 1061 256 c 0
 1061 320 1006 375 942 375 c 0
 877 375 822 320 822 256 c 0
 822 191 877 136 942 136 c 0
53 256 m 0
 53 270 65 281 78 283 c 2
 79 283 l 1
 770 283 l 1
 784 366 857 429 942 429 c 0
 1036 429 1115 350 1115 256 c 0
 1115 161 1036 82 942 82 c 0
 857 82 784 145 770 228 c 1
 79 228 l 1
 78 228 l 2
 65 230 53 241 53 256 c 0
EndSplineSet
Validated: 1
EndChar

StartChar: leq
Encoding: 8804 8804 81
Width: 799
VWidth: 1000
Flags: W
HStem: -159 53<81.2954 716.705> 44 53<696 716.677> 603 54<694 716.487>
LayerCount: 2
Fore
SplineSet
121 -159 m 2
 107 -159 81 -159 81 -133 c 0
 81 -106 105 -106 121 -106 c 2
 677 -106 l 2
 693 -106 717 -106 717 -133 c 0
 717 -159 691 -159 677 -159 c 2
 121 -159 l 2
169 351 m 1
 696 97 l 2
 709 91 717 85 717 70 c 0
 717 59 708 44 690 44 c 0
 686 44 683 45 670 52 c 2
 102 325 l 2
 91 330 81 335 81 350 c 0
 81 361 86 369 104 378 c 2
 672 650 l 2
 684 656 686 657 690 657 c 2
 691 657 l 2
 702 657 717 648 717 630 c 0
 717 614 703 608 694 603 c 2
 169 351 l 1
EndSplineSet
Validated: 1
EndChar

StartChar: triangleleft
Encoding: 8883 8883 82
Width: 818
Flags: W
VStem: 680 54<12 499>
LayerCount: 2
Fore
SplineSet
174 256 m 1
 680 12 l 1
 680 499 l 1
 174 256 l 1
84 256 m 0
 84 264 87 275 97 279 c 2
 697 567 l 2
 699 568 701 569 708 569 c 0
 722 569 732 558 734 546 c 2
 734 545 l 1
 734 -34 l 1
 734 -35 l 2
 732 -47 722 -58 708 -58 c 0
 702 -58 700 -58 698 -57 c 0
 698 -57 698 -56 697 -56 c 2
 100 231 l 1
 87 236 84 249 84 256 c 0
EndSplineSet
Validated: 1
EndChar

StartChar: ringinequal
Encoding: 8790 8790 83
Width: 818
Flags: W
HStem: 125 54<53.4482 315 341.13 476.097 503 763.553> 333 54<53.7323 315 342.068 475.615 503 763.27>
VStem: 287 35<204.166 307.468> 495 35<204.166 307.468>
LayerCount: 2
Fore
SplineSet
370 179 m 1
 448 179 l 1
 476 192 495 223 495 256 c 0
 495 288 477 319 448 333 c 1
 370 333 l 1
 341 319 322 288 322 256 c 0
 322 223 341 192 370 179 c 1
53 152 m 0
 53 167 66 176 78 179 c 2
 315 179 l 1
 297 201 287 228 287 256 c 0
 287 284 297 311 315 333 c 1
 79 333 l 1
 78 333 l 2
 66 335 53 344 53 359 c 0
 53 374 66 384 78 387 c 2
 740 387 l 1
 751 384 764 374 764 359 c 0
 764 344 751 335 740 333 c 2
 739 333 l 1
 503 333 l 1
 521 311 530 284 530 256 c 0
 530 228 521 201 503 179 c 1
 740 179 l 1
 751 176 764 167 764 152 c 0
 764 137 752 127 740 125 c 2
 739 125 l 1
 79 125 l 1
 78 125 l 2
 65 127 53 137 53 152 c 0
EndSplineSet
Validated: 1
EndChar

StartChar: sphericalangle
Encoding: 8738 8738 84
Width: 759
Flags: W
HStem: -59 51<689 704.682> 520 50<692 704.692>
VStem: 550 54<111.021 399.947>
LayerCount: 2
Fore
SplineSet
143 256 m 1
 515 77 l 1
 539 133 550 193 550 256 c 0
 550 317 539 378 515 434 c 1
 143 256 l 1
53 256 m 0
 53 265 60 275 68 279 c 2
 669 568 l 2
 672 569 675 570 677 570 c 0
 679 570 l 0
 693 570 705 559 705 544 c 0
 705 538 701 525 692 520 c 2
 563 459 l 1
 590 395 604 325 604 256 c 0
 604 186 590 116 563 52 c 1
 689 -8 l 2
 698 -13 705 -23 705 -33 c 0
 705 -46 693 -59 679 -59 c 0
 679 -59 679 -59 678 -59 c 0
 676 -59 672 -59 670 -58 c 0
 670 -58 670 -57 669 -57 c 2
 71 231 l 2
 62 235 53 243 53 256 c 0
EndSplineSet
Validated: 1
EndChar

StartChar: sim
Encoding: 8764 8764 85
Width: 799
VWidth: 1000
Flags: W
HStem: 123 90<492.023 640.303> 287 90<157.697 305.977>
VStem: 52 44<126.384 225.858> 702 44<274.71 373.616>
LayerCount: 2
Fore
SplineSet
52 162 m 2
 52 175 l 2
 52 274 119 377 228 377 c 0
 368 377 441 213 570 213 c 0
 637 213 702 269 702 339 c 0
 702 346 705 366 715 374 c 0
 715 374 719 377 724 377 c 0
 728 377 730 376 731 375 c 0
 742 370 746 351 746 339 c 2
 746 326 l 2
 746 226 679 123 570 123 c 0
 430 123 357 287 228 287 c 0
 161 287 96 231 96 162 c 0
 96 155 92 134 82 126 c 0
 82 126 79 123 74 123 c 0
 70 123 69 123 68 124 c 0
 54 131 52 158 52 162 c 2
EndSplineSet
Validated: 1
EndChar

StartChar: squaremultiply
Encoding: 8864 8864 86
Width: 818
Flags: W
HStem: -5 54<144 673> 674 54<144 673>
VStem: 53 54<89 634> 710 54<89 634>
LayerCount: 2
Fore
SplineSet
409 400 m 1
 673 674 l 1
 144 674 l 1
 409 400 l 1
710 89 m 1
 710 634 l 1
 446 361 l 1
 710 89 l 1
107 89 m 1
 371 361 l 1
 107 634 l 1
 107 89 l 1
144 49 m 1
 673 49 l 1
 409 323 l 1
 144 49 l 1
53 703 m 2
 53 718 69 726 78 728 c 2
 79 728 l 1
 739 728 l 2
 754 728 762 712 764 704 c 2
 764 20 l 2
 764 5 749 -3 740 -5 c 2
 79 -5 l 2
 65 -5 55 7 53 19 c 2
 53 20 l 1
 53 703 l 2
EndSplineSet
Validated: 1
EndChar

StartChar: dblarrowheadright
Encoding: 8608 8608 87
Width: 1051
Flags: W
HStem: 228 55<53.5469 697 735.95 890>
LayerCount: 2
Fore
SplineSet
53 256 m 0
 53 271 65 283 81 283 c 2
 697 283 l 1
 656 323 623 371 601 424 c 2
 599 431 l 1
 645 431 l 1
 647 428 l 2
 671 369 712 318 764 283 c 1
 890 283 l 1
 849 323 817 371 795 424 c 2
 793 431 l 1
 839 431 l 1
 841 428 l 2
 871 355 924 294 995 260 c 2
 1004 256 l 1
 995 252 l 2
 924 217 871 156 841 83 c 2
 839 80 l 1
 793 80 l 1
 795 87 l 2
 817 140 849 188 890 228 c 1
 764 228 l 1
 712 193 671 142 647 83 c 2
 645 80 l 1
 599 80 l 1
 601 87 l 2
 623 140 656 188 697 228 c 1
 81 228 l 2
 65 228 53 240 53 256 c 0
EndSplineSet
Validated: 1
EndChar

StartChar: arrowparrrightleft
Encoding: 8644 8644 88
Width: 1051
Flags: W
HStem: -6 21G<211 259> 143 55<161 997.367> 484 55<53.5469 890>
LayerCount: 2
Fore
SplineSet
53 512 m 0
 53 527 65 539 81 539 c 2
 890 539 l 1
 849 579 817 627 795 680 c 2
 793 687 l 1
 839 687 l 1
 841 684 l 2
 871 611 924 550 995 516 c 2
 1004 512 l 1
 995 508 l 2
 924 474 871 413 841 339 c 2
 839 336 l 1
 793 336 l 1
 795 343 l 2
 817 397 849 445 890 484 c 1
 81 484 l 2
 65 484 53 497 53 512 c 0
56 166 m 2
 47 170 l 1
 56 174 l 2
 127 208 181 269 211 343 c 2
 213 346 l 1
 259 346 l 1
 257 339 l 2
 235 285 202 237 161 198 c 1
 972 198 l 2
 987 198 998 184 998 170 c 0
 998 156 987 143 972 143 c 2
 161 143 l 1
 202 103 235 55 257 1 c 2
 259 -6 l 1
 213 -6 l 1
 211 -3 l 2
 181 71 127 132 56 166 c 2
EndSplineSet
Validated: 1
EndChar

StartChar: equalsdots
Encoding: 8785 8785 89
Width: 818
Flags: W
HStem: -124 135<358.86 458.594> 125 54<53.4482 763.553> 333 54<53.7323 763.27> 500 135<358.86 458.594>
VStem: 341 135<-106.14 -6.40646 517.406 617.14>
LayerCount: 2
Fore
SplineSet
409 635 m 0
 446 635 476 604 476 567 c 0
 476 530 446 500 409 500 c 0
 372 500 341 530 341 567 c 0
 341 604 372 635 409 635 c 0
53 359 m 0
 53 374 66 384 78 387 c 2
 740 387 l 1
 751 384 764 374 764 359 c 0
 764 344 751 335 740 333 c 2
 739 333 l 1
 79 333 l 1
 78 333 l 2
 66 335 53 344 53 359 c 0
53 152 m 0
 53 167 66 176 78 179 c 2
 740 179 l 1
 751 176 764 167 764 152 c 0
 764 137 752 127 740 125 c 2
 739 125 l 1
 79 125 l 1
 78 125 l 2
 65 127 53 137 53 152 c 0
409 11 m 0
 446 11 476 -19 476 -56 c 0
 476 -93 446 -124 409 -124 c 0
 372 -124 341 -93 341 -56 c 0
 341 -19 372 11 409 11 c 0
EndSplineSet
Validated: 1
EndChar

StartChar: primereverse
Encoding: 8245 8245 90
Width: 285
Flags: W
VStem: 7 252
LayerCount: 2
Fore
SplineSet
12 491 m 2
 9 499 7 507 7 517 c 0
 7 552 40 577 73 577 c 0
 102 577 125 557 132 530 c 2
 259 68 l 1
 259 67 l 2
 259 62 257 55 252 51 c 0
 251 50 250 50 249 49 c 2
 249 48 l 1
 218 38 l 1
 217 38 l 2
 216 38 216 38 215 38 c 0
 214 38 l 0
 208 38 204 40 201 44 c 1
 201 44 202 42 200 45 c 2
 200 46 l 1
 12 491 l 2
201 44 m 1
 201 44 l 1
EndSplineSet
Validated: 1
EndChar

StartChar: triangleleftequal
Encoding: 8884 8884 91
Width: 818
Flags: W
HStem: -163 54<84.4469 733.504> 653 20G<704.5 715>
VStem: 680 54<116 602>
LayerCount: 2
Fore
SplineSet
174 359 m 1
 680 116 l 1
 680 602 l 1
 174 359 l 1
84 359 m 0
 84 364 85 378 97 383 c 2
 697 671 l 2
 699 672 701 673 708 673 c 0
 722 673 732 661 734 649 c 2
 734 648 l 1
 734 70 l 1
 734 69 l 2
 732 57 722 45 708 45 c 0
 702 45 700 45 698 46 c 0
 698 46 698 47 697 47 c 2
 100 334 l 1
 87 339 84 352 84 359 c 0
84 -136 m 0
 84 -120 97 -111 108 -109 c 2
 109 -109 l 1
 710 -109 l 1
 711 -109 l 2
 723 -111 734 -121 734 -136 c 0
 734 -148 725 -160 711 -163 c 2
 710 -163 l 1
 109 -163 l 1
 108 -163 l 2
 95 -161 84 -150 84 -136 c 0
EndSplineSet
Validated: 1
EndChar

StartChar: greaterlessequal
Encoding: 8923 8923 92
Width: 796
Flags: W
HStem: 92 52<666.879 712.484> 227 54<83.6813 712.319>
LayerCount: 2
Fore
SplineSet
100 418 m 2
 611 548 l 1
 100 678 l 2
 89 682 83 692 83 703 c 0
 83 719 98 730 111 730 c 0
 114 730 117 730 121 729 c 2
 695 574 l 2
 700 573 713 563 713 548 c 0
 713 536 705 527 695 523 c 2
 119 367 l 2
 117 366 117 366 115 366 c 0
 114 366 l 0
 113 366 113 366 111 366 c 0
 98 366 83 377 83 393 c 0
 83 404 89 415 100 418 c 2
83 255 m 0
 83 269 95 279 108 281 c 2
 109 281 l 1
 687 281 l 1
 688 281 l 2
 701 279 713 269 713 255 c 0
 713 240 701 229 688 227 c 2
 687 227 l 1
 109 227 l 1
 108 227 l 2
 95 229 83 240 83 255 c 0
83 -38 m 0
 83 -27 89 -17 100 -13 c 2
 677 143 l 2
 679 144 679 144 681 144 c 0
 682 144 l 0
 683 144 683 144 685 144 c 0
 698 144 713 133 713 117 c 0
 713 105 705 95 695 92 c 2
 185 -38 l 1
 695 -167 l 2
 705 -172 713 -182 713 -192 c 0
 713 -206 700 -220 685 -220 c 2
 685 -220 683 -220 681 -220 c 0
 680 -220 678 -220 677 -219 c 0
 676 -219 676 -218 675 -218 c 2
 100 -64 l 2
 89 -61 83 -49 83 -38 c 0
EndSplineSet
EndChar

StartChar: frown
Encoding: 8994 8994 93
Width: 818
Flags: W
HStem: 339 54<297.996 519.82>
VStem: 53 51<119.671 170.046> 713 51<119.418 170.046>
LayerCount: 2
Fore
SplineSet
58 160 m 0
 125 292 257 393 409 393 c 0
 561 393 692 292 759 160 c 0
 761 156 764 151 764 145 c 0
 764 130 751 119 737 119 c 0
 732 119 719 120 713 133 c 0
 655 249 542 339 409 339 c 0
 276 339 162 249 104 133 c 0
 102 129 95 119 81 119 c 0
 67 119 53 130 53 145 c 0
 53 151 56 156 58 160 c 0
EndSplineSet
Validated: 1
EndChar

StartChar: lless
Encoding: 8810 8810 94
Width: 1027
VWidth: 1000
Flags: W
LayerCount: 2
Fore
SplineSet
446 250 m 1
 954 -32 l 2
 965 -37 975 -42 975 -58 c 0
 975 -71 966 -84 949 -84 c 0
 940 -84 931 -79 927 -77 c 2
 385 224 l 2
 376 229 365 236 365 250 c 0
 365 265 372 269 388 278 c 2
 929 578 l 2
 938 583 945 585 949 585 c 0
 961 585 975 575 975 559 c 0
 975 545 969 541 952 532 c 2
 446 250 l 1
133 250 m 1
 641 -32 l 2
 652 -37 662 -42 662 -58 c 0
 662 -71 653 -84 636 -84 c 0
 627 -84 618 -79 614 -77 c 2
 72 224 l 2
 63 229 52 236 52 250 c 0
 52 265 59 269 75 278 c 2
 616 578 l 2
 625 583 632 585 636 585 c 0
 648 585 662 575 662 559 c 0
 662 545 656 541 639 532 c 2
 133 250 l 1
EndSplineSet
Validated: 1
EndChar

StartChar: intercal
Encoding: 8890 8890 95
Width: 584
Flags: W
HStem: 348 98<61.4266 243 341 521.573>
VStem: 243 98<-214.426 348>
LayerCount: 2
Fore
SplineSet
243 348 m 1
 100 348 l 1
 99 348 l 2
 73 351 56 367 53 394 c 2
 53 395 l 1
 53 400 l 1
 53 401 l 2
 57 431 79 443 99 446 c 2
 100 446 l 1
 483 446 l 1
 484 446 l 2
 504 443 526 431 530 401 c 2
 530 400 l 1
 530 395 l 1
 530 394 l 2
 527 367 510 351 484 348 c 2
 483 348 l 1
 341 348 l 1
 341 -177 l 1
 341 -178 l 2
 338 -198 324 -220 295 -223 c 1
 290 -223 l 1
 264 -221 246 -205 243 -178 c 2
 243 -177 l 1
 243 348 l 1
EndSplineSet
Validated: 1
EndChar

StartChar: squaresolid
Encoding: 9632 9632 96
Width: 818
Flags: W
HStem: -5 733<53.4029 763.489>
VStem: 53 711<-4.55444 727.278>
LayerCount: 2
Fore
SplineSet
53 703 m 2
 53 718 69 726 78 728 c 2
 79 728 l 1
 739 728 l 2
 754 728 762 712 764 704 c 2
 764 20 l 2
 764 5 749 -3 740 -5 c 2
 79 -5 l 2
 65 -5 55 7 53 19 c 2
 53 20 l 1
 53 703 l 2
EndSplineSet
Validated: 1
EndChar

StartChar: Leftrightarrow
Encoding: 8660 8660 97
Width: 1027
VWidth: 1000
Flags: W
HStem: 122 53<280 747> 326 53<280 747>
LayerCount: 2
Fore
SplineSet
230 175 m 1
 797 175 l 1
 817 194 850 222 900 251 c 1
 854 276 820 304 797 326 c 1
 230 326 l 1
 210 307 177 279 127 250 c 1
 173 225 207 197 230 175 c 1
668 517 m 2
 668 518 l 2
 668 521 668 523 669 526 c 0
 671 532 675 533 676 533 c 0
 681 535 687 536 691 536 c 0
 692 536 693 536 694 536 c 0
 712 536 715 534 725 512 c 0
 778 393 869 315 981 269 c 0
 987 266 990 264 993 261 c 0
 994 260 994 259 995 258 c 0
 996 256 997 253 997 250 c 0
 997 243 993 236 985 233 c 0
 847 177 773 94 720 -24 c 0
 715 -34 706 -35 697 -35 c 0
 696 -35 695 -35 694 -35 c 0
 685 -35 680 -34 676 -32 c 0
 675 -32 671 -31 669 -25 c 0
 668 -23 668 -20 668 -17 c 0
 668 -16 668 -16 668 -15 c 0
 670 -1 700 63 747 122 c 1
 280 122 l 1
 329 61 358 -4 359 -16 c 2
 359 -17 l 2
 359 -20 359 -22 358 -25 c 0
 356 -31 352 -32 351 -32 c 0
 346 -34 340 -35 336 -35 c 0
 335 -35 334 -35 333 -35 c 0
 315 -35 312 -33 302 -11 c 0
 249 108 158 186 46 232 c 0
 40 235 37 237 34 240 c 0
 33 241 33 242 32 243 c 0
 31 245 30 248 30 251 c 0
 30 258 34 265 42 268 c 0
 180 324 254 407 307 525 c 0
 312 535 321 536 330 536 c 2
 333 536 l 2
 342 536 347 535 351 533 c 0
 352 533 356 532 358 526 c 0
 359 524 359 521 359 518 c 0
 359 517 359 517 359 516 c 0
 357 502 327 438 280 379 c 1
 747 379 l 1
 698 440 669 505 668 517 c 2
EndSplineSet
Validated: 1
EndChar

StartChar: northeastarrow
Encoding: 8599 8599 98
Width: 1027
VWidth: 1000
Flags: W
HStem: 635 40<740.824 874.577>
VStem: 911 40<464.936 598.765>
LayerCount: 2
Fore
SplineSet
104 -210 m 2
 92 -222 89 -224 79 -224 c 0
 64 -224 52 -213 52 -197 c 0
 52 -187 54 -184 66 -172 c 2
 875 637 l 1
 866 636 855 635 842 635 c 2
 841 635 l 2
 787 635 713 653 701 672 c 0
 700 674 699 676 699 679 c 0
 699 688 709 701 721 701 c 2
 722 701 l 0
 723 701 723 701 724 701 c 0
 728 700 735 697 743 694 c 0
 789 675 839 675 842 675 c 0
 845 675 894 675 941 694 c 0
 950 698 951 698 954 699 c 0
 955 699 956 699 957 699 c 0
 967 699 975 691 975 681 c 0
 975 679 975 679 975 678 c 0
 974 675 972 670 970 665 c 0
 952 618 951 569 951 566 c 0
 951 558 951 512 972 461 c 0
 975 453 977 451 977 448 c 0
 977 448 977 448 977 447 c 0
 977 447 977 446 977 445 c 0
 977 436 966 423 955 423 c 0
 952 423 950 423 948 425 c 0
 929 438 911 515 911 565 c 0
 911 578 912 589 913 599 c 1
 104 -210 l 2
EndSplineSet
Validated: 1
EndChar

StartChar: precedesim
Encoding: 8830 8830 99
Width: 818
Flags: W
HStem: -252 72<503.108 656.335> -74 72<161.093 313.892> 430 54<83.6813 322.363>
VStem: 53 41<-248.666 -145.907> 680 54<143.681 240.484 674.222 770.321> 723 41<-108.093 -5.28706>
LayerCount: 2
Fore
SplineSet
83 458 m 0xf8
 83 472 95 482 108 484 c 2
 109 484 l 1
 304 484 655 501 680 747 c 1
 682 759 693 771 708 771 c 0
 724 771 734 756 734 742 c 1
 716 561 558 489 415 458 c 1
 555 427 716 355 734 173 c 1
 734 158 725 143 708 143 c 0
 693 143 682 155 680 168 c 1
 655 413 303 430 109 430 c 2
 108 430 l 2
 95 432 83 443 83 458 c 0xf8
53 -221 m 2
 53 -220 l 1
 53 -212 l 2
 53 -110 121 -2 233 -2 c 0
 379 -2 448 -180 584 -180 c 0
 663 -180 723 -111 723 -34 c 2
 723 -33 l 2xf4
 724 -25 726 -11 734 -5 c 0xf8
 735 -4 739 -2 743 -2 c 0
 746 -2 748 -2 751 -4 c 0
 760 -10 763 -24 764 -33 c 2
 764 -34 l 1
 764 -42 l 2xf4
 764 -143 697 -252 584 -252 c 0
 438 -252 369 -74 233 -74 c 0
 155 -74 94 -143 94 -220 c 2
 94 -221 l 2
 93 -227 91 -242 83 -249 c 0
 82 -250 78 -252 74 -252 c 0
 73 -252 70 -253 66 -250 c 0
 61 -247 55 -239 53 -221 c 2
EndSplineSet
Validated: 1
EndChar

StartChar: equaldotrightleft
Encoding: 8787 8787 100
Width: 818
Flags: W
HStem: -119 125<33.8634 127.8> 125 54<53.4482 763.553> 333 54<53.7323 763.27> 505 125<689.863 784.37>
VStem: 19 124<-103.707 -9.20026> 675 125<519.863 614.37>
LayerCount: 2
Fore
SplineSet
737 630 m 0
 771 630 800 601 800 567 c 0
 800 532 771 505 737 505 c 0
 702 505 675 532 675 567 c 0
 675 601 702 630 737 630 c 0
53 359 m 0
 53 374 66 384 78 387 c 2
 740 387 l 1
 751 384 764 374 764 359 c 0
 764 344 751 335 740 333 c 2
 739 333 l 1
 79 333 l 1
 78 333 l 2
 66 335 53 344 53 359 c 0
53 152 m 0
 53 167 66 176 78 179 c 2
 740 179 l 1
 751 176 764 167 764 152 c 0
 764 137 752 127 740 125 c 2
 739 125 l 1
 79 125 l 1
 78 125 l 2
 65 127 53 137 53 152 c 0
81 6 m 0
 115 6 143 -22 143 -56 c 0
 143 -91 115 -119 81 -119 c 0
 46 -119 19 -91 19 -56 c 0
 19 -22 46 6 81 6 c 0
EndSplineSet
Validated: 1
EndChar

StartChar: between
Encoding: 8812 8812 101
Width: 525
Flags: W
VStem: 72 63<106.302 405.698> 390 64<106.302 405.698>
LayerCount: 2
Fore
SplineSet
263 -95 m 1
 345 2 390 128 390 256 c 0
 390 384 345 510 263 607 c 1
 180 510 135 384 135 256 c 0
 135 128 180 2 263 -95 c 1
109 -221 m 0
 152 -197 193 -167 231 -131 c 1
 132 -27 72 112 72 256 c 0
 72 400 132 539 231 643 c 1
 194 678 153 708 109 733 c 0
 102 737 98 744 98 752 c 0
 98 763 108 773 121 773 c 2
 122 773 l 2
 152 768 238 698 263 676 c 1
 288 698 381 773 406 773 c 0
 418 773 427 764 427 752 c 0
 427 744 423 737 416 733 c 0
 373 709 333 679 296 643 c 1
 394 539 454 400 454 256 c 0
 454 112 394 -27 296 -131 c 1
 332 -167 372 -196 416 -221 c 0
 423 -225 427 -232 427 -240 c 0
 427 -251 417 -261 404 -261 c 2
 403 -261 l 2
 373 -256 288 -187 263 -164 c 1
 243 -181 146 -261 120 -261 c 0
 108 -261 98 -252 98 -240 c 0
 98 -232 102 -225 109 -221 c 0
EndSplineSet
Validated: 1
EndChar

StartChar: supersetdbl
Encoding: 8913 8913 102
Width: 818
Flags: W
HStem: -58 54<83.6813 512.898> 106 54<83.4163 480.82> 351 54<83.6813 412 413 480.82> 515 54<83.6813 512.898>
VStem: 516 54<196.171 315.129> 680 54<152.999 358.465>
LayerCount: 2
Fore
SplineSet
83 133 m 0
 83 147 95 158 108 160 c 2
 109 160 l 1
 411 160 l 2
 417 159 415 159 416 159 c 2
 421 159 l 2
 472 159 516 204 516 256 c 0
 516 307 472 352 421 352 c 2
 416 352 l 1
 415 352 l 0
 415 352 414 352 413 352 c 2
 412 351 l 1
 109 351 l 1
 108 351 l 2
 95 353 83 364 83 379 c 0
 83 393 95 403 108 405 c 2
 109 405 l 1
 406 405 l 2
 407 405 408 406 409 406 c 2
 410 406 l 0
 411 406 412 406 414 406 c 0
 416 406 418 406 420 406 c 0
 503 406 570 338 570 256 c 0
 570 173 503 105 420 105 c 0
 418 105 416 105 414 105 c 0
 411 105 408 106 407 106 c 2
 109 106 l 1
 108 106 l 2
 95 108 83 118 83 133 c 0
83 -32 m 0
 83 -17 95 -6 108 -4 c 2
 109 -4 l 1
 407 -4 l 2
 553 -4 680 106 680 256 c 0
 680 405 553 515 407 515 c 2
 109 515 l 1
 108 515 l 2
 95 517 83 528 83 543 c 0
 83 557 95 567 108 569 c 2
 109 569 l 1
 411 569 l 2
 585 569 734 432 734 256 c 0
 734 79 585 -58 411 -58 c 2
 109 -58 l 1
 108 -58 l 2
 95 -56 83 -46 83 -32 c 0
EndSplineSet
Validated: 1
EndChar

StartChar: rightanglenw
Encoding: 9484 9484 103
Width: 525
Flags: W
HStem: 662 54<107 471.584>
VStem: 53 54<297.732 662>
LayerCount: 2
Fore
SplineSet
53 691 m 2
 53 706 69 714 78 716 c 2
 79 716 l 1
 446 716 l 1
 447 716 l 2
 460 714 472 703 472 689 c 0
 472 674 460 664 447 662 c 2
 446 662 l 1
 107 662 l 1
 107 323 l 1
 107 322 l 2
 105 309 95 297 81 297 c 0
 66 297 56 310 53 322 c 2
 53 691 l 2
EndSplineSet
Validated: 1
EndChar

StartChar: circleasterisk
Encoding: 8859 8859 104
Width: 818
Flags: W
HStem: -100 43<302.252 515.64> 124 67<212.784 227 590 604.216> 320 67<212.784 227 590 604.216> 568 43<302.252 515.64>
VStem: 52 43<149.16 362.347> 373 71<32.6393 143.824 367.176 478.187> 722 43<149.16 362.347>
CounterMasks: 1 0e
LayerCount: 2
Fore
SplineSet
209 162 m 0
 209 174 216 185 227 191 c 2
 365 256 l 1
 227 320 l 2
 216 326 209 337 209 349 c 0
 209 371 229 387 245 387 c 0
 249 387 256 386 263 381 c 2
 387 293 l 1
 373 445 l 1
 373 447 l 2
 373 467 391 481 409 481 c 0
 427 481 444 467 444 447 c 2
 444 445 l 1
 430 293 l 1
 554 381 l 2
 561 386 568 387 572 387 c 0
 588 387 608 371 608 349 c 0
 608 337 601 326 590 320 c 2
 452 256 l 1
 590 191 l 2
 601 185 608 174 608 162 c 0
 608 140 588 124 572 124 c 0
 568 124 561 125 554 130 c 2
 430 218 l 1
 444 66 l 1
 444 63 l 2
 444 43 427 30 409 30 c 0
 391 30 373 43 373 63 c 2
 373 66 l 1
 387 218 l 1
 263 130 l 2
 256 125 249 124 245 124 c 0
 229 124 209 140 209 162 c 0
95 256 m 0
 95 83 237 -57 409 -57 c 0
 581 -57 722 83 722 256 c 0
 722 428 581 568 409 568 c 0
 237 568 95 428 95 256 c 0
409 611 m 0
 606 611 765 452 765 256 c 0
 765 59 606 -100 409 -100 c 0
 212 -100 52 59 52 256 c 0
 52 452 212 611 409 611 c 0
EndSplineSet
Validated: 1
EndChar

StartChar: dblarrowup
Encoding: 8648 8648 105
Width: 876
Flags: W
HStem: -204 21G<256 268.5 607 619> 506 43<751.872 804.857> 696 20G<259.5 263.5 612 617>
VStem: 237 53<-203.421 608> 587 54<-203.287 608>
LayerCount: 2
Fore
SplineSet
237 608 m 1
 198 563 148 528 94 506 c 2
 93 506 l 1
 88 506 l 2
 82 506 77 509 73 513 c 0
 70 517 70 520 70 522 c 2
 70 534 l 2
 70 535 70 537 72 541 c 0
 74 545 77 548 81 549 c 0
 155 576 215 632 246 704 c 0
 249 712 256 716 263 716 c 0
 264 716 266 716 269 715 c 0
 274 713 277 709 279 705 c 2
 279 704 l 1
 280 704 l 2
 310 634 367 579 438 551 c 1
 509 579 566 634 597 704 c 0
 599 709 602 713 607 715 c 0
 609 716 611 716 613 716 c 0
 621 716 628 711 631 704 c 0
 662 632 721 577 795 549 c 0
 796 549 802 547 805 541 c 0
 806 539 807 536 807 534 c 2
 807 522 l 2
 807 521 807 518 805 515 c 0
 802 510 796 506 790 506 c 2
 784 506 l 1
 783 506 l 2
 728 528 679 563 641 608 c 1
 641 -179 l 2
 641 -194 625 -204 613 -204 c 0
 601 -204 587 -194 587 -179 c 2
 587 608 l 1
 549 563 499 528 444 506 c 2
 443 506 l 1
 433 506 l 1
 432 506 l 2
 378 528 328 563 290 608 c 1
 290 -179 l 2
 290 -194 274 -204 263 -204 c 0
 249 -204 237 -193 237 -179 c 2
 237 608 l 1
EndSplineSet
Validated: 1
EndChar

StartChar: squiggleleftright
Encoding: 8621 8621 106
Width: 1461
Flags: W
HStem: 228 55<161 289 1171 1299>
LayerCount: 2
Fore
SplineSet
56 252 m 2
 47 256 l 1
 56 260 l 2
 127 294 181 355 211 428 c 2
 213 431 l 1
 259 431 l 1
 257 424 l 2
 235 371 202 323 161 283 c 1
 289 283 l 1
 367 360 l 2
 368 361 375 367 386 367 c 0
 390 367 398 366 405 360 c 2
 558 209 l 1
 711 360 l 2
 718 366 726 367 730 367 c 0
 734 367 742 366 749 360 c 2
 902 209 l 1
 1055 360 l 2
 1062 366 1070 367 1074 367 c 0
 1081 367 1089 365 1094 360 c 2
 1171 283 l 1
 1299 283 l 1
 1258 323 1225 371 1203 424 c 2
 1201 431 l 1
 1247 431 l 1
 1249 428 l 2
 1279 355 1333 294 1404 260 c 2
 1413 256 l 1
 1404 252 l 2
 1333 217 1279 156 1249 83 c 2
 1247 80 l 1
 1201 80 l 1
 1203 87 l 2
 1225 140 1258 188 1299 228 c 1
 1159 228 l 2
 1150 228 1143 235 1139 240 c 2
 1074 302 l 1
 922 151 l 2
 917 146 910 143 902 143 c 0
 895 143 887 147 883 151 c 2
 730 302 l 1
 577 151 l 2
 573 147 565 143 558 143 c 0
 550 143 544 146 539 151 c 2
 386 302 l 1
 321 240 l 1
 316 234 309 228 302 228 c 2
 161 228 l 1
 202 188 235 140 257 87 c 2
 259 80 l 1
 213 80 l 1
 211 83 l 2
 181 156 127 217 56 252 c 2
EndSplineSet
Validated: 1
EndChar

StartChar: followsorcurly
Encoding: 8829 8829 107
Width: 818
Flags: W
HStem: -5 21G<102.5 118> 118 54<525.962 733.516> 282 54<495.931 733.504>
VStem: 83 54<-4.32617 91.2571 526.483 621.371> 200 54<-168.483 -75.1823>
LayerCount: 2
Fore
SplineSet
83 25 m 1
 101 206 261 278 403 309 c 1
 260 340 101 412 83 594 c 1
 83 608 94 622 111 622 c 0
 125 622 135 611 137 599 c 1
 162 354 515 336 710 336 c 2
 711 336 l 2
 725 333 734 321 734 309 c 0
 734 294 723 284 711 282 c 2
 710 282 l 1
 515 282 163 263 137 19 c 0
 136 6 125 -5 111 -5 c 0
 94 -5 83 10 83 25 c 1
200 -140 m 2
 200 -139 l 1
 225 104 507 172 706 172 c 0
 720 172 734 161 734 145 c 0
 734 130 723 120 711 118 c 2
 710 118 l 1
 535 118 276 63 254 -145 c 0
 253 -154 243 -169 227 -169 c 0
 210 -169 200 -154 200 -140 c 2
EndSplineSet
Validated: 1
EndChar

StartChar: arrowtripleright
Encoding: 8667 8667 108
Width: 1051
Flags: W
HStem: 21 54<53.4163 657> 228 55<53.5469 850> 436 54<53.6813 657>
CounterMasks: 1 e0
LayerCount: 2
Fore
SplineSet
53 48 m 0
 53 62 65 73 78 75 c 2
 79 75 l 1
 693 75 l 1
 737 133 790 185 850 228 c 1
 81 228 l 2
 65 228 53 240 53 256 c 0
 53 271 65 283 81 283 c 2
 850 283 l 1
 790 326 737 378 693 436 c 1
 79 436 l 1
 78 436 l 2
 65 438 53 449 53 464 c 0
 53 478 65 488 78 490 c 2
 79 490 l 1
 657 490 l 1
 630 534 606 582 589 632 c 2
 587 639 l 1
 651 639 l 1
 652 636 l 2
 709 476 824 341 974 260 c 2
 983 256 l 1
 974 252 l 2
 824 171 709 35 652 -125 c 2
 651 -128 l 1
 587 -128 l 1
 589 -121 l 2
 606 -71 630 -23 657 21 c 1
 79 21 l 1
 78 21 l 2
 65 23 53 33 53 48 c 0
EndSplineSet
Validated: 1
EndChar

StartChar: intersectiondbl
Encoding: 8915 8915 109
Width: 701
Flags: W
HStem: 402 54<292.551 407.449> 565 54<229.032 471.408>
VStem: 53 54<-27.3215 466.787> 217 54<-27.3215 381.089> 429 54<-27.3215 381.089> 593 54<-27.3215 466.787>
LayerCount: 2
Fore
SplineSet
217 338 m 2
 217 410 286 456 350 456 c 0
 414 456 483 410 483 338 c 2
 483 -3 l 1
 483 -4 l 2
 481 -16 471 -28 457 -28 c 0
 442 -28 431 -16 429 -4 c 2
 429 -3 l 1
 429 334 l 2
 429 375 390 402 350 402 c 0
 310 402 271 375 271 334 c 2
 271 -3 l 1
 271 -4 l 2
 269 -16 259 -28 245 -28 c 0
 230 -28 219 -16 217 -4 c 2
 217 -3 l 1
 217 338 l 2
53 397 m 2
 53 551 222 619 350 619 c 0
 479 619 647 551 647 397 c 2
 647 -3 l 1
 647 -4 l 2
 645 -16 635 -28 621 -28 c 0
 606 -28 595 -16 593 -4 c 2
 593 -3 l 1
 593 393 l 2
 593 514 455 565 350 565 c 0
 246 565 107 514 107 393 c 2
 107 -3 l 1
 107 -4 l 2
 105 -16 95 -28 81 -28 c 0
 66 -28 55 -16 53 -4 c 2
 53 -3 l 1
 53 397 l 2
EndSplineSet
Validated: 1
EndChar

StartChar: circleR
Encoding: 174 174 110
Width: 984
Flags: W
HStem: -186 54<362.413 621.494> -19 39<676.758 738.615> -5 42<216 287.196 376.801 447> 250 40<375 524.162> 502 42<216 287.196 375.451 550.724> 693 54<362.413 621.494>
VStem: 25 54<151.22 410.494> 289 86<40.7324 250 290 497.979> 588 102<331.904 460.187> 749 42<27.6574 90.9502> 904 54<151.22 410.494>
LayerCount: 2
Fore
SplineSet
375 290 m 1x9fe0
 457 290 l 2
 540 290 588 311 588 396 c 0
 588 481 538 502 457 502 c 2
 406 502 l 2
 379 502 375 497 375 469 c 2
 375 290 l 1x9fe0
216 -5 m 1xbfe0
 216 37 l 1
 221 37 l 2xbfe0
 264 37 289 40 289 70 c 2
 289 469 l 2
 289 499 264 502 221 502 c 2
 216 502 l 1
 216 544 l 1
 469 544 l 2
 550 544 690 501 690 396 c 0
 690 328 627 285 571 266 c 1
 608 247 637 215 645 172 c 2
 661 92 l 1
 666 59 674 20 708 20 c 0
 735 20 749 52 749 78 c 1
 750 89 758 94 765 95 c 0
 766 95 l 2
 775 95 l 2
 776 95 781 95 785 91 c 0
 786 90 791 85 791 76 c 0
 791 30 759 -19 708 -19 c 0xdfe0
 635 -19 557 11 557 97 c 2
 557 166 l 2
 557 214 515 250 468 250 c 2
 375 250 l 1
 375 70 l 2
 375 40 400 37 442 37 c 2
 447 37 l 1
 447 -5 l 1
 442 -5 l 2
 405 -5 369 -2 332 -2 c 0
 295 -2 258 -5 221 -5 c 2
 216 -5 l 1xbfe0
79 281 m 0
 79 54 266 -132 492 -132 c 0
 718 -132 904 54 904 281 c 0
 904 507 718 693 492 693 c 0
 266 693 79 507 79 281 c 0
492 747 m 0
 749 747 958 538 958 281 c 0
 958 24 749 -186 492 -186 c 0
 235 -186 25 24 25 281 c 0
 25 538 235 747 492 747 c 0
EndSplineSet
Validated: 1
EndChar

StartChar: fork
Encoding: 8916 8916 111
Width: 701
Flags: W
HStem: 492 55<211.369 324 378 489.519>
VStem: 53 54<-27.3215 410.297> 324 54<-27.4891 492 547 760.584> 593 54<-27.3215 410.297>
LayerCount: 2
Fore
SplineSet
53 348 m 2
 53 484 211 545 324 547 c 1
 324 735 l 1
 324 736 l 2
 326 749 336 761 351 761 c 0
 365 761 376 749 378 736 c 2
 378 735 l 1
 378 547 l 1
 490 545 647 484 647 348 c 2
 647 -3 l 1
 647 -4 l 2
 645 -16 635 -28 621 -28 c 0
 606 -28 595 -16 593 -4 c 2
 593 -3 l 1
 593 344 l 2
 593 447 467 490 378 492 c 1
 378 -3 l 1
 378 -4 l 2
 376 -13 367 -28 351 -28 c 0
 336 -28 326 -16 324 -4 c 2
 324 -3 l 1
 324 492 l 1
 234 490 107 447 107 344 c 2
 107 -3 l 1
 107 -4 l 2
 105 -16 95 -28 81 -28 c 0
 66 -28 55 -16 53 -4 c 2
 53 -3 l 1
 53 348 l 2
EndSplineSet
Validated: 1
EndChar

StartChar: doublebarwedge
Encoding: 8966 8966 112
Width: 643
Flags: W
HStem: 581 54<53.4163 588.489> 789 54<53.4163 588.489>
VStem: 53 51<-108.427 -95> 537 52<-108.557 -92>
LayerCount: 2
Fore
SplineSet
53 816 m 0
 53 830 65 841 78 843 c 2
 79 843 l 1
 564 843 l 1
 565 843 l 2
 574 841 589 832 589 816 c 0
 589 801 577 791 565 789 c 2
 564 789 l 1
 79 789 l 1
 78 789 l 2
 65 791 53 801 53 816 c 0
53 608 m 0
 53 622 65 633 78 635 c 2
 79 635 l 1
 564 635 l 1
 565 635 l 2
 574 633 589 624 589 608 c 0
 589 593 577 583 565 581 c 2
 564 581 l 1
 79 581 l 1
 78 581 l 2
 65 583 53 593 53 608 c 0
57 -69 m 2
 299 413 l 2
 303 421 313 426 322 426 c 0
 333 426 341 418 346 410 c 2
 588 -72 l 1
 589 -76 589 -80 589 -82 c 0
 589 -97 576 -109 562 -109 c 0
 547 -109 540 -99 537 -92 c 2
 322 339 l 1
 104 -95 l 2
 99 -107 86 -109 81 -109 c 0
 66 -109 53 -97 53 -82 c 0
 53 -77 55 -73 57 -69 c 2
EndSplineSet
Validated: 1
EndChar

StartChar: curlyprecede
Encoding: 8926 8926 113
Width: 818
Flags: W
HStem: -5 21G<700.5 716.5> 282 54<83.4163 322.363> 446 54<83.4548 292.217>
VStem: 563 54<684.054 785.548> 680 54<-4.37244 91.2571 526.483 621.371>
LayerCount: 2
Fore
SplineSet
108 500 m 2
 109 500 l 1
 283 500 542 555 563 763 c 1
 566 777 578 786 590 786 c 0
 606 786 617 773 617 758 c 2
 617 757 l 1
 592 514 311 446 113 446 c 0
 96 446 83 457 83 473 c 0
 83 487 95 498 108 500 c 2
83 309 m 0
 83 323 95 334 108 336 c 2
 109 336 l 1
 303 336 655 354 680 599 c 1
 682 611 693 622 708 622 c 0
 724 622 734 608 734 594 c 1
 716 412 557 340 414 309 c 1
 556 278 716 206 734 25 c 1
 734 10 725 -5 708 -5 c 0
 693 -5 682 6 680 19 c 1
 655 263 303 282 109 282 c 2
 108 282 l 2
 95 284 83 294 83 309 c 0
EndSplineSet
Validated: 1
EndChar

StartChar: curlyfollow
Encoding: 8927 8927 114
Width: 818
Flags: W
HStem: -5 21G<102.5 118> 282 54<495.931 733.504> 446 54<525.962 733.548>
VStem: 83 54<-4.32617 91.2571 526.483 621.371> 200 54<684.054 785.548>
LayerCount: 2
Fore
SplineSet
227 786 m 0
 242 786 252 775 254 763 c 1
 275 555 535 500 710 500 c 2
 711 500 l 2
 725 497 734 485 734 473 c 0
 734 457 721 446 706 446 c 0
 507 446 225 514 200 757 c 1
 200 758 l 1
 200 773 211 786 227 786 c 0
83 25 m 1
 101 206 261 278 403 309 c 1
 260 340 101 412 83 594 c 1
 83 608 94 622 111 622 c 0
 125 622 135 611 137 599 c 1
 162 354 515 336 710 336 c 2
 711 336 l 2
 725 333 734 321 734 309 c 0
 734 294 723 284 711 282 c 2
 710 282 l 1
 515 282 163 263 137 19 c 0
 136 6 125 -5 111 -5 c 0
 94 -5 83 10 83 25 c 1
EndSplineSet
Validated: 1
EndChar

StartChar: precedecurly
Encoding: 8828 8828 115
Width: 818
Flags: W
HStem: -5 21G<700.5 716.5> 118 54<83.5187 292.217> 282 54<83.4163 322.363>
VStem: 563 54<-168.585 -66.0544> 680 54<-4.37244 91.2571 526.483 621.371>
LayerCount: 2
Fore
SplineSet
83 309 m 0
 83 323 95 334 108 336 c 2
 109 336 l 1
 303 336 655 354 680 599 c 1
 682 611 693 622 708 622 c 0
 724 622 734 608 734 594 c 1
 716 412 557 340 414 309 c 1
 556 278 716 206 734 25 c 1
 734 10 725 -5 708 -5 c 0
 693 -5 682 6 680 19 c 1
 655 263 303 282 109 282 c 2
 108 282 l 2
 95 284 83 294 83 309 c 0
83 145 m 0
 83 161 98 172 113 172 c 0
 311 172 592 104 617 -139 c 1
 617 -140 l 1
 617 -154 607 -169 590 -169 c 0
 575 -169 565 -157 563 -145 c 1
 542 63 283 118 109 118 c 2
 108 118 l 2
 95 120 83 130 83 145 c 0
EndSplineSet
Validated: 1
EndChar

StartChar: eqless
Encoding: 8924 8924 116
Width: 799
VWidth: 1000
Flags: W
HStem: -159 54<694 716.487> 401 53<696 716.677> 604 53<81.2954 716.705>
LayerCount: 2
Fore
SplineSet
717 631 m 0
 717 604 693 604 677 604 c 2
 121 604 l 2
 105 604 81 604 81 631 c 0
 81 657 107 657 121 657 c 2
 677 657 l 2
 691 657 717 657 717 631 c 0
717 -132 m 0
 717 -150 702 -159 691 -159 c 2
 690 -159 l 2
 686 -159 684 -158 672 -152 c 2
 104 120 l 2
 86 129 81 137 81 148 c 0
 81 163 91 168 102 173 c 2
 670 446 l 2
 683 453 686 454 690 454 c 0
 708 454 717 439 717 428 c 0
 717 413 709 407 696 401 c 2
 169 147 l 1
 694 -105 l 2
 703 -110 717 -116 717 -132 c 0
EndSplineSet
Validated: 1
EndChar

StartChar: staroperator
Encoding: 8902 8902 117
Width: 625
VWidth: 1000
Flags: W
HStem: 337 22<566 570.931> 518 20G<309.5 313.5>
LayerCount: 2
Fore
SplineSet
148 58 m 2
 148 60 l 1
 204 231 l 1
 59 337 l 2
 57 338 57 339 57 339 c 0
 55 341 54 344 54 347 c 0
 54 353 59 359 66 359 c 2
 245 359 l 1
 301 529 l 2
 302 533 306 538 313 538 c 0
 314 538 320 537 323 531 c 2
 324 531 l 1
 380 359 l 1
 559 359 l 2
 565 359 571 354 571 347 c 0
 571 343 570 342 568 339 c 0
 567 338 567 337 566 337 c 2
 421 231 l 1
 477 60 l 1
 477 58 l 2
 477 52 473 45 465 45 c 0
 462 45 462 45 461 45 c 0
 460 45 459 46 458 47 c 2
 313 152 l 1
 168 48 l 1
 167 48 l 2
 164 46 164 45 163 45 c 0
 162 45 161 45 160 45 c 0
 153 45 148 50 148 58 c 2
EndSplineSet
Validated: 1
EndChar

StartChar: uni2720
Encoding: 10016 10016 118
Width: 876
Flags: W
HStem: -28 30<204.188 232.782 643.218 675.953> 339 33<313.094 421 455 562.922> 709 29<201.094 232.782 643.218 675.899>
VStem: 55 30<127.094 149.958 561.042 586.812> 421 34<224.019 339 372 486.981> 792 29<124.187 149.958 561.042 592>
LayerCount: 2
Fore
SplineSet
55 133 m 2
 55 578 l 2
 55 579 55 583 58 587 c 0
 61 591 67 593 71 594 c 2
 72 594 l 1
 72 594 74 594 76 593 c 0
 80 592 84 589 85 588 c 2
 85 587 l 1
 85 586 l 2
 156 449 265 374 421 372 c 1
 419 529 344 637 208 709 c 2
 207 709 l 1
 206 709 l 2
 202 713 201 716 200 721 c 2
 200 722 l 2
 200 723 200 724 201 727 c 0
 203 730 206 735 211 737 c 0
 213 738 214 738 216 738 c 2
 659 738 l 2
 662 738 674 737 676 723 c 2
 676 722 l 1
 676 722 676 720 675 718 c 0
 674 714 671 710 670 709 c 2
 669 709 l 1
 668 709 l 2
 532 637 457 529 455 372 c 1
 610 374 720 449 792 586 c 1
 792 587 l 1
 792 588 l 2
 792 588 794 590 796 591 c 0
 797 592 797 592 798 592 c 0
 800 593 802 594 804 594 c 2
 805 594 l 1
 806 594 807 594 810 593 c 0
 813 591 818 588 820 583 c 0
 821 581 821 580 821 578 c 2
 821 133 l 2
 821 132 821 128 818 124 c 0
 815 120 810 118 806 117 c 2
 805 117 l 1
 804 117 799 117 794 122 c 0
 793 123 792 124 792 125 c 0
 720 262 611 337 455 339 c 1
 457 182 532 74 668 2 c 2
 669 2 l 1
 670 2 l 2
 674 -2 675 -5 676 -10 c 2
 676 -11 l 2
 676 -14 676 -13 675 -15 c 0
 673 -21 667 -25 663 -27 c 0
 662 -27 660 -28 659 -28 c 2
 216 -28 l 2
 213 -28 208 -28 204 -22 c 0
 203 -20 201 -17 200 -12 c 2
 200 -11 l 1
 200 -11 200 -9 201 -7 c 0
 202 -3 205 1 206 2 c 2
 207 2 l 1
 208 2 l 2
 344 74 419 182 421 339 c 1
 266 337 156 262 85 125 c 2
 85 124 l 1
 84 123 l 2
 79 119 78 118 73 117 c 2
 72 117 l 2
 69 117 62 119 57 127 c 0
 56 129 55 131 55 133 c 2
EndSplineSet
Validated: 1
EndChar

StartChar: lessdot
Encoding: 8918 8918 119
Width: 799
VWidth: 1000
Flags: W
HStem: -57 49<704 716.567> 178 143<493.159 596.318> 505 51<701 716.668>
VStem: 473 143<199 300.125>
LayerCount: 2
Fore
SplineSet
545 321 m 0
 584 321 616 289 616 250 c 0
 616 210 584 178 545 178 c 0
 506 178 473 210 473 250 c 0
 473 289 506 321 545 321 c 0
81 250 m 0
 81 261 89 269 98 274 c 2
 681 554 l 2
 684 555 687 556 689 556 c 0
 691 556 l 0
 704 556 717 544 717 530 c 0
 717 518 710 509 701 505 c 2
 169 250 l 1
 704 -8 l 2
 712 -12 717 -21 717 -30 c 0
 717 -45 705 -57 691 -57 c 0
 690 -57 l 0
 689 -57 687 -57 686 -57 c 0
 684 -57 682 -56 680 -54 c 2
 95 226 l 2
 86 230 81 240 81 250 c 0
EndSplineSet
Validated: 1
EndChar

StartChar: greaterdot
Encoding: 8919 8919 120
Width: 799
VWidth: 1000
Flags: W
HStem: -58 51<81.4551 98> 178 143<202.159 305.318> 505 50<81.309 95>
VStem: 182 143<199 300.125>
LayerCount: 2
Fore
SplineSet
254 321 m 0
 293 321 325 289 325 250 c 0
 325 210 293 178 254 178 c 0
 215 178 182 210 182 250 c 0
 182 289 215 321 254 321 c 0
98 -7 m 2
 629 249 l 1
 95 505 l 2
 86 509 81 519 81 529 c 0
 81 543 93 555 108 555 c 0
 111 555 114 555 118 554 c 2
 704 271 l 2
 712 267 717 258 717 249 c 0
 717 237 710 228 701 224 c 2
 118 -55 l 2
 114 -58 110 -58 108 -58 c 0
 93 -58 81 -46 81 -31 c 0
 81 -20 89 -12 98 -7 c 2
EndSplineSet
Validated: 1
EndChar

StartChar: dividemultiply
Encoding: 8903 8903 121
Width: 799
VWidth: 1000
Flags: W
HStem: -58 166<343.979 454.474> -5 21G<165.5 176 620.5 633> 223 53<52.4469 335 463 745.618> 391 166<343.979 454.474>
VStem: 317 165<-30.4741 80.4741 418.526 529.474>
LayerCount: 2
Fore
SplineSet
399 557 m 0x38
 444 557 482 519 482 474 c 0
 482 429 444 391 399 391 c 0
 354 391 317 429 317 474 c 0
 317 519 354 557 399 557 c 0x38
153 41 m 2
 335 223 l 1
 77 223 l 1
 76 223 l 2
 65 225 52 234 52 250 c 0
 52 264 63 274 76 276 c 2
 77 276 l 1
 335 276 l 1
 154 459 l 2
 151 461 146 467 146 478 c 0
 146 492 158 504 173 504 c 0
 177 504 185 504 192 497 c 2
 399 287 l 1
 606 497 l 2
 611 502 619 504 626 504 c 0
 639 504 652 492 652 478 c 0
 652 467 647 461 644 459 c 2
 463 276 l 1
 722 276 l 1
 723 276 l 2
 735 274 746 264 746 250 c 0
 746 235 735 225 723 223 c 2
 722 223 l 1
 463 223 l 1
 645 41 l 2
 651 34 652 26 652 22 c 0
 652 7 640 -5 626 -5 c 0
 615 -5 609 0 607 3 c 2
 399 212 l 1
 192 4 l 2
 187 -2 179 -5 173 -5 c 0x78
 158 -5 146 7 146 22 c 0
 146 26 147 34 153 41 c 2
399 108 m 0xb8
 444 108 482 70 482 25 c 0
 482 -20 444 -58 399 -58 c 0
 354 -58 317 -20 317 25 c 0
 317 70 354 108 399 108 c 0xb8
EndSplineSet
Validated: 1
EndChar

StartChar: lessdbleqlgreater
Encoding: 10891 10891 122
Width: 818
Flags: W
HStem: 177 54<83.6813 733.375> 324 54<83.4163 733.504> 804 52<690.813 733.478>
LayerCount: 2
Fore
SplineSet
83 664 m 0
 83 675 89 687 100 690 c 2
 698 855 l 2
 701 856 704 856 706 856 c 2
 708 856 l 2
 724 856 734 841 734 829 c 0
 734 818 728 808 718 804 c 2
 187 664 l 1
 718 525 l 1
 718 524 l 2
 728 519 734 510 734 500 c 0
 734 484 721 472 708 472 c 0
 704 472 699 473 697 474 c 2
 100 639 l 2
 89 643 83 653 83 664 c 0
83 351 m 0
 83 366 95 376 108 378 c 2
 109 378 l 1
 710 378 l 1
 711 378 l 2
 723 376 734 366 734 351 c 0
 734 339 725 327 711 324 c 2
 710 324 l 1
 109 324 l 1
 108 324 l 2
 95 326 83 337 83 351 c 0
83 203 m 0
 83 218 95 229 108 231 c 2
 109 231 l 1
 710 231 l 1
 711 231 l 2
 723 229 734 218 734 203 c 0
 734 189 723 179 711 177 c 2
 710 177 l 1
 109 177 l 1
 108 177 l 2
 95 179 83 189 83 203 c 0
100 -249 m 2
 630 -109 l 1
 100 30 l 2
 88 33 83 45 83 55 c 0
 83 69 96 83 111 83 c 0
 113 83 115 83 121 81 c 2
 718 -84 l 2
 728 -88 734 -98 734 -109 c 0
 734 -120 729 -132 718 -135 c 2
 119 -300 l 2
 117 -301 117 -301 115 -301 c 0
 114 -301 l 0
 113 -301 113 -301 111 -301 c 0
 98 -301 83 -290 83 -274 c 0
 83 -263 89 -253 100 -249 c 2
EndSplineSet
EndChar

StartChar: greaterdbleqlless
Encoding: 10892 10892 123
Width: 818
Flags: W
HStem: 177 54<83.6813 733.375> 324 54<83.4163 733.504>
LayerCount: 2
Fore
SplineSet
100 525 m 2
 630 665 l 1
 100 804 l 2
 89 809 83 819 83 829 c 0
 83 843 96 857 111 857 c 0
 113 857 115 857 121 855 c 2
 718 691 l 2
 729 688 734 676 734 665 c 0
 734 654 728 644 718 640 c 2
 119 474 l 2
 117 473 117 473 115 473 c 0
 114 473 l 0
 113 473 113 473 111 473 c 0
 98 473 83 484 83 500 c 0
 83 511 89 522 100 525 c 2
83 351 m 0
 83 366 95 376 108 378 c 2
 109 378 l 1
 710 378 l 1
 711 378 l 2
 723 376 734 366 734 351 c 0
 734 339 725 327 711 324 c 2
 710 324 l 1
 109 324 l 1
 108 324 l 2
 95 326 83 337 83 351 c 0
83 203 m 0
 83 218 95 229 108 231 c 2
 109 231 l 1
 710 231 l 1
 711 231 l 2
 723 229 734 218 734 203 c 0
 734 189 723 179 711 177 c 2
 710 177 l 1
 109 177 l 1
 108 177 l 2
 95 179 83 189 83 203 c 0
83 -109 m 0
 83 -98 89 -88 100 -84 c 2
 698 82 l 2
 702 83 706 83 708 83 c 0
 724 83 734 68 734 56 c 0
 734 45 729 34 718 31 c 2
 187 -109 l 1
 718 -248 l 1
 718 -249 l 2
 728 -254 734 -263 734 -273 c 0
 734 -289 721 -301 708 -301 c 0
 704 -301 699 -300 697 -299 c 2
 100 -135 l 2
 89 -132 83 -120 83 -109 c 0
EndSplineSet
EndChar

StartChar: lessorapproxeql
Encoding: 10885 10885 124
Width: 818
Flags: W
HStem: -234 71<497.016 663.56> -88 71<153.651 319.984> 14 72<497.016 663.56> 161 71<153.651 319.984> 334 53<718 733.582> 786 52<718 733.478>
VStem: 53 41<-230.712 -145.318 17.3339 103.682> 723 41<-105.328 -20.2863 143.31 228.714>
LayerCount: 2
Fore
SplineSet
83 586 m 0
 83 596 89 607 100 612 c 2
 697 837 l 2
 699 838 701 838 708 838 c 0
 724 838 734 823 734 811 c 0
 734 800 728 790 718 786 c 2
 179 586 l 1
 718 387 l 2
 727 382 734 371 734 361 c 0
 734 346 722 334 708 334 c 0
 707 334 l 0
 706 334 704 334 702 334 c 0
 700 334 698 336 696 337 c 2
 100 561 l 2
 89 565 83 575 83 586 c 0
53 45 m 6
 53 46 l 5
 53 54 l 6
 53 155 134 232 233 232 c 4
 370 232 454 86 584 86 c 4
 650 86 723 131 723 201 c 6
 723 202 l 6
 724 210 726 223 734 229 c 4
 735 230 739 232 743 232 c 4
 746 232 747 232 749 231 c 4
 758 227 763 214 764 202 c 6
 764 201 l 5
 764 192 l 6
 764 92 683 14 584 14 c 4
 447 14 363 161 233 161 c 4
 168 161 94 117 94 46 c 6
 94 45 l 6
 93 39 91 24 83 17 c 4
 82 16 78 14 74 14 c 4
 73 14 70 13 66 16 c 4
 61 19 55 27 53 45 c 6
53 -204 m 6
 53 -203 l 5
 53 -195 l 6
 53 -94 134 -17 233 -17 c 4
 370 -17 454 -163 584 -163 c 4
 650 -163 723 -118 723 -48 c 6
 723 -47 l 6
 724 -39 726 -26 734 -20 c 4
 735 -19 739 -17 743 -17 c 4
 746 -17 747 -17 749 -18 c 4
 758 -22 763 -35 764 -47 c 6
 764 -48 l 5
 764 -56 l 6
 764 -156 683 -234 584 -234 c 4
 447 -234 363 -88 233 -88 c 4
 168 -88 94 -132 94 -203 c 6
 94 -204 l 6
 93 -210 91 -225 83 -231 c 4
 80 -233 78 -234 75 -234 c 4
 74 -234 l 4
 71 -234 69 -234 66 -232 c 4
 57 -227 54 -212 53 -204 c 6
EndSplineSet
EndChar

StartChar: greaterorapproxeql
Encoding: 10886 10886 125
Width: 818
Flags: W
HStem: -234 71<497.016 663.56> -88 71<153.651 319.984> 14 72<497.016 663.56> 161 71<153.651 319.984> 334 53<83.4522 100> 786 52<83.5161 100>
VStem: 53 41<-230.712 -145.318 17.3339 103.682> 723 41<-105.328 -20.2863 143.31 228.714>
LayerCount: 2
Fore
SplineSet
100 387 m 6
 638 586 l 1
 100 786 l 2
 89 790 83 800 83 811 c 0
 83 827 98 838 111 838 c 0
 114 838 117 838 121 837 c 2
 718 612 l 2
 727 607 734 596 734 586 c 0
 734 575 728 565 718 561 c 2
 121 336 l 6
 117 334 114 334 112 334 c 6
 111 334 l 6
 96 334 83 346 83 361 c 4
 83 371 89 382 100 387 c 6
53 45 m 6
 53 46 l 5
 53 54 l 6
 53 155 134 232 233 232 c 4
 370 232 454 86 584 86 c 4
 650 86 723 131 723 201 c 6
 723 202 l 6
 724 210 726 223 734 229 c 4
 735 230 739 232 743 232 c 4
 746 232 747 232 749 231 c 4
 758 227 763 214 764 202 c 6
 764 201 l 5
 764 192 l 6
 764 92 683 14 584 14 c 4
 447 14 363 161 233 161 c 4
 168 161 94 117 94 46 c 6
 94 45 l 6
 93 39 91 24 83 17 c 4
 82 16 78 14 74 14 c 4
 73 14 70 13 66 16 c 4
 61 19 55 27 53 45 c 6
53 -204 m 6
 53 -203 l 5
 53 -195 l 6
 53 -94 134 -17 233 -17 c 4
 370 -17 454 -163 584 -163 c 4
 650 -163 723 -118 723 -48 c 6
 723 -47 l 6
 724 -39 726 -26 734 -20 c 4
 735 -19 739 -17 743 -17 c 4
 746 -17 747 -17 749 -18 c 4
 758 -22 763 -35 764 -47 c 6
 764 -48 l 5
 764 -56 l 6
 764 -156 683 -234 584 -234 c 4
 447 -234 363 -88 233 -88 c 4
 168 -88 94 -132 94 -203 c 6
 94 -204 l 6
 93 -210 91 -225 83 -231 c 4
 80 -233 78 -234 75 -234 c 4
 74 -234 l 4
 71 -234 69 -234 66 -232 c 4
 57 -227 54 -212 53 -204 c 6
EndSplineSet
EndChar

StartChar: slteqlless
Encoding: 10901 10901 126
Width: 818
Flags: W
HStem: -163 50<721 733.398> 332 51<83.4522 97> 413 52<718 733.506> 623 50<721 733.486>
LayerCount: 2
Fore
SplineSet
97 383 m 2
 697 671 l 2
 699 672 701 673 708 673 c 0
 724 673 734 658 734 646 c 0
 734 637 729 627 721 623 c 2
 121 335 l 2
 117 332 113 332 111 332 c 0
 96 332 83 344 83 359 c 0
 83 368 89 380 97 383 c 2
83 152 m 0
 83 163 91 171 100 176 c 2
 697 463 l 2
 699 464 701 465 708 465 c 0
 724 465 734 450 734 438 c 0
 734 426 727 417 718 413 c 2
 173 152 l 1
 721 -113 l 2
 729 -117 734 -126 734 -135 c 0
 734 -150 721 -163 708 -163 c 0
 707 -163 l 0
 706 -163 704 -163 702 -163 c 0
 700 -163 698 -162 696 -160 c 2
 97 127 l 2
 87 131 83 142 83 152 c 0
EndSplineSet
Validated: 1
EndChar

StartChar: slteqlgreater
Encoding: 10902 10902 127
Width: 818
Flags: W
HStem: -164 52<83.6734 100> 332 52<718 733.582> 413 51<83.5161 97> 621 52<83.5161 100>
LayerCount: 2
Fore
SplineSet
83 646 m 0
 83 662 98 673 111 673 c 0
 114 673 117 673 121 672 c 2
 718 384 l 2
 727 379 734 369 734 359 c 0
 734 344 722 332 708 332 c 0
 707 332 l 0
 706 332 704 332 702 332 c 0
 700 332 698 333 696 335 c 2
 100 621 l 2
 93 624 83 631 83 646 c 0
100 -112 m 2
 644 151 l 1
 97 413 l 2
 88 417 83 427 83 437 c 0
 83 453 98 464 111 464 c 0
 114 464 117 464 121 463 c 2
 721 173 l 2
 729 169 734 160 734 151 c 0
 734 139 727 129 718 125 c 2
 121 -161 l 2
 117 -164 113 -164 111 -164 c 0
 97 -164 83 -151 83 -136 c 0
 83 -125 91 -117 100 -112 c 2
EndSplineSet
Validated: 1
EndChar

StartChar: notexistential
Encoding: 8708 8708 128
Width: 571
VWidth: 1000
Flags: W
HStem: -5 53<52.4469 178 243 465> 321 53<66.4236 252 318 465> 646 53<52.4469 327 392 465>
VStem: 145 52<-175.716 -125.87> 373 52<819.87 869.716> 465 53<48 321 374 646>
LayerCount: 2
Fore
SplineSet
318 374 m 1
 465 374 l 1
 465 646 l 1
 381 646 l 1
 318 374 l 1
243 48 m 1
 465 48 l 1
 465 321 l 1
 306 321 l 1
 243 48 l 1
145 -150 m 2
 145 -144 l 1
 178 -5 l 1
 77 -5 l 1
 76 -5 l 2
 65 -3 52 6 52 22 c 0
 52 36 63 46 76 48 c 2
 77 48 l 1
 189 48 l 1
 252 321 l 1
 91 321 l 1
 90 321 l 2
 78 323 66 332 66 347 c 0
 66 358 73 369 90 374 c 2
 264 374 l 1
 327 646 l 1
 77 646 l 1
 76 646 l 2
 65 648 52 657 52 673 c 0
 52 687 63 697 76 699 c 2
 77 699 l 1
 338 699 l 1
 373 851 l 2
 375 860 386 870 399 870 c 0
 413 870 425 859 425 844 c 2
 425 838 l 1
 392 699 l 1
 495 699 l 1
 503 697 518 689 518 675 c 2
 518 20 l 1
 518 19 l 2
 516 8 508 -5 494 -5 c 2
 232 -5 l 1
 197 -157 l 2
 195 -166 184 -176 171 -176 c 0
 157 -176 145 -165 145 -150 c 2
EndSplineSet
Validated: 1
EndChar

StartChar: emptyset
Encoding: 8709 8709 129
Width: 799
VWidth: 1000
Flags: W
HStem: -6 53<296.599 498.396> 546 53<299.851 501.401>
VStem: 97 53<192.861 396.187> 648 54<197.264 398.977>
LayerCount: 2
Fore
SplineSet
194 154 m 1
 570 478 l 1
 524 522 462 546 399 546 c 0
 262 546 150 433 150 297 c 0
 150 246 166 195 194 154 c 1
228 115 m 1
 274 71 336 47 399 47 c 0
 536 47 648 160 648 297 c 0
 648 347 632 398 604 439 c 1
 228 115 l 1
52 21 m 0
 52 25 53 33 60 40 c 2
 153 120 l 1
 116 171 97 234 97 297 c 0
 97 463 233 599 400 599 c 0
 447 599 492 587 532 567 c 1
 569 549 582 535 610 513 c 1
 701 592 l 2
 707 596 713 599 719 599 c 0
 734 599 746 587 746 573 c 0
 746 562 741 556 738 554 c 2
 645 473 l 1
 682 422 702 360 702 297 c 0
 702 130 566 -6 398 -6 c 0
 351 -6 306 6 266 26 c 1
 229 44 216 58 188 80 c 1
 97 1 l 2
 91 -3 85 -6 79 -6 c 0
 64 -6 52 6 52 21 c 0
EndSplineSet
Validated: 1
EndChar

StartChar: hslash
Encoding: 8463 8463 130
Width: 556
VWidth: 1000
Flags: W
HStem: -16 39<413.562 472.923> 408 39<291.182 397.377> 465 41<65.0118 105.32> 587 41<476.708 516.988>
VStem: 334 79<23.1651 127.976> 408 82<236.112 400.739>
LayerCount: 2
Fore
SplineSet
50 31 m 2xf4
 164 487 l 1
 91 465 l 1
 86 465 l 2
 74 465 65 474 65 486 c 0
 65 494 69 503 81 506 c 2
 176 534 l 1
 195 609 l 1
 195 614 196 617 196 621 c 0
 196 640 158 643 127 643 c 2
 121 643 l 1
 131 688 l 1
 304 699 l 1
 269 562 l 1
 491 628 l 1
 496 628 l 2
 508 628 517 619 517 607 c 0
 517 599 513 590 501 587 c 2
 257 515 l 1
 225 386 l 1
 263 424 310 447 364 447 c 0
 437 447 490 409 490 332 c 0xf4
 490 266 449 165 426 104 c 0
 418 84 413 64 413 48 c 0
 413 26 422 23 429 23 c 0
 483 23 515 97 528 147 c 0
 529 152 531 154 535 157 c 0
 537 159 540 160 543 160 c 2
 555 160 l 2
 559 160 563 160 567 154 c 0
 569 151 570 147 570 142 c 2
 570 141 l 1
 554 78 508 -16 428 -16 c 0
 377 -16 334 20 334 73 c 0xf8
 334 87 336 99 341 112 c 0
 365 174 408 283 408 347 c 0
 408 378 397 408 362 408 c 0
 285 408 235 350 200 284 c 1
 134 22 l 1
 127 1 110 -16 86 -16 c 0
 66 -16 49 -2 49 19 c 0
 49 23 49 26 50 31 c 2xf4
EndSplineSet
Validated: 1
EndChar

StartChar: Omegainv
Encoding: 8487 8487 131
Width: 742
VWidth: 1000
Flags: W
HStem: -27 39<281.29 460.161> 611 77<98.372 230 511 642.628>
VStem: 40 42<514 548.645> 52 113<135.237 328.891> 576 113<135.237 328.414> 658 43<514 548.645>
LayerCount: 2
Fore
SplineSet
133 436 m 2xd8
 164 482 l 2
 191 522 217 564 230 611 c 1
 175 611 l 2
 88 611 101 606 83 518 c 2
 82 514 l 1
 40 514 l 1xe0
 76 688 l 1
 262 688 l 2
 263 688 267 689 271 685 c 0
 272 684 278 679 278 670 c 0
 278 513 165 382 165 228 c 0
 165 107 247 12 371 12 c 0
 494 12 576 107 576 228 c 0xd8
 576 382 463 513 463 670 c 0
 463 678 469 688 480 688 c 2
 665 688 l 1
 701 514 l 1
 659 514 l 1
 658 518 l 2xc4
 640 606 653 611 566 611 c 2
 511 611 l 1
 524 564 550 522 577 482 c 2
 609 434 l 2
 650 373 689 305 689 228 c 0
 689 63 515 -27 371 -27 c 0
 226 -27 52 63 52 228 c 0
 52 306 92 374 133 436 c 2xd8
EndSplineSet
Validated: 1
EndChar

StartChar: beth
Encoding: 8502 8502 132
Width: 685
VWidth: 1000
Flags: W
HStem: -27 141<68.25 579> 587 134<108.797 578.206>
VStem: 579 53<114 582.918>
LayerCount: 2
Fore
SplineSet
-13 -0 m 0
 -13 4 -13 12 -6 19 c 2
 82 106 l 2
 86 111 91 113 98 114 c 2
 99 114 l 1
 579 114 l 1
 579 563 l 2
 579 582 553 587 539 587 c 2
 141 587 l 2
 53 587 52 665 52 727 c 2
 52 744 l 1
 52 745 l 2
 54 758 65 768 79 768 c 0
 112 768 98 721 145 721 c 2
 543 721 l 2
 631 721 632 642 632 580 c 2
 632 114 l 1
 673 114 l 1
 674 114 l 2
 686 112 697 102 697 87 c 0
 697 83 697 75 690 68 c 2
 602 -20 l 2
 598 -24 592 -25 587 -27 c 2
 586 -27 l 1
 10 -27 l 1
 -1 -24 -13 -15 -13 -0 c 0
EndSplineSet
Validated: 1
EndChar

StartChar: daleth
Encoding: 8504 8504 133
Width: 685
VWidth: 1000
Flags: W
HStem: 587 134<108.797 543>
VStem: 543 91<-26.0298 348.89> 543 54<368.317 587>
LayerCount: 2
Fore
SplineSet
543 101 m 2xc0
 543 587 l 1
 141 587 l 2
 53 587 52 665 52 727 c 2
 52 745 l 1
 55 756 63 768 79 768 c 0
 112 768 97 721 145 721 c 2
 572 721 l 2
 609 721 647 694 647 654 c 0
 647 622 624 600 597 591 c 1xa0
 597 510 607 428 616 345 c 0
 625 261 634 176 634 91 c 0
 634 89 634 85 634 81 c 0
 634 46 631 -49 585 -49 c 0
 572 -49 562 -39 559 -28 c 0
 549 14 543 58 543 101 c 2xc0
EndSplineSet
Validated: 1
EndChar

StartChar: gimel
Encoding: 8503 8503 134
Width: 456
VWidth: 1000
Flags: W
HStem: -27 141<66.875 288.375> 587 134<108.797 315>
VStem: 315 91<114 348.889> 315 54<368.293 587>
LayerCount: 2
Fore
SplineSet
-13 -0 m 0xe0
 -13 7 -10 13 -6 19 c 2
 82 107 l 2
 86 111 92 114 99 114 c 2
 315 114 l 1xe0
 315 587 l 1
 141 587 l 2
 53 587 52 665 52 727 c 2
 52 745 l 1
 55 756 63 768 79 768 c 0
 112 768 97 721 145 721 c 2
 344 721 l 2
 381 721 419 694 419 654 c 0
 419 622 396 599 369 590 c 1xd0
 369 509 379 428 388 345 c 0
 397 261 406 176 406 91 c 0
 406 89 406 85 406 81 c 0
 406 46 403 -49 357 -49 c 0
 330 -49 324 -1 320 28 c 1
 274 -20 l 2
 271 -23 263 -27 257 -27 c 2
 10 -27 l 1
 -1 -24 -13 -15 -13 -0 c 0xe0
EndSplineSet
Validated: 1
EndChar

StartChar: Finv
Encoding: 8498 8498 135
Width: 571
VWidth: 1000
Flags: W
HStem: -5 53<52.4469 465> 321 53<206.414 465>
VStem: 465 53<48 321 374 698.618>
LayerCount: 2
Fore
SplineSet
52 22 m 0
 52 36 63 46 76 48 c 2
 77 48 l 1
 465 48 l 1
 465 321 l 1
 230 321 l 1
 229 321 l 2
 218 323 206 331 206 347 c 0
 206 362 218 371 229 374 c 2
 465 374 l 1
 465 675 l 1
 465 676 l 2
 467 688 477 699 492 699 c 0
 506 699 516 688 518 676 c 2
 518 675 l 1
 518 20 l 2
 518 6 505 -3 495 -5 c 2
 77 -5 l 1
 76 -5 l 2
 65 -3 52 6 52 22 c 0
EndSplineSet
Validated: 1
EndChar

StartChar: Gmir
Encoding: 8513 8513 136
Width: 656
VWidth: 1000
Flags: W
HStem: -27 53<90.4156 358.053> 261 53<88 260.618> 657 53<131.411 360.186>
VStem: 35 53<39.6318 261> 544 53<221.844 457.234>
LayerCount: 2
Fore
SplineSet
35 46 m 2
 35 291 l 1
 37 301 46 314 60 314 c 2
 237 314 l 1
 238 314 l 2
 250 312 261 302 261 288 c 0
 261 273 250 263 238 261 c 2
 237 261 l 1
 88 261 l 1
 88 50 l 2
 88 49 88 49 89 48 c 0
 101 30 198 26 254 26 c 0
 425 26 544 178 544 342 c 0
 544 504 425 657 256 657 c 0
 196 657 135 641 83 613 c 0
 77 610 73 609 70 609 c 0
 55 609 43 621 43 636 c 0
 43 645 48 653 57 658 c 0
 118 692 186 710 256 710 c 0
 455 710 597 532 597 342 c 0
 597 151 455 -27 256 -27 c 0
 253 -27 249 -27 244 -27 c 0
 189 -27 35 -24 35 46 c 2
EndSplineSet
Validated: 1
EndChar

StartChar: A
Encoding: 65 65 137
Width: 722
VWidth: 1000
Flags: W
HStem: -5 45<12.0073 78.7826 119 155 194.473 249.992 370.007 447.724 488 610 648.495 707.982> 192 45<214 398>
VStem: 144 45<44.0022 93> 450 45<49.1055 150.59>
LayerCount: 2
Fore
SplineSet
214 237 m 1
 398 237 l 1
 366 317 331 397 296 477 c 1
 265 395 235 310 214 237 c 1
488 40 m 1
 610 40 l 1
 600 54 592 69 585 84 c 2
 348 627 l 1
 316 544 l 1
 358 459 495 136 495 66 c 0
 495 56 493 48 488 40 c 1
119 40 m 1
 155 40 l 1
 147 57 144 75 144 93 c 1
 133 64 l 2
 130 56 124 48 119 40 c 1
12 18 m 0
 12 28 20 40 33 40 c 0
 59 40 81 57 90 81 c 2
 326 696 l 2
 329 705 338 709 347 709 c 0
 355 709 364 703 368 696 c 2
 627 102 l 2
 640 72 656 40 687 40 c 2
 688 40 l 1
 702 37 708 27 708 18 c 0
 708 7 700 -5 687 -5 c 2
 390 -5 l 1
 380 -3 370 4 370 18 c 0
 370 28 378 40 391 40 c 0
 414 40 434 50 450 64 c 1
 450 66 l 2
 450 97 427 158 415 192 c 1
 202 192 l 1
 195 161 189 130 189 99 c 0
 189 64 197 40 229 40 c 2
 230 40 l 1
 239 38 250 30 250 18 c 0
 250 7 241 -5 229 -5 c 2
 32 -5 l 1
 22 -3 12 4 12 18 c 0
EndSplineSet
Validated: 1
EndChar

StartChar: B
Encoding: 66 66 138
Width: 666
VWidth: 1000
Flags: W
HStem: -5 45<4.01764 96.4744 139 231 270.189 394.549> 332 45<267 365.836> 645 45<4.01764 96.1073 138 231 270.189 375.492>
VStem: 100 45<43.2187 640.945> 222 45<46.3321 332 377 638.668> 413 45<422.555 603.139> 444 45<91.113 289.648> 543 45<453.884 589.929> 581 45<118.683 260.73>
LayerCount: 2
Fore
SplineSet
427 393 m 1xfd
 481 410 543 454 543 511 c 0
 543 596 495 628 421 639 c 1
 450 602 458 551 458 511 c 0
 458 471 452 427 427 393 c 1xfd
267 377 m 1
 362 378 413 407 413 511 c 0
 413 572 389 645 318 645 c 0
 295 645 267 633 267 610 c 2
 267 377 l 1
453 55 m 1
 516 73 581 111 581 186 c 0
 581 269 519 316 445 333 c 1
 482 294 489 236 489 186 c 0xfa80
 489 118 470 78 453 55 c 1
267 75 m 2
 267 52 295 40 318 40 c 0
 367 40 444 57 444 186 c 0
 444 281 419 332 317 332 c 2
 267 332 l 1
 267 75 l 2
139 40 m 1
 231 40 l 1
 225 50 222 61 222 73 c 2
 222 612 l 2
 222 624 225 635 231 645 c 1
 138 645 l 1
 144 628 145 611 145 593 c 2
 145 92 l 2
 145 75 145 57 139 40 c 1
4 18 m 0
 4 27 10 37 24 40 c 2
 24 40 27 40 28 40 c 0
 86 40 100 40 100 94 c 2
 100 591 l 2
 100 645 84 645 25 645 c 0
 12 645 4 657 4 668 c 0
 4 677 10 687 24 690 c 2
 338 690 l 2
 461 690 588 664 588 511 c 0xf9
 588 446 536 396 484 368 c 1
 567 341 626 277 626 186 c 0
 626 38 452 -5 338 -5 c 2
 25 -5 l 2
 12 -5 4 7 4 18 c 0
EndSplineSet
Validated: 1
EndChar

StartChar: C
Encoding: 67 67 139
Width: 722
VWidth: 1000
Flags: W
HStem: -24 58<323.178 517.376> 618 45<585 616.815> 664 45<323.619 475.409>
VStem: 32 45<211.688 474.314> 173 45<170.013 508.108> 617 45<466.018 536.036 583 622 663.072 708.994> 646 44<123.794 147>
LayerCount: 2
Fore
SplineSet
617 583 m 1xfc
 617 622 l 1
 615 621 614 620 613 620 c 2
 612 620 l 1
 606 619 601 618 594 618 c 0
 591 618 588 618 585 618 c 1
 597 607 607 596 617 583 c 1xfc
262 44 m 1
 186 118 173 246 173 343 c 0
 173 436 189 557 252 637 c 1
 132 585 77 473 77 343 c 0
 77 207 136 93 262 44 c 1
32 343 m 0
 32 559 174 709 392 709 c 0
 431 709 470 701 506 685 c 0
 534 672 563 663 593 663 c 0
 606 663 617 674 617 688 c 0
 617 701 629 709 640 709 c 0
 650 709 662 701 662 688 c 2
 662 488 l 2xfc
 662 475 651 466 640 466 c 0
 630 466 620 472 618 483 c 1
 598 570 482 664 392 664 c 0
 252 664 218 455 218 342 c 0
 218 215 245 34 405 34 c 0
 498 34 587 75 646 146 c 2
 646 147 l 1
 647 147 l 2
 652 151 656 155 664 155 c 0
 680 155 690 141 690 130 c 0xfa
 690 124 689 119 686 116 c 0
 614 28 506 -24 392 -24 c 0
 174 -24 32 126 32 343 c 0
EndSplineSet
Validated: 1
EndChar

StartChar: D
Encoding: 68 68 140
Width: 722
VWidth: 1000
Flags: W
HStem: -5 46<25 92.8906 135 232 272.562 400.339> 643 46<17.2336 92.8906 135 232 272.645 397.336>
VStem: 95 46<43.2501 640.75> 223 46<47.2732 635.669> 507 46<180.367 501.088> 647 46<225.711 473.796>
LayerCount: 2
Fore
SplineSet
482 71 m 1
 596 123 647 231 647 356 c 0
 647 477 589 574 476 619 c 1
 539 548 553 432 553 356 c 0
 553 267 542 147 482 71 c 1
269 78 m 2
 269 53 296 41 320 41 c 0
 483 41 507 227 507 355 c 0
 507 463 471 643 328 643 c 0
 307 643 269 636 269 606 c 2
 269 78 l 2
135 41 m 1
 232 41 l 1
 226 52 223 64 223 74 c 2
 223 610 l 2
 223 620 226 632 232 643 c 1
 135 643 l 1
 140 627 141 611 141 594 c 2
 141 90 l 2
 141 73 140 57 135 41 c 1
31 643 m 1
 26 643 21 645 17 650 c 0
 12 656 11 661 11 666 c 1
 11 666 11 677 17 683 c 0
 22 688 26 689 30 689 c 2
 31 689 l 1
 342 689 l 2
 544 689 693 563 693 356 c 0
 693 144 557 -5 342 -5 c 2
 31 -5 l 1
 30 -5 l 2
 25 -3 26 -3 25 -3 c 0
 23 -2 l 0
 22 -1 21 -1 17 2 c 2
 16 3 l 1
 16 4 l 2
 15 7 11 12 11 18 c 0
 11 24 15 29 16 32 c 2
 16 33 l 1
 17 34 l 2
 22 37 22 38 23 38 c 0
 25 39 l 0
 26 39 27 40 30 41 c 2
 31 41 l 1
 32 41 l 2
 87 41 95 41 95 94 c 2
 95 590 l 2
 95 643 87 643 32 643 c 2
 31 643 l 1
476 619 m 1
EndSplineSet
Validated: 1
EndChar

StartChar: E
Encoding: 69 69 141
Width: 666
VWidth: 1000
Flags: W
HStem: -5 46<21 92.5469 135 224 264.673 450.822 505 574> 329 46<261 354.826> 643 46<21 92.371 135 224 264.673 459.946>
VStem: 95 46<44.0002 640> 215 46<41.75 329 375 642.25> 419 36<197 198 208 267.688 449.873 516 526 527> 553 42<490 564.131> 604 36<219.697 258>
LayerCount: 2
Fore
SplineSet
215 90 m 2
 215 594 l 2
 215 611 218 627 224 643 c 1
 135 643 l 1
 140 627 141 611 141 594 c 2
 141 90 l 2
 141 73 140 57 135 41 c 1
 224 41 l 1
 218 57 215 73 215 90 c 2
7 18 m 0
 7 24 11 29 12 32 c 2
 12 33 l 1
 13 34 l 2
 18 37 18 38 19 38 c 0
 21 39 l 0
 22 39 23 40 26 41 c 2
 27 41 l 1
 28 41 l 2
 85 41 95 41 95 94 c 2
 95 594 l 2
 95 643 81 643 28 643 c 2
 27 643 l 1
 26 643 l 2
 21 645 22 645 21 645 c 0
 19 646 l 0
 18 647 17 647 13 650 c 2
 12 651 l 1
 12 652 l 2
 11 655 7 660 7 666 c 0
 7 672 11 677 12 680 c 2
 12 681 l 1
 13 682 l 2
 18 685 18 686 19 686 c 0
 21 687 l 0
 22 687 23 688 26 689 c 2
 27 689 l 1
 577 689 l 1
 578 689 l 2
 583 687 582 687 583 687 c 0
 585 686 l 0
 586 685 587 685 591 682 c 2
 592 681 l 1
 592 680 l 2
 594 677 595 676 595 676 c 0
 595 675 l 0
 595 674 596 672 597 669 c 2
 597 503 l 1
 596 500 595 498 595 497 c 0
 595 497 595 497 595 496 c 0
 595 495 593 494 592 492 c 2
 592 490 l 1
 591 490 l 2
 587 487 582 483 574 483 c 0
 566 483 561 487 557 490 c 2
 556 490 l 1
 556 492 l 2
 554 495 553 496 553 496 c 0
 553 497 l 0
 553 498 552 500 551 503 c 2
 551 504 l 2
 551 603 437 643 350 643 c 2
 286 643 l 2
 265 643 261 611 261 590 c 2
 261 375 l 1
 338 376 414 405 414 514 c 2
 414 515 l 1
 414 516 l 2
 417 522 416 520 419 526 c 2
 419 528 l 1
 420 528 l 2
 425 531 430 535 437 535 c 0
 445 535 450 531 454 528 c 2
 455 527 l 1
 455 526 l 2
 457 523 458 522 458 522 c 0
 458 521 l 0
 458 520 459 518 460 515 c 2
 460 209 l 1
 459 206 458 204 458 203 c 0
 458 203 458 203 458 202 c 0
 458 201 456 200 455 198 c 2
 455 197 l 1
 454 196 l 2
 450 193 445 189 437 189 c 0
 430 189 425 193 420 196 c 2
 419 196 l 1
 419 198 l 2
 416 204 417 202 414 208 c 2
 414 209 l 1
 414 210 l 2
 414 303 344 328 261 329 c 1
 261 94 l 2
 261 73 265 41 286 41 c 2
 360 41 l 2
 416 41 470 68 512 104 c 1
 540 130 566 155 583 189 c 0
 596 214 595 237 604 256 c 2
 604 258 l 1
 605 258 l 2
 609 261 614 265 622 265 c 0
 630 265 635 261 639 258 c 2
 640 258 l 1
 640 256 l 2
 642 252 645 247 645 241 c 2
 617 15 l 1
 616 12 615 10 615 9 c 0
 615 9 615 9 615 8 c 0
 615 7 613 6 612 4 c 2
 612 3 l 1
 611 2 l 2
 606 -1 606 -2 605 -2 c 0
 603 -3 l 0
 602 -3 601 -4 598 -5 c 2
 597 -5 l 1
 27 -5 l 1
 26 -5 l 2
 21 -3 22 -3 21 -3 c 0
 19 -2 l 0
 18 -1 17 -1 13 2 c 2
 12 3 l 1
 12 4 l 2
 11 7 7 12 7 18 c 0
505 41 m 1
 574 41 l 1
 582 107 l 1
 560 82 534 60 505 41 c 1
EndSplineSet
Validated: 1
EndChar

StartChar: F
Encoding: 70 70 142
Width: 611
VWidth: 1000
Flags: W
HStem: -5 45<9.00729 94.557 135 226 266.614 374.982> 331 46<264 346.213> 518 20G<421 430.5> 645 45<9.00729 94.2656 135 229 267.708 456.837 510 543>
VStem: 97 45<42.397 641.812> 219 45<44.7821 331 377 644.203> 403 45<192.006 286.012 329 385 432.557 537.974> 543 45<484.007 571.469 616 645>
LayerCount: 2
Fore
SplineSet
510 645 m 1
 522 637 533 627 543 616 c 1
 543 645 l 1
 510 645 l 1
365 356 m 1
 379 349 392 340 403 329 c 1
 403 385 l 1
 392 373 379 364 365 356 c 1
135 40 m 1
 226 40 l 1
 219 57 219 74 219 92 c 2
 219 593 l 2
 219 611 223 628 229 645 c 1
 135 645 l 1
 141 628 142 611 142 593 c 2
 142 92 l 2
 142 75 141 57 135 40 c 1
9 18 m 0
 9 27 15 37 29 40 c 2
 29 40 32 40 33 40 c 0
 89 40 97 40 97 94 c 2
 97 593 l 2
 97 645 85 645 30 645 c 2
 29 645 l 1
 19 647 9 654 9 668 c 0
 9 678 17 690 30 690 c 2
 568 690 l 1
 577 688 588 681 588 669 c 2
 588 506 l 2
 588 493 577 484 566 484 c 0
 555 484 543 493 543 506 c 0
 543 602 436 645 351 645 c 2
 289 645 l 2
 269 645 264 614 264 591 c 2
 264 377 l 1
 351 379 403 425 403 516 c 0
 403 529 416 538 426 538 c 0
 435 538 448 529 448 516 c 2
 448 213 l 2
 448 200 436 192 426 192 c 0
 415 192 403 200 403 213 c 0
 403 300 342 330 264 331 c 1
 264 94 l 2
 264 68 264 49 287 44 c 0
 305 40 329 40 349 40 c 0
 351 40 352 40 354 40 c 2
 355 40 l 1
 369 37 375 27 375 18 c 0
 375 7 367 -5 354 -5 c 2
 29 -5 l 1
 19 -3 9 4 9 18 c 0
EndSplineSet
Validated: 1
EndChar

StartChar: G
Encoding: 71 71 143
Width: 777
VWidth: 1000
Flags: W
HStem: -24 45<314.465 497.37> 250 45<405.007 484.65 525 647 687.75 753.971> 618 45<584 615.815> 664 45<323.619 476.075>
VStem: 32 45<211.325 474.314> 173 45<157.112 505.476> 507 45<45.5599 226.981> 616 45<466.018 536.036 583 622 663.072 708.994> 626 45<64.8413 233.481>
LayerCount: 2
Fore
SplineSet
616 583 m 1xff
 616 622 l 1
 614 621 613 620 612 620 c 2
 611 620 l 1
 605 619 600 618 593 618 c 0
 590 618 587 618 584 618 c 1
 595 607 606 595 616 583 c 1xff
239 54 m 1
 182 133 173 253 173 343 c 0
 173 436 189 557 252 637 c 1
 132 585 77 473 77 343 c 0
 77 219 127 109 239 54 c 1
550 45 m 1
 576 53 601 63 626 75 c 1
 626 180 l 2xfe80
 626 205 633 229 647 250 c 1
 525 250 l 1
 541 230 552 206 552 180 c 2
 552 61 l 2
 552 56 551 50 550 45 c 1
32 343 m 0
 32 559 174 709 392 709 c 0
 431 709 470 701 505 685 c 0
 533 672 562 663 592 663 c 0
 605 663 616 674 616 688 c 0
 616 701 628 709 639 709 c 0
 649 709 661 701 661 688 c 2
 661 488 l 2xff
 661 475 650 466 639 466 c 0
 629 466 618 472 617 483 c 1
 598 570 482 664 392 664 c 0
 252 664 218 454 218 342 c 0
 218 183 253 21 392 21 c 0
 434 21 507 23 507 63 c 2
 507 178 l 2
 507 221 467 250 426 250 c 0
 413 250 405 262 405 272 c 0
 405 286 415 293 425 295 c 2
 733 295 l 2
 745 295 754 281 754 272 c 0
 754 259 744 251 734 250 c 2
 733 250 l 1
 695 250 671 214 671 178 c 2
 671 61 l 2
 671 50 662 44 659 42 c 0
 576 0 486 -24 392 -24 c 0
 174 -24 32 126 32 343 c 0
EndSplineSet
Validated: 1
EndChar

StartChar: H
Encoding: 72 72 144
Width: 777
VWidth: 1000
Flags: W
HStem: -5 45<12.0073 97.557 138 235 275.734 360.982 417.007 502.557 543 640 680.734 765.982> 319 56<273 505> 645 45<12.0073 97.2656 138 235 275.443 360.993 417.007 502.266 543 640 680.443 765.993>
VStem: 100 45<42.397 641.812> 228 45<43.1987 319 375 642.609> 505 45<42.397 319 375 641.812> 633 45<43.1987 642.609>
LayerCount: 2
Fore
SplineSet
543 40 m 1
 640 40 l 1
 634 57 633 75 633 92 c 2
 633 593 l 2
 633 611 634 628 640 645 c 1
 543 645 l 1
 549 628 550 611 550 593 c 2
 550 92 l 2
 550 75 549 57 543 40 c 1
138 40 m 1
 235 40 l 1
 229 57 228 75 228 92 c 2
 228 593 l 2
 228 611 229 628 235 645 c 1
 138 645 l 1
 144 628 145 611 145 593 c 2
 145 92 l 2
 145 75 144 57 138 40 c 1
12 18 m 0
 12 27 18 37 32 40 c 2
 32 40 35 40 36 40 c 0
 92 40 100 40 100 94 c 2
 100 593 l 2
 100 645 88 645 33 645 c 2
 32 645 l 1
 22 647 12 654 12 668 c 0
 12 678 20 690 33 690 c 2
 341 690 l 1
 355 687 361 677 361 668 c 0
 361 654 351 647 341 645 c 2
 341 645 338 645 337 645 c 0
 281 645 273 645 273 591 c 2
 273 375 l 1
 505 375 l 1
 505 593 l 2
 505 645 493 645 438 645 c 2
 437 645 l 1
 427 647 417 654 417 668 c 0
 417 678 425 690 438 690 c 2
 746 690 l 1
 760 687 766 677 766 668 c 0
 766 654 756 647 746 645 c 2
 746 645 743 645 742 645 c 0
 686 645 678 645 678 591 c 2
 678 92 l 2
 678 40 690 40 745 40 c 2
 746 40 l 1
 760 37 766 27 766 18 c 0
 766 7 758 -5 745 -5 c 2
 437 -5 l 1
 427 -3 417 4 417 18 c 0
 417 27 423 37 437 40 c 2
 437 40 440 40 441 40 c 0
 497 40 505 40 505 94 c 2
 505 319 l 1
 273 319 l 1
 273 92 l 2
 273 40 285 40 340 40 c 2
 341 40 l 1
 355 37 361 27 361 18 c 0
 361 7 353 -5 340 -5 c 2
 32 -5 l 1
 22 -3 12 4 12 18 c 0
EndSplineSet
Validated: 1
EndChar

StartChar: I
Encoding: 73 73 145
Width: 388
VWidth: 1000
Flags: W
HStem: -5 45<15.0073 104.474 146 242 284.234 373.982> 645 45<15.0073 104.766 147 243 284.526 373.982>
VStem: 108 45<43.2187 641.514> 236 45<43.4865 641.781>
LayerCount: 2
Fore
SplineSet
146 40 m 1
 242 40 l 1
 236 57 236 75 236 92 c 2
 236 593 l 2
 236 611 237 628 243 645 c 1
 147 645 l 1
 153 628 153 610 153 593 c 2
 153 92 l 2
 153 74 152 57 146 40 c 1
15 18 m 0
 15 28 23 40 36 40 c 0
 94 40 108 40 108 94 c 2
 108 593 l 2
 108 645 93 645 36 645 c 2
 35 645 l 1
 25 647 15 654 15 668 c 0
 15 678 23 690 36 690 c 2
 354 690 l 1
 368 687 374 677 374 668 c 0
 374 657 366 645 353 645 c 0
 295 645 281 645 281 591 c 2
 281 92 l 2
 281 40 296 40 353 40 c 2
 354 40 l 1
 368 37 374 27 374 18 c 0
 374 7 366 -5 353 -5 c 2
 35 -5 l 1
 25 -3 15 4 15 18 c 0
EndSplineSet
Validated: 1
EndChar

StartChar: J
Encoding: 74 74 146
Width: 500
VWidth: 1000
Flags: W
HStem: -80 45<128.565 207.387> 66 45<46.9106 109.089> 645 45<118.007 215.359 258 355 395.443 480.993>
VStem: 1 45<-6.70032 64.5867> 110 45<-4.77592 64.5867> 220 45<-22.3193 639.421> 348 45<32.7052 642.609>
LayerCount: 2
Fore
SplineSet
83 -17 m 1
 89 8 110 15 110 37 c 0
 110 54 95 66 78 66 c 0
 61 66 46 54 46 37 c 0
 46 13 62 -6 83 -17 c 1
255 -23 m 1
 325 0 348 55 348 113 c 2
 348 593 l 2
 348 611 349 628 355 645 c 1
 258 645 l 1
 265 628 265 611 265 593 c 2
 265 18 l 2
 265 3 261 -11 255 -23 c 1
78 111 m 0
 119 111 155 79 155 37 c 0
 155 -3 128 -18 127 -29 c 1
 131 -33 153 -35 163 -35 c 0
 193 -35 220 -10 220 20 c 2
 220 593 l 2
 220 645 196 645 139 645 c 2
 138 645 l 1
 128 647 118 654 118 668 c 0
 118 678 126 690 139 690 c 2
 461 690 l 1
 475 687 481 677 481 668 c 0
 481 654 471 647 461 645 c 2
 461 645 458 645 457 645 c 0
 401 645 393 645 393 591 c 2
 393 111 l 2
 393 -26 290 -80 167 -80 c 0
 99 -80 1 -50 1 37 c 0
 1 79 37 111 78 111 c 0
EndSplineSet
Validated: 1
EndChar

StartChar: K
Encoding: 75 75 147
Width: 777
VWidth: 1000
Flags: W
HStem: -5 45<19.0176 104.557 145 242 282.734 367.993 475.018 516.807 562 677 715.984 773.993> 645 45<19.0176 104.266 145 242 282.443 367.993 449.018 503.926 543 602 649.573 735.993>
VStem: 107 45<42.397 641.812> 235 45<43.1987 282 354 642.609>
LayerCount: 2
Fore
SplineSet
554 606 m 1,0,-1
526 107 m 2,1,-1
 540 91 562 67 562 41 c 2,4,-1
 562 40 l 1,5,-1
 677 40 l 1,6,-1
 665 53 652 68 642 80 c 2,9,-1
 388 386 l 1,10,-1
 336 336 l 1,11,-1
 526 107 l 2,1,-1
145 40 m 1,12,-1
 242 40 l 1,13,-1
 236 57 235 75 235 92 c 2,16,-1
 235 593 l 2,17,-1
 235 611 236 628 242 645 c 1,20,-1
 145 645 l 1,21,-1
 151 628 152 611 152 593 c 2,24,-1
 152 92 l 2,25,-1
 152 75 151 57 145 40 c 1,12,-1
19 18 m 0,28,-1
 19 27 25 37 39 40 c 2,31,-1
 39 40 42 40 43 40 c 0,34,-1
 99 40 107 40 107 94 c 2,37,-1
 107 593 l 2,38,-1
 107 645 95 645 40 645 c 0,41,-1
 27 645 19 657 19 668 c 0,44,-1
 19 677 25 687 39 690 c 2,47,-1
 347 690 l 2,48,-1
 360 690 368 678 368 668 c 0,51,-1
 368 654 358 647 348 645 c 2,54,-1
 348 645 345 645 344 645 c 0,57,-1
 288 645 280 645 280 591 c 2,60,-1
 280 354 l 1,61,-1
 488 555 l 2,62,-1
 500 567 509 584 509 601 c 0,65,-1
 509 624 494 645 470 645 c 0,68,-1
 457 645 449 657 449 668 c 0,71,-1
 449 677 455 687 469 690 c 2,74,-1
 715 690 l 2,75,-1
 728 690 736 678 736 668 c 0,78,-1
 736 654 726 647 716 645 c 2,81,-1
 715 645 l 2,82,-1
 649 645 564 556 526 519 c 2,85,-1
 420 417 l 1,86,-1
 678 107 l 2,87,-1
 694 87 728 40 753 40 c 0,90,-1
 766 40 774 28 774 18 c 0,93,-1
 774 4 764 -3 754 -5 c 2,96,-1
 496 -5 l 2,97,-1
 483 -5 475 7 475 18 c 0,100,-1
 475 27 481 37 495 40 c 2,103,-1
 496 40 l 2,104,-1
 502 40 513 41 517 43 c 1,107,-1
 515 51 502 67 490 80 c 2,110,-1
 303 304 l 1,111,-1
 280 282 l 1,112,-1
 280 92 l 2,113,-1
 280 40 292 40 347 40 c 0,116,-1
 360 40 368 28 368 18 c 0,119,-1
 368 4 358 -3 348 -5 c 2,122,-1
 40 -5 l 2,123,-1
 27 -5 19 7 19 18 c 0,28,-1
554 606 m 1,126,-1
 569 620 585 633 602 645 c 1,129,-1
 543 645 l 1,130,-1
 550 633 553 619 554 606 c 1,126,-1
EndSplineSet
Validated: 1
EndChar

StartChar: L
Encoding: 76 76 148
Width: 666
VWidth: 1000
Flags: W
HStem: -5 45<9.01764 94.557 135 231 269.708 459.966 516 574> 645 45<9.01764 94.2656 135 227 267.883 348.993>
VStem: 97 45<42.397 641.812> 221 45<40.7969 642.603>
LayerCount: 2
Fore
SplineSet
516 40 m 1
 574 40 l 1
 582 89 l 1
 562 70 540 54 516 40 c 1
135 40 m 1
 231 40 l 1
 225 57 221 74 221 92 c 2
 221 593 l 2
 221 610 221 628 227 645 c 1
 135 645 l 1
 141 628 142 611 142 593 c 2
 142 92 l 2
 142 75 141 57 135 40 c 1
9 18 m 0
 9 27 15 37 29 40 c 2
 29 40 32 40 33 40 c 0
 89 40 97 40 97 94 c 2
 97 593 l 2
 97 645 85 645 30 645 c 0
 17 645 9 657 9 668 c 0
 9 677 15 687 29 690 c 2
 328 690 l 2
 341 690 349 678 349 668 c 0
 349 654 339 647 329 645 c 2
 329 645 326 645 325 645 c 0
 271 645 266 644 266 591 c 2
 266 94 l 2
 266 71 271 40 291 40 c 2
 360 40 l 2
 456 40 585 112 600 212 c 0
 602 223 612 229 622 229 c 0
 635 229 644 216 644 206 c 2
 616 12 l 1
 613 1 604 -4 596 -5 c 2
 595 -5 l 1
 30 -5 l 2
 17 -5 9 7 9 18 c 0
EndSplineSet
Validated: 1
EndChar

StartChar: M
Encoding: 77 77 149
Width: 944
VWidth: 1000
Flags: W
HStem: -5 45<12.0176 86.5547 163.774 243.993 586.018 660.555 701 810 849.774 929.993> 645 45<15.0176 98.0618 168 240 718 809 849.445 923.993>
VStem: 99 52<54.3569 583> 673 45<53.3953 582> 792 45<54.3569 631.605>
LayerCount: 2
Fore
SplineSet
412 76 m 1
 450 166 l 1
 449 166 l 1
 448 166 l 1
 444 169 l 2
 443 170 438 172 435 179 c 2
 240 645 l 1
 168 645 l 1
 175 637 180 629 185 619 c 2
 412 76 l 1
701 40 m 1
 810 40 l 1
 799 55 792 73 792 92 c 2
 792 593 l 2
 792 612 798 630 809 645 c 1
 718 645 l 1
 718 92 l 2
 718 73 712 55 701 40 c 1
12 18 m 0
 12 27 18 37 32 40 c 2
 33 40 l 2
 65 40 99 60 99 94 c 2
 99 636 l 1
 79 643 58 645 36 645 c 0
 23 645 15 657 15 668 c 0
 15 677 21 687 35 690 c 2
 257 690 l 2
 264 690 273 684 276 677 c 2
 466 223 l 1
 656 677 l 2
 659 686 667 689 674 690 c 2
 675 690 l 1
 903 690 l 2
 916 690 924 678 924 668 c 0
 924 654 914 647 904 645 c 2
 903 645 l 2
 871 645 837 625 837 591 c 2
 837 94 l 2
 837 58 875 40 909 40 c 0
 922 40 930 28 930 18 c 0
 930 4 920 -3 910 -5 c 2
 607 -5 l 2
 594 -5 586 7 586 18 c 0
 586 27 592 37 606 40 c 2
 607 40 l 2
 639 40 673 60 673 94 c 2
 673 582 l 1
 433 9 l 2
 429 0 421 -5 412 -5 c 0
 403 -5 395 0 391 9 c 2
 151 583 l 1
 151 94 l 2
 151 58 189 40 223 40 c 0
 236 40 244 28 244 18 c 0
 244 4 234 -3 224 -5 c 2
 33 -5 l 2
 20 -5 12 7 12 18 c 0
EndSplineSet
Validated: 1
EndChar

StartChar: N
Encoding: 78 78 150
Width: 722
VWidth: 1000
Flags: W
HStem: -5 45<20.0176 101.392 165.697 251.993> 645 45<32.0176 103.908 144 249 484.018 570.303 633.28 706.993>
VStem: 107 52<46.8167 552> 577 52<66 193 278 638.303> 589 40<-23.8549 -15>
LayerCount: 2
Fore
SplineSet
584 66 m 1xe0
 584 193 l 1
 249 645 l 1
 144 645 l 1
 148 641 151 637 155 633 c 2
 584 66 l 1xe0
20 18 m 0
 20 27 26 37 40 40 c 2
 41 40 l 2
 101 40 107 54 107 112 c 2
 107 612 l 2
 108 616 109 617 108 618 c 0
 94 635 74 645 53 645 c 0
 40 645 32 657 32 668 c 0
 32 677 38 687 52 690 c 2
 262 690 l 2
 268 690 273 687 278 682 c 2
 278 681 l 1
 577 278 l 1
 577 573 l 2
 577 634 566 645 505 645 c 0
 492 645 484 657 484 668 c 0
 484 677 490 687 504 690 c 2
 686 690 l 2
 699 690 707 678 707 668 c 0
 707 654 697 647 687 645 c 2
 686 645 l 2
 629 645 629 626 629 573 c 2xf0
 629 -3 l 2
 629 -16 617 -24 607 -24 c 0
 598 -24 594 -21 589 -16 c 2
 589 -15 l 1xe8
 159 552 l 1
 159 112 l 2
 159 51 170 40 231 40 c 0
 244 40 252 28 252 18 c 0
 252 4 242 -3 232 -5 c 2
 41 -5 l 2
 28 -5 20 7 20 18 c 0
144 645 m 1
EndSplineSet
Validated: 1
EndChar

StartChar: O
Encoding: 79 79 151
Width: 777
VWidth: 1000
Flags: W
HStem: -24 45<311.182 466.818> 664 45<311.182 466.818>
VStem: 28 45<215.714 469.661> 169 45<161.341 523.719> 564 45<159.998 524.927> 705 45<215.714 469.661>
LayerCount: 2
Fore
SplineSet
542 55 m 1
 654 109 705 220 705 343 c 0
 705 465 654 576 542 630 c 1
 600 552 609 432 609 343 c 0
 609 253 600 133 542 55 c 1
236 55 m 1
 178 133 169 253 169 343 c 0
 169 432 178 552 236 630 c 1
 124 576 73 465 73 343 c 0
 73 220 124 109 236 55 c 1
389 21 m 0
 529 21 564 185 564 342 c 0
 564 500 529 664 389 664 c 0
 249 664 214 500 214 344 c 2
 214 343 l 2
 214 185 249 21 389 21 c 0
28 343 m 0
 28 560 171 709 389 709 c 0
 607 709 750 560 750 343 c 0
 750 125 607 -24 389 -24 c 0
 171 -24 28 125 28 343 c 0
EndSplineSet
Validated: 1
EndChar

StartChar: P
Encoding: 80 80 152
Width: 611
VWidth: 1000
Flags: W
HStem: -5 45<11.0176 92.117 133 229 269.891 355.993> 303 45<267 387.174> 645 45<11.0176 91.9062 133 231 270.189 390.935>
VStem: 94 45<42.397 642.603> 222 45<43.1877 303 348 638.668> 422 45<384.909 612.934> 559 45<425.579 571.985>
LayerCount: 2
Fore
SplineSet
438 360 m 1
 504 380 559 423 559 496 c 0
 559 573 511 615 442 633 c 1
 466 592 467 540 467 496 c 0
 467 457 465 402 438 360 c 1
267 348 m 1
 317 348 l 2
 411 348 422 417 422 496 c 0
 422 584 416 645 318 645 c 0
 295 645 267 633 267 610 c 2
 267 348 l 1
133 40 m 1
 229 40 l 1
 223 57 222 74 222 92 c 2
 222 612 l 2
 222 624 225 635 231 645 c 1
 133 645 l 1
 139 628 139 610 139 593 c 2
 139 92 l 2
 139 75 139 57 133 40 c 1
11 18 m 0
 11 27 17 37 31 40 c 2
 31 40 34 40 35 40 c 0
 89 40 94 41 94 94 c 2
 94 593 l 2
 94 645 86 645 32 645 c 0
 19 645 11 657 11 668 c 0
 11 677 17 687 31 690 c 2
 338 690 l 2
 462 690 604 649 604 496 c 0
 604 353 454 302 336 302 c 2
 335 302 l 2
 323 302 311 302 299 303 c 2
 267 303 l 1
 267 92 l 2
 267 40 280 40 335 40 c 0
 348 40 356 28 356 18 c 0
 356 4 346 -3 336 -5 c 2
 32 -5 l 2
 19 -5 11 7 11 18 c 0
EndSplineSet
Validated: 1
EndChar

StartChar: Q
Encoding: 81 81 153
Width: 777
VWidth: 1000
Flags: W
HStem: -184 45<445.216 555.834> -24 45<334.431 445.72> 664 45<311.182 466.818>
VStem: 28 45<214.866 469.661> 169 45<161.341 523.719> 564 45<159.998 524.927> 705 45<212.332 469.661>
LayerCount: 2
Fore
SplineSet
542 55 m 1
 654 109 705 220 705 343 c 0
 705 465 654 576 542 630 c 1
 600 552 609 432 609 343 c 0
 609 253 600 133 542 55 c 1
236 55 m 1
 178 133 169 253 169 343 c 0
 169 432 178 552 236 630 c 1
 124 576 73 465 73 343 c 0
 73 220 124 109 236 55 c 1
389 21 m 0
 529 21 564 185 564 342 c 0
 564 500 529 664 389 664 c 0
 249 664 214 500 214 344 c 2
 214 343 l 2
 214 185 249 21 389 21 c 0
332 -20 m 1
 376 -93 458 -139 545 -139 c 0
 549 -139 553 -139 558 -139 c 1
 506 -116 463 -73 440 -21 c 1
 423 -23 406 -24 389 -24 c 0
 370 -24 351 -22 332 -20 c 1
28 343 m 0
 28 560 171 709 389 709 c 0
 607 709 750 560 750 343 c 0
 750 169 658 28 485 -12 c 1
 516 -73 581 -112 650 -112 c 0
 670 -112 702 -103 715 -103 c 0
 727 -103 737 -113 737 -126 c 0
 737 -171 554 -184 545 -184 c 0
 429 -184 321 -114 275 -8 c 1
 110 38 28 177 28 343 c 0
EndSplineSet
Validated: 1
EndChar

StartChar: R
Encoding: 82 82 154
Width: 722
VWidth: 1000
Flags: W
HStem: -5 45<11.0176 97.3828 138 235 275.891 361.993 528 610 653.175 707.993> 309 45<273 301 354 411.11> 645 45<11.0176 97.1094 138 237 276.296 407.662>
VStem: 100 45<42.3907 641.812> 228 45<43.1877 309 354 638.782> 452 45<393.554 603.471> 589 45<422.934 565.979>
LayerCount: 2
Fore
SplineSet
472 370 m 1
 542 387 589 419 589 499 c 0
 589 575 527 613 466 631 c 1
 493 591 497 539 497 499 c 0
 497 462 497 409 472 370 c 1
273 354 m 1
 402 354 452 358 452 499 c 0
 452 596 427 645 325 645 c 0
 302 645 273 634 273 610 c 2
 273 354 l 1
528 40 m 1
 610 40 l 1
 537 114 468 228 412 315 c 1
 393 313 375 311 354 310 c 1
 528 40 l 1
138 40 m 1
 235 40 l 1
 229 57 228 74 228 92 c 2
 228 612 l 2
 228 624 231 635 237 645 c 1
 138 645 l 1
 144 628 145 611 145 593 c 2
 145 92 l 2
 145 74 144 57 138 40 c 1
11 18 m 0
 11 27 17 37 31 40 c 2
 31 40 34 40 35 40 c 0
 91 40 100 40 100 94 c 2
 100 593 l 2
 100 645 87 645 32 645 c 0
 19 645 11 657 11 668 c 0
 11 677 17 687 31 690 c 2
 363 690 l 2
 478 690 634 643 634 499 c 0
 634 387 559 340 461 321 c 1
 509 246 641 40 687 40 c 0
 700 40 708 28 708 18 c 0
 708 4 698 -3 688 -5 c 2
 514 -5 l 2
 508 -5 503 -2 498 3 c 2
 498 4 l 1
 301 309 l 1
 273 309 l 1
 273 92 l 2
 273 40 286 40 341 40 c 0
 354 40 362 28 362 18 c 0
 362 4 352 -3 342 -5 c 2
 32 -5 l 2
 19 -5 11 7 11 18 c 0
EndSplineSet
Validated: 1
EndChar

StartChar: S
Encoding: 83 83 155
Width: 555
VWidth: 1000
Flags: W
HStem: -17 45<186.556 354.969> 664 45<190.754 334.556>
VStem: 24 45<434.649 590.166> 32 45<48 91 141.523 244.988> 108 45<516.187 625.52> 389 45<72.4142 200.105> 442 45<481.015 557.688 606 644> 491 45<116.931 269.935>
LayerCount: 2
Fore
SplineSet
442 606 m 1xcf
 442 644 l 1
 433 641 424 638 415 637 c 1
 425 627 433 617 442 606 c 1xcf
235 339 m 0
 319 304 434 247 434 136 c 0
 434 114 432 92 424 71 c 1
 465 99 491 141 491 192 c 0
 491 283 412 349 331 381 c 0
 257 410 108 460 108 565 c 0
 108 586 112 607 120 626 c 1
 83 596 69 549 69 500 c 0xef
 69 416 163 369 235 339 c 0
32 5 m 2xdf
 32 215 l 2
 32 229 37 245 55 245 c 0
 68 245 77 233 77 222 c 2
 77 214 l 2xdf
 77 130 174 28 260 28 c 0
 340 28 389 50 389 136 c 0
 389 221 291 266 219 296 c 0
 134 331 24 390 24 500 c 0xef
 24 645 123 709 259 709 c 0
 288 709 315 704 342 694 c 0
 361 687 380 681 401 681 c 0
 402 681 402 681 403 681 c 0
 438 681 447 708 464 709 c 0
 465 709 l 0
 475 709 487 701 487 688 c 2
 487 503 l 2
 487 490 476 481 465 481 c 0
 456 481 445 486 443 498 c 0
 431 578 339 664 259 664 c 0
 199 664 153 628 153 565 c 0
 153 494 277 451 347 424 c 0
 444 386 536 304 536 192 c 0
 536 41 385 -17 259 -17 c 0
 231 -17 202 -13 176 -2 c 0
 158 5 139 11 118 11 c 0
 117 11 117 11 116 11 c 0
 83 11 74 -12 59 -16 c 0
 58 -16 56 -17 55 -17 c 0
 44 -17 32 -8 32 5 c 2xdf
107 56 m 1
107 56 m 1
 96 67 86 79 77 91 c 1
 77 48 l 1
 87 52 97 55 107 56 c 1
EndSplineSet
Validated: 1
EndChar

StartChar: T
Encoding: 84 84 156
Width: 666
VWidth: 1000
Flags: W
HStem: -5 45<150.018 242.933 286 382 423.859 516.993> 645 45<73 112 163.48 247 292 375 420 504.238 555 595>
VStem: 28 45<475.009 484 496 565.67 611 645> 247 45<44.0546 644> 375 45<44.3545 644> 595 45<475.007 565.67 610 645>
LayerCount: 2
Fore
SplineSet
73 611 m 1
 84 624 98 635 112 645 c 1
 73 645 l 1
 73 611 l 1
555 645 m 1
 570 635 583 623 595 610 c 1
 595 645 l 1
 555 645 l 1
286 40 m 1
 382 40 l 1
 376 57 375 74 375 92 c 2
 375 645 l 1
 292 645 l 1
 292 92 l 2
 292 75 292 57 286 40 c 1
170 40 m 2
 171 40 l 2
 230 40 247 40 247 94 c 2
 247 644 l 1
 166 642 73 583 73 497 c 2
 73 496 l 1
 68 484 l 1
 68 483 l 2
 63 478 57 475 50 475 c 0
 38 475 28 484 28 497 c 2
 28 669 l 2
 28 673 29 686 48 690 c 2
 619 690 l 2
 631 690 640 677 640 669 c 2
 640 497 l 2
 640 484 628 475 617 475 c 0
 605 475 595 484 595 497 c 0
 595 583 502 642 420 644 c 1
 420 92 l 2
 420 40 439 40 496 40 c 0
 509 40 517 28 517 18 c 0
 517 4 507 -3 497 -5 c 2
 171 -5 l 2
 158 -5 150 7 150 18 c 0
 150 27 156 37 170 40 c 2
EndSplineSet
Validated: 1
EndChar

StartChar: U
Encoding: 85 85 157
Width: 722
VWidth: 1000
Flags: W
HStem: -24 52<274.255 480.335> 645 45<11.0176 91.9062 133 224 266.526 355.993 485.018 547.347 587 611 650.653 712.993>
VStem: 94 45<119.889 642.603> 218 45<87.7692 641.781> 573 52<130.469 617.42>
LayerCount: 2
Fore
SplineSet
599 623 m 1
 602 631 606 638 611 645 c 1
 587 645 l 1
 592 638 596 631 599 623 c 1
266 33 m 1
 224 83 218 157 218 223 c 2
 218 593 l 2
 218 610 218 628 224 645 c 1
 133 645 l 1
 139 628 139 610 139 593 c 2
 139 225 l 2
 139 131 176 60 266 33 c 1
94 593 m 2
 94 645 86 645 32 645 c 0
 19 645 11 657 11 668 c 0
 11 677 17 687 31 690 c 2
 335 690 l 2
 348 690 356 678 356 668 c 0
 356 654 346 647 336 645 c 2
 335 645 l 2
 277 645 263 645 263 591 c 2
 263 225 l 2
 263 131 273 28 389 28 c 0
 536 28 573 142 573 253 c 2
 573 517 l 2
 573 566 561 645 506 645 c 0
 493 645 485 657 485 668 c 0
 485 677 491 687 505 690 c 2
 692 690 l 2
 705 690 713 678 713 668 c 0
 713 654 703 647 693 645 c 2
 692 645 l 2
 637 645 625 566 625 517 c 2
 625 251 l 2
 625 82 533 -24 361 -24 c 0
 202 -24 94 56 94 223 c 2
 94 593 l 2
EndSplineSet
Validated: 1
EndChar

StartChar: V
Encoding: 86 86 158
Width: 722
VWidth: 1000
Flags: W
HStem: 645 45<-4.99199 54.6552 94 217 257.148 333.982 488.007 541.256 581 617 657.151 724.982>
VStem: 209 45<536.848 628.616> 545 45<589 642.737>
LayerCount: 2
Fore
SplineSet
590 589 m 2
 602 620 l 2
 606 629 612 637 617 645 c 1
 581 645 l 1
 588 629 590 611 590 593 c 0
 590 592 590 590 590 589 c 2
368 55 m 1
 400 133 l 1
 357 219 209 551 209 620 c 0
 209 630 212 638 217 645 c 1
 94 645 l 1
 104 631 112 616 119 601 c 2
 368 55 l 1
77 583 m 2
 63 613 47 645 16 645 c 2
 15 645 l 1
 6 647 -5 655 -5 668 c 0
 -5 677 3 690 16 690 c 2
 314 690 l 1
 328 687 334 677 334 668 c 0
 334 657 326 645 313 645 c 0
 291 645 270 636 255 621 c 0
 254 620 254 619 254 618 c 0
 256 554 375 295 420 197 c 1
 466 305 545 492 545 593 c 0
 545 625 538 645 509 645 c 2
 508 645 l 1
 498 647 488 654 488 668 c 0
 488 678 496 690 509 690 c 2
 705 690 l 1
 719 687 725 677 725 668 c 0
 725 657 717 645 704 645 c 0
 676 645 655 627 644 602 c 1
 389 -11 l 2
 386 -20 377 -24 368 -24 c 0
 359 -24 351 -19 347 -11 c 2
 77 583 l 2
EndSplineSet
Validated: 1
EndChar

StartChar: W
Encoding: 87 87 159
Width: 1000
VWidth: 1000
Flags: W
HStem: 645 45<3.00729 51.9969 91 194 236.47 291.982 378.007 434.725 474 587 627.183 695.982 779.007 835.899 875 908 948.068 996.982>
VStem: 191 45<521.697 642.64> 582 45<522.767 638.597> 842 155<531.5 672.5>
LayerCount: 2
Fore
SplineSet
887 591 m 1,0,-1
699 63 m 1,1,-1
 732 156 l 1,2,-1
 732 157 l 2,3,-1
 732 157 732 159 731 160 c 0,6,-1
 701 237 582 534 582 622 c 0,9,-1
 582 631 583 638 587 645 c 1,12,-1
 474 645 l 1,13,-1
 482 633 489 619 494 606 c 2,16,-1
 699 63 l 1,1,-1
302 60 m 1,17,-1
 339 143 l 1,18,-1
 301 251 191 540 191 626 c 0,21,-1
 191 629 190 637 193 643 c 0,24,-1
 193 644 194 644 194 645 c 2,27,-1
 91 645 l 1,28,-1
 100 630 106 614 111 599 c 2,31,-1
 302 60 l 1,17,-1
67 586 m 2,32,-1
 60 604 50 645 24 645 c 2,35,-1
 23 645 l 1,36,-1
 13 647 3 654 3 668 c 0,39,-1
 3 678 11 690 24 690 c 2,42,-1
 272 690 l 1,43,-1
 286 687 292 677 292 668 c 0,46,-1
 292 657 284 645 271 645 c 0,49,-1
 258 645 246 638 236 627 c 1,52,-1
 236 626 l 2,53,-1
 236 558 326 312 364 206 c 1,56,-1
 489 492 l 1,57,-1
 451 590 l 2,58,-1
 440 617 426 645 399 645 c 2,61,-1
 398 645 l 1,62,-1
 388 647 378 654 378 668 c 0,65,-1
 378 678 386 690 399 690 c 2,68,-1
 676 690 l 1,69,-1
 690 687 696 677 696 668 c 0,72,-1
 696 657 688 645 675 645 c 0,75,-1
 660 645 628 632 627 622 c 2,78,-1
 627 557 714 328 752 230 c 1,81,-1
 787 329 842 483 842 580 c 0,84,-1
 842 619 834 645 800 645 c 2,87,-1
 799 645 l 1,88,-1
 789 647 779 654 779 668 c 0,91,-1
 779 678 787 690 800 690 c 2,94,-1
 977 690 l 1,95,-1
 991 687 997 677 997 668 c 0,98,-1
 997 657 989 645 976 645 c 0,101,-1
 957 645 948 625 940 605 c 2,104,-1
 722 -8 l 2,105,-1
 719 -16 711 -24 700 -24 c 0,108,-1
 691 -24 683 -19 678 -8 c 2,111,-1
 513 430 l 1,112,-1
 321 -11 l 2,113,-1
 317 -19 309 -24 300 -24 c 0,116,-1
 291 -24 283 -19 278 -8 c 2,119,-1
 67 586 l 2,32,-1
887 591 m 1,120,-1
 896 618 l 2,121,-1
 899 628 903 636 908 645 c 1,124,-1
 875 645 l 1,125,-1
 883 628 886 609 887 591 c 1,120,-1
EndSplineSet
Validated: 1
EndChar

StartChar: X
Encoding: 88 88 160
Width: 722
VWidth: 1000
Flags: W
HStem: -5 45<13.008 79.8756 124 169 208.033 261.993 366.008 453.151 500 616 667.331 709.993> 645 45<17.0176 68.7129 119 232 279.705 350.993 421.018 471.447 511 554 602.688 697.992>
LayerCount: 2
Fore
SplineSet
519 615 m 1
 530 626 542 636 554 645 c 1
 511 645 l 1
 515 635 518 625 519 615 c 1
500 40 m 2
124 40 m 1
 169 40 l 1
 164 50 160 61 159 73 c 1
 148 62 136 51 124 40 c 1
13 18 m 0
 13 30 24 38 33 40 c 2
 34 40 l 2
 75 40 138 117 178 162 c 2
 302 302 l 1
 299 307 296 312 293 317 c 0
 220 426 105 596 69 633 c 0
 63 640 49 645 38 645 c 0
 25 645 17 657 17 668 c 0
 17 677 23 687 37 690 c 2
 330 690 l 2
 343 690 351 678 351 668 c 0
 351 654 341 647 331 645 c 2
 330 645 l 2
 312 645 294 644 279 636 c 1
 293 595 349 511 385 458 c 1
 456 551 l 2
 468 566 475 583 475 602 c 0
 475 625 464 645 442 645 c 0
 429 645 421 657 421 668 c 0
 421 677 427 687 441 690 c 2
 677 690 l 2
 690 690 698 677 698 668 c 0
 698 655 687 647 678 645 c 2
 677 645 l 2
 601 645 546 582 501 524 c 2
 415 412 l 1
 441 373 l 2
 516 261 634 84 667 48 c 1
 674 43 685 40 689 40 c 0
 702 40 710 28 710 18 c 0
 710 4 700 -3 690 -5 c 2
 387 -5 l 2
 375 -5 366 7 366 18 c 0
 366 30 377 38 386 40 c 2
 387 40 l 2
 411 40 436 40 454 51 c 1
 440 98 361 213 331 258 c 1
 224 135 l 2
 212 121 203 103 203 85 c 0
 203 62 218 40 241 40 c 0
 254 40 262 28 262 18 c 0
 262 4 252 -3 242 -5 c 2
 34 -5 l 2
 22 -5 13 7 13 18 c 0
500 40 m 1
 616 40 l 1
 545 133 232 590 232 643 c 0
 232 644 232 644 232 645 c 2
 119 645 l 1
 191 553 501 102 501 46 c 0
 501 45 500 42 500 40 c 1
EndSplineSet
Validated: 1
EndChar

StartChar: Y
Encoding: 89 89 161
Width: 722
VWidth: 1000
Flags: W
HStem: -5 45<182.018 270.805 311 412 452.553 540.993> 645 45<14.0176 71.7493 111 214 259.047 311.993 478.018 545.255 585 614 655.783 707.993>
VStem: 275 45<44.3237 262> 403 45<44.3237 291>
LayerCount: 2
Fore
SplineSet
597 622 m 1
 603 630 608 638 614 645 c 1
 585 645 l 1
 590 638 594 630 597 622 c 1
311 40 m 1
 412 40 l 1
 403 63 403 87 403 110 c 2
 403 287 l 2
 403 288 401 290 401 291 c 2
 239 581 l 2
 229 599 214 620 214 643 c 0
 214 644 214 644 214 645 c 2
 111 645 l 1
 120 631 128 616 135 603 c 2
 317 278 l 2
 318 275 320 272 320 268 c 2
 320 110 l 2
 320 87 320 63 311 40 c 1
202 40 m 2
 202 40 205 40 206 40 c 0
 271 40 275 46 275 112 c 2
 275 262 l 1
 97 580 l 2
 88 595 77 615 67 630 c 0
 58 644 54 645 35 645 c 0
 22 645 14 657 14 668 c 0
 14 677 20 687 34 690 c 2
 291 690 l 2
 304 690 312 678 312 668 c 0
 312 654 302 647 292 645 c 2
 292 645 289 645 288 645 c 0
 280 645 271 645 264 643 c 2
 263 643 l 2
 262 643 l 0
 261 643 l 0
 261 643 260 643 259 642 c 1
 260 631 269 617 277 603 c 2
 422 345 l 1
 549 549 l 2
 555 559 559 572 559 584 c 0
 559 617 532 645 499 645 c 0
 486 645 478 657 478 668 c 0
 478 677 484 687 498 690 c 2
 687 690 l 2
 700 690 708 678 708 668 c 0
 708 654 698 647 688 645 c 2
 687 645 l 2
 662 645 618 575 587 525 c 2
 448 302 l 1
 448 110 l 2
 448 43 455 40 520 40 c 0
 533 40 541 28 541 18 c 0
 541 4 531 -3 521 -5 c 2
 203 -5 l 2
 190 -5 182 7 182 18 c 0
 182 27 188 37 202 40 c 2
EndSplineSet
Validated: 1
EndChar

StartChar: Z
Encoding: 90 90 162
Width: 666
VWidth: 1000
Flags: W
HStem: -5 45<86 176 229 464.781 522 571> 645 45<117 150 208.872 404 457 547>
LayerCount: 2
Fore
SplineSet
114 618 m 1
 125 628 137 637 150 645 c 1
 117 645 l 1
 114 618 l 1
522 40 m 1
 571 40 l 1
 577 86 l 1
 561 68 542 53 522 40 c 1
86 40 m 1
 176 40 l 1
 547 645 l 1
 457 645 l 1
 86 40 l 1
23 18 m 0
 23 22 25 26 27 30 c 2
 404 645 l 1
 335 645 l 2
 238 645 116 611 102 501 c 2
 101 496 93 484 80 484 c 0
 67 484 57 495 57 508 c 2
 75 670 l 2
 76 679 81 687 95 690 c 2
 589 690 l 2
 602 690 610 678 610 668 c 0
 610 663 608 660 607 657 c 2
 229 40 l 1
 365 40 l 2
 477 40 579 114 596 228 c 0
 598 239 607 248 619 248 c 0
 632 248 641 235 641 225 c 2
 613 16 l 2
 612 7 607 -2 593 -5 c 2
 44 -5 l 2
 31 -5 23 7 23 18 c 0
EndSplineSet
Validated: 1
EndChar

StartChar: subsetornotdbleql
Encoding: 10955 10955 163
Width: 799
VWidth: 1000
Flags: W
HStem: -198 53<81.4469 256 371 716.618> 5 53<81.4469 427 542 716.618> 260 53<281.412 716.618> 760 53<275.906 716.618>
VStem: 81 53<440.409 633.055>
LayerCount: 2
Fore
SplineSet
397 813 m 2
 693 813 l 1
 694 813 l 2
 706 811 717 801 717 787 c 0
 717 772 706 762 694 760 c 2
 693 760 l 1
 401 760 l 2
 258 760 134 682 134 537 c 0
 134 391 258 313 401 313 c 2
 693 313 l 1
 694 313 l 2
 706 311 717 301 717 287 c 0
 717 272 706 262 694 260 c 2
 693 260 l 1
 397 260 l 2
 227 260 81 364 81 537 c 0
 81 709 227 813 397 813 c 2
178 -291 m 6
 256 -198 l 5
 106 -198 l 5
 105 -198 l 6
 92 -196 81 -186 81 -172 c 4
 81 -156 94 -147 105 -145 c 6
 106 -145 l 5
 301 -145 l 5
 427 5 l 5
 106 5 l 5
 105 5 l 6
 92 7 81 17 81 31 c 4
 81 47 94 56 105 58 c 6
 106 58 l 5
 473 58 l 5
 579 185 l 6
 584 190 592 193 599 193 c 4
 612 193 625 181 625 167 c 4
 625 157 622 153 620 151 c 6
 542 58 l 5
 693 58 l 5
 694 58 l 6
 706 56 717 46 717 31 c 4
 717 17 706 7 694 5 c 6
 693 5 l 5
 497 5 l 5
 371 -145 l 5
 693 -145 l 5
 694 -145 l 6
 706 -147 717 -157 717 -172 c 4
 717 -186 706 -196 694 -198 c 6
 693 -198 l 5
 325 -198 l 5
 219 -324 l 6
 214 -330 206 -333 200 -333 c 4
 185 -333 173 -321 173 -306 c 4
 173 -301 174 -295 178 -291 c 6
EndSplineSet
EndChar

StartChar: supersetornotdbleql
Encoding: 10956 10956 164
Width: 799
VWidth: 1000
Flags: W
HStem: -198 53<81.4469 256 371 716.618> 5 53<81.4469 427 542 716.618> 260 53<81.4469 516.588> 760 53<81.4469 522.094>
VStem: 664 53<440.409 633.055>
LayerCount: 2
Fore
SplineSet
81 287 m 0
 81 301 92 311 105 313 c 2
 106 313 l 1
 397 313 l 2
 540 313 664 391 664 537 c 0
 664 682 540 760 397 760 c 2
 106 760 l 1
 105 760 l 2
 94 762 81 771 81 787 c 0
 81 801 92 811 105 813 c 2
 106 813 l 1
 401 813 l 2
 571 813 717 709 717 537 c 0
 717 364 571 260 401 260 c 2
 106 260 l 1
 105 260 l 2
 94 262 81 271 81 287 c 0
180 -288 m 6
 256 -198 l 5
 106 -198 l 5
 105 -198 l 6
 92 -196 81 -186 81 -172 c 4
 81 -156 94 -147 105 -145 c 6
 106 -145 l 5
 301 -145 l 5
 427 5 l 5
 106 5 l 5
 105 5 l 6
 92 7 81 17 81 31 c 4
 81 47 94 56 105 58 c 6
 106 58 l 5
 473 58 l 5
 580 185 l 6
 582 188 588 193 599 193 c 4
 612 193 625 181 625 167 c 4
 625 156 619 150 618 149 c 6
 542 58 l 5
 693 58 l 5
 694 58 l 6
 706 56 717 46 717 31 c 4
 717 17 706 7 694 5 c 6
 693 5 l 5
 497 5 l 5
 371 -145 l 5
 693 -145 l 5
 694 -145 l 6
 706 -147 717 -157 717 -172 c 4
 717 -186 706 -196 694 -198 c 6
 693 -198 l 5
 325 -198 l 5
 219 -325 l 6
 212 -332 204 -333 200 -333 c 4
 185 -333 173 -321 173 -306 c 4
 173 -300 176 -294 180 -288 c 6
EndSplineSet
EndChar

StartChar: precedenotdbleql
Encoding: 10933 10933 165
Width: 799
VWidth: 1000
Flags: W
HStem: -197 53<81.4469 243 365 716.618> 6 53<81.4469 433 555 716.618> 446 53<81.4469 325.811>
VStem: 664 53<166.453 260.463 685.244 778.618>
LayerCount: 2
Fore
SplineSet
81 473 m 0
 81 487 92 497 105 499 c 2
 106 499 l 1
 296 499 640 517 664 756 c 1
 666 768 676 779 691 779 c 0
 707 779 717 765 717 751 c 2
 717 750 l 1
 699 572 544 503 405 473 c 1
 543 443 699 374 717 196 c 1
 717 195 l 1
 717 179 707 166 691 166 c 0
 675 166 665 179 664 190 c 0
 639 428 296 446 106 446 c 2
 105 446 l 2
 94 448 81 457 81 473 c 0
185 -259 m 2
 243 -197 l 1
 106 -197 l 1
 105 -197 l 2
 92 -195 81 -185 81 -171 c 0
 81 -155 94 -146 105 -144 c 2
 106 -144 l 1
 293 -144 l 1
 433 6 l 1
 106 6 l 1
 105 6 l 2
 94 8 81 17 81 33 c 0
 81 47 92 57 105 59 c 2
 106 59 l 1
 482 59 l 1
 574 158 l 2
 581 165 589 166 593 166 c 0
 608 166 620 154 620 139 c 0
 620 135 620 128 613 121 c 2
 555 59 l 1
 693 59 l 1
 694 59 l 2
 706 57 717 47 717 33 c 0
 717 18 706 8 694 6 c 2
 693 6 l 1
 505 6 l 1
 365 -144 l 1
 693 -144 l 1
 694 -144 l 2
 706 -146 717 -156 717 -171 c 0
 717 -185 706 -195 694 -197 c 2
 693 -197 l 1
 316 -197 l 1
 224 -296 l 2
 217 -303 209 -304 205 -304 c 0
 190 -304 178 -292 178 -277 c 0
 178 -273 178 -266 185 -259 c 2
EndSplineSet
Validated: 1
EndChar

StartChar: follownotdbleql
Encoding: 10934 10934 166
Width: 799
VWidth: 1000
Flags: W
HStem: -197 53<81.4469 243 365 716.618> 6 53<81.4469 433 555 716.618> 446 53<472.276 716.618>
VStem: 81 53<166.453 260.463 685.244 778.548>
LayerCount: 2
Fore
SplineSet
81 195 m 2
 81 196 l 1
 99 374 255 443 393 473 c 1
 245 505 98 580 81 750 c 1
 81 751 l 1
 81 766 92 779 108 779 c 0
 122 779 132 768 134 756 c 1
 158 517 502 499 693 499 c 2
 694 499 l 2
 706 497 717 487 717 473 c 0
 717 458 706 448 694 446 c 2
 693 446 l 1
 502 446 158 428 134 190 c 1
 132 177 122 166 108 166 c 0
 92 166 81 179 81 195 c 2
185 -259 m 2
 243 -197 l 1
 106 -197 l 1
 105 -197 l 2
 92 -195 81 -185 81 -171 c 0
 81 -155 94 -146 105 -144 c 2
 106 -144 l 1
 293 -144 l 1
 433 6 l 1
 106 6 l 1
 105 6 l 2
 94 8 81 17 81 33 c 0
 81 47 92 57 105 59 c 2
 106 59 l 1
 482 59 l 1
 574 157 l 2
 578 161 586 166 593 166 c 0
 608 166 620 154 620 139 c 0
 620 135 620 128 613 121 c 2
 555 59 l 1
 693 59 l 1
 694 59 l 2
 706 57 717 47 717 33 c 0
 717 18 706 8 694 6 c 2
 693 6 l 1
 505 6 l 1
 365 -144 l 1
 693 -144 l 1
 694 -144 l 2
 706 -146 717 -156 717 -171 c 0
 717 -185 706 -195 694 -197 c 2
 693 -197 l 1
 316 -197 l 1
 224 -295 l 2
 220 -299 212 -304 205 -304 c 0
 190 -304 178 -292 178 -277 c 0
 178 -273 178 -266 185 -259 c 2
EndSplineSet
Validated: 1
EndChar

StartChar: precedenotapprox
Encoding: 10937 10937 167
Width: 799
VWidth: 1000
Flags: W
HStem: -257 71<484.113 649.65> -114 70<148.35 313.8> -14 71<484.2 649.65> 129 71<148.35 314.055> 517 53<81.4469 321.822>
VStem: 52 40<-253.712 -169.448 -10.7122 73.5515> 498 50<228 243.716> 664 53<268.453 357.527 730.179 818.618> 706 40<-130.876 -47.2863 112.448 196.712>
LayerCount: 2
Fore
SplineSet
81 544 m 0xff
 81 558 92 568 105 570 c 2
 106 570 l 1
 288 570 637 572 664 796 c 0
 665 808 676 819 691 819 c 0
 707 819 717 805 717 791 c 2
 717 790 l 2
 698 632 568 570 448 544 c 1
 566 517 699 456 717 298 c 2
 717 297 l 1
 717 281 707 268 691 268 c 0
 675 268 665 281 664 292 c 0
 637 515 288 517 106 517 c 2
 105 517 l 2
 94 519 81 528 81 544 c 0xff
52 -227 m 2
 52 -226 l 1
 52 -218 l 2
 52 -119 131 -44 228 -44 c 0
 270 -44 309 -58 345 -78 c 1
 409 49 l 1
 354 86 295 129 228 129 c 0
 164 129 92 86 92 17 c 2
 92 16 l 2
 91 10 89 -5 81 -11 c 0
 78 -13 75 -14 72 -14 c 0
 71 -14 67 -14 63 -11 c 0
 59 -8 54 -1 52 16 c 2
 52 17 l 1
 52 25 l 2
 52 124 131 200 228 200 c 0
 309 200 376 145 436 106 c 1
 498 228 l 2
 501 235 507 244 522 244 c 0
 536 244 548 233 548 218 c 1
 548 218 548 212 547 209 c 1
 546 208 l 2
 483 79 l 1
 511 66 540 57 570 57 c 0
 634 57 706 100 706 169 c 2
 706 170 l 2xfe80
 707 176 709 191 717 197 c 0xff
 720 199 723 200 726 200 c 0
 727 200 731 200 735 197 c 0
 739 194 744 187 746 170 c 2
 746 169 l 1
 746 161 l 2
 746 62 667 -14 570 -14 c 0
 528 -14 489 1 453 21 c 1
 389 -106 l 1
 445 -143 503 -186 570 -186 c 0
 634 -186 706 -143 706 -75 c 2
 706 -74 l 2xfe80
 707 -66 709 -53 717 -47 c 0xff
 718 -46 722 -44 726 -44 c 0
 727 -44 731 -44 735 -47 c 0
 743 -53 745 -66 746 -74 c 2
 746 -75 l 1
 746 -83 l 2xfe80
 746 -181 667 -257 570 -257 c 0
 489 -257 422 -202 362 -163 c 1
 300 -285 l 2
 297 -292 291 -301 276 -301 c 0
 262 -301 250 -290 250 -275 c 1
 250 -275 250 -269 251 -266 c 2
 251 -266 251 -267 252 -265 c 2
 315 -136 l 1
 287 -123 258 -114 228 -114 c 0
 164 -114 92 -157 92 -226 c 2
 92 -227 l 2
 91 -233 89 -248 81 -254 c 0
 78 -256 75 -257 72 -257 c 0
 71 -257 67 -257 63 -254 c 0
 59 -251 54 -244 52 -227 c 2
EndSplineSet
EndChar

StartChar: follownotapprox
Encoding: 10938 10938 168
Width: 799
VWidth: 1000
Flags: W
HStem: -257 71<484.113 649.65> -114 70<148.35 313.8> -14 71<484.2 649.65> 129 71<148.35 314.055> 517 53<476.482 716.618>
VStem: 52 40<-253.712 -169.448 -10.7122 73.5515> 81 53<268.453 357.527 730.179 818.548> 498 50<228 243.716> 706 40<-130.876 -47.2863 112.448 196.712>
LayerCount: 2
Fore
SplineSet
81 297 m 2xfb80
 81 298 l 2
 99 456 232 516 351 544 c 1
 231 570 99 632 81 790 c 2
 81 791 l 1
 81 806 92 819 108 819 c 0
 122 819 133 808 134 796 c 0
 161 572 510 570 693 570 c 2
 694 570 l 2
 706 568 717 558 717 544 c 0
 717 529 706 519 694 517 c 2
 693 517 l 1
 510 517 161 515 134 292 c 0
 132 279 122 268 108 268 c 0
 92 268 81 281 81 297 c 2xfb80
52 -227 m 6xfd80
 52 -226 l 5
 52 -218 l 6
 52 -119 131 -44 228 -44 c 4
 270 -44 309 -58 345 -78 c 5
 409 49 l 5
 354 86 295 129 228 129 c 4
 164 129 92 86 92 17 c 6
 92 16 l 6xfd80
 91 10 89 -5 81 -11 c 4xfb80
 78 -13 75 -14 72 -14 c 4
 71 -14 67 -14 63 -11 c 4
 59 -8 54 -1 52 16 c 6
 52 17 l 5
 52 25 l 6
 52 124 131 200 228 200 c 4
 309 200 376 145 436 106 c 5
 498 228 l 6
 501 235 507 244 522 244 c 4
 536 244 548 233 548 218 c 5
 548 218 548 212 547 209 c 5
 546 208 l 6
 483 79 l 5
 511 66 540 57 570 57 c 4
 634 57 706 100 706 169 c 6
 706 170 l 6
 707 176 709 191 717 197 c 4
 720 199 723 200 726 200 c 4
 727 200 731 200 735 197 c 4
 739 194 744 187 746 170 c 6
 746 169 l 5
 746 161 l 6
 746 62 667 -14 570 -14 c 4
 528 -14 489 1 453 21 c 5
 389 -106 l 5
 445 -143 503 -186 570 -186 c 4
 634 -186 706 -143 706 -75 c 6
 706 -74 l 6
 707 -66 709 -53 717 -47 c 4
 718 -46 722 -44 726 -44 c 4
 727 -44 731 -44 735 -47 c 4
 743 -53 745 -66 746 -74 c 6
 746 -75 l 5
 746 -83 l 6
 746 -181 667 -257 570 -257 c 4
 489 -257 422 -202 362 -163 c 5
 300 -285 l 6
 297 -292 291 -301 276 -301 c 4
 262 -301 250 -290 250 -275 c 5
 250 -275 250 -269 251 -266 c 6
 251 -266 251 -267 252 -265 c 6
 315 -136 l 5
 287 -123 258 -114 228 -114 c 4
 164 -114 92 -157 92 -226 c 6
 92 -227 l 6xfd80
 91 -233 89 -248 81 -254 c 4xfb80
 78 -256 75 -257 72 -257 c 4
 71 -257 67 -257 63 -254 c 4
 59 -251 54 -244 52 -227 c 6xfd80
EndSplineSet
EndChar

StartChar: lessnotdbleql
Encoding: 8808 8808 169
Width: 799
VWidth: 1000
Flags: W
HStem: -197 53<81.4469 243 365 716.618> 6 53<81.4469 433 555 716.618> 166 49<704 716.567> 728 51<701 716.668>
LayerCount: 2
Fore
SplineSet
81 473 m 0
 81 484 89 492 98 497 c 2
 681 777 l 2
 684 778 687 779 689 779 c 0
 691 779 l 0
 704 779 717 767 717 753 c 0
 717 741 710 732 701 728 c 2
 169 473 l 1
 704 215 l 2
 712 211 717 202 717 193 c 0
 717 178 705 166 691 166 c 2
 690 166 l 2
 689 166 687 166 686 166 c 0
 684 166 682 167 680 169 c 2
 95 449 l 2
 86 453 81 463 81 473 c 0
185 -259 m 2
 243 -197 l 1
 106 -197 l 1
 105 -197 l 2
 92 -195 81 -185 81 -171 c 0
 81 -155 94 -146 105 -144 c 2
 106 -144 l 1
 293 -144 l 1
 433 6 l 1
 106 6 l 1
 105 6 l 2
 94 8 81 17 81 33 c 0
 81 47 92 57 105 59 c 2
 106 59 l 1
 482 59 l 1
 574 158 l 2
 581 165 589 166 593 166 c 0
 608 166 620 154 620 139 c 0
 620 135 620 128 613 121 c 2
 555 59 l 1
 693 59 l 1
 694 59 l 2
 706 57 717 47 717 33 c 0
 717 18 706 8 694 6 c 2
 693 6 l 1
 505 6 l 1
 365 -144 l 1
 693 -144 l 1
 694 -144 l 2
 706 -146 717 -156 717 -171 c 0
 717 -185 706 -195 694 -197 c 2
 693 -197 l 1
 316 -197 l 1
 224 -296 l 2
 217 -303 209 -304 205 -304 c 0
 190 -304 178 -292 178 -277 c 0
 178 -273 178 -266 185 -259 c 2
EndSplineSet
Validated: 1
EndChar

StartChar: greaternotdbleql
Encoding: 8809 8809 170
Width: 799
VWidth: 1000
Flags: W
HStem: -197 53<81.4469 243 365 716.618> 6 53<81.4469 433 555 716.618> 166 51<81.4551 98> 729 50<81.309 95>
LayerCount: 2
Fore
SplineSet
98 217 m 2
 629 473 l 1
 95 729 l 2
 86 733 81 743 81 753 c 0
 81 767 93 779 108 779 c 0
 111 779 114 779 118 778 c 2
 704 495 l 2
 712 491 717 482 717 473 c 0
 717 461 710 452 701 448 c 2
 118 169 l 2
 114 166 110 166 108 166 c 0
 93 166 81 178 81 193 c 0
 81 204 89 212 98 217 c 2
185 -259 m 2
 243 -197 l 1
 106 -197 l 1
 105 -197 l 2
 92 -195 81 -185 81 -171 c 0
 81 -155 94 -146 105 -144 c 2
 106 -144 l 1
 293 -144 l 1
 433 6 l 1
 106 6 l 1
 105 6 l 2
 94 8 81 17 81 33 c 0
 81 47 92 57 105 59 c 2
 106 59 l 1
 482 59 l 1
 574 157 l 2
 578 161 586 166 593 166 c 0
 608 166 620 154 620 139 c 0
 620 135 620 128 613 121 c 2
 555 59 l 1
 693 59 l 1
 694 59 l 2
 706 57 717 47 717 33 c 0
 717 18 706 8 694 6 c 2
 693 6 l 1
 505 6 l 1
 365 -144 l 1
 693 -144 l 1
 694 -144 l 2
 706 -146 717 -156 717 -171 c 0
 717 -185 706 -195 694 -197 c 2
 693 -197 l 1
 316 -197 l 1
 224 -295 l 2
 220 -299 212 -304 205 -304 c 0
 190 -304 178 -292 178 -277 c 0
 178 -273 178 -266 185 -259 c 2
EndSplineSet
Validated: 1
EndChar

StartChar: notprecede
Encoding: 8832 8832 171
Width: 799
VWidth: 1000
Flags: W
HStem: 223 53<81.4469 328.634>
VStem: 604 49<715 726.665> 664 53<-56.6424 41.6395 455.684 555.547>
LayerCount: 2
Fore
SplineSet
147 -191 m 2
 347 206 l 1
 269 219 187 223 106 223 c 2
 105 223 l 2
 94 225 81 234 81 250 c 0
 81 264 92 274 105 276 c 2
 106 276 l 1
 202 276 301 281 396 301 c 1
 604 715 l 1
 605 717 613 727 627 727 c 0
 640 727 653 715 653 701 c 1
 653 701 653 695 652 692 c 1
 651 691 l 2
 464 320 l 1
 567 354 652 418 664 532 c 0
 665 543 675 556 691 556 c 0
 707 556 717 543 717 527 c 2
 717 526 l 1
 709 451 673 386 614 339 c 0
 593 322 571 309 547 297 c 0
 526 287 504 277 481 270 c 1
 466 264 449 260 432 255 c 0
 428 254 430 254 429 254 c 0
 429 253 428 249 426 244 c 1
 568 209 700 135 717 -28 c 1
 717 -29 l 1
 717 -43 707 -57 691 -57 c 0
 677 -57 665 -47 664 -34 c 0
 649 105 526 168 402 196 c 1
 194 -214 l 1
 194 -215 l 1
 193 -217 185 -227 171 -227 c 0
 158 -227 145 -215 145 -201 c 1
 145 -201 145 -195 146 -192 c 2
 146 -192 146 -193 147 -191 c 2
EndSplineSet
Validated: 1
EndChar

StartChar: notfollow
Encoding: 8833 8833 172
Width: 799
VWidth: 1000
Flags: W
HStem: 223 53<473.766 716.618>
VStem: 81 53<-56.5478 42.5679 457.193 555.547> 604 49<715 726.665>
LayerCount: 2
Fore
SplineSet
147 -191 m 2
 333 179 l 1
 202 135 144 57 134 -34 c 0
 133 -45 124 -57 108 -57 c 0
 92 -57 81 -44 81 -29 c 2
 81 -28 l 1
 89 47 126 113 185 160 c 0
 205 176 228 190 252 202 c 0
 273 212 295 222 318 230 c 0
 334 235 351 239 367 244 c 2
 368 244 l 0
 368 246 370 250 372 255 c 1
 229 289 97 365 81 527 c 1
 81 543 92 556 108 556 c 0
 122 556 133 545 134 532 c 0
 145 431 214 344 396 303 c 1
 604 715 l 1
 605 717 613 727 627 727 c 0
 640 727 653 715 653 701 c 1
 653 701 653 695 652 692 c 1
 651 691 l 2
 451 293 l 1
 528 280 612 276 693 276 c 2
 694 276 l 2
 706 274 717 264 717 250 c 0
 717 235 706 225 694 223 c 2
 693 223 l 1
 595 223 497 218 402 198 c 1
 194 -214 l 1
 194 -215 l 1
 193 -217 185 -227 171 -227 c 0
 158 -227 145 -215 145 -201 c 1
 145 -201 145 -195 146 -192 c 2
 146 -192 146 -193 147 -191 c 2
EndSplineSet
Validated: 1
EndChar

StartChar: followsim
Encoding: 8831 8831 173
Width: 818
Flags: W
HStem: -252 72<503.108 656.335> -74 72<161.093 313.892> 430 54<494.637 733.319>
VStem: 53 41<-248.666 -145.907> 83 54<143.681 240.484 674.222 770.321> 723 41<-108.093 -5.28706>
LayerCount: 2
Fore
SplineSet
137 168 m 1xec
 135 155 124 143 109 143 c 0
 92 143 83 158 83 173 c 1
 101 355 262 427 402 458 c 1
 259 489 101 561 83 742 c 1
 83 756 93 771 109 771 c 0
 124 771 135 759 137 747 c 1
 162 501 513 484 708 484 c 2
 709 484 l 2
 722 482 734 472 734 458 c 0
 734 443 722 432 709 430 c 2
 708 430 l 1
 514 430 162 413 137 168 c 1xec
53 -221 m 2xf4
 53 -220 l 1
 53 -212 l 2
 53 -110 121 -2 233 -2 c 0
 379 -2 448 -180 584 -180 c 0
 663 -180 723 -111 723 -34 c 2
 723 -33 l 2
 724 -25 726 -11 734 -5 c 0
 735 -4 739 -2 743 -2 c 0
 746 -2 748 -2 751 -4 c 0
 760 -10 763 -24 764 -33 c 2
 764 -34 l 1
 764 -42 l 2
 764 -143 697 -252 584 -252 c 0
 438 -252 369 -74 233 -74 c 0
 155 -74 94 -143 94 -220 c 2
 94 -221 l 2xf4
 93 -227 91 -242 83 -249 c 0xec
 82 -250 78 -252 74 -252 c 0
 73 -252 70 -253 66 -250 c 0
 61 -247 55 -239 53 -221 c 2xf4
EndSplineSet
Validated: 1
EndChar

StartChar: precedenotsim
Encoding: 8936 8936 174
Width: 799
VWidth: 1000
Flags: W
HStem: -156 70<490.732 640.585> 18 70<157.843 307.018> 480 53<81.4469 326.245>
VStem: 52 40<-152.712 -52.6154> 664 53<230.453 316.177 695.826 782.618> 706 40<-15.3846 84.7137>
LayerCount: 2
Fore
SplineSet
81 507 m 0xf8
 81 521 92 531 105 533 c 2
 106 533 l 1
 297 533 642 556 664 760 c 1
 666 772 676 783 691 783 c 0
 707 783 717 769 717 755 c 2
 717 754 l 1
 702 605 545 537 406 507 c 1
 543 477 700 406 717 260 c 1
 717 259 l 1
 717 243 707 230 691 230 c 0
 675 230 665 243 664 254 c 0
 641 464 296 480 106 480 c 2
 105 480 l 2
 94 482 81 491 81 507 c 0xf8
52 -126 m 2
 52 -125 l 1
 52 -117 l 2
 52 -17 119 88 228 88 c 0
 293 88 347 50 393 11 c 1
 499 203 l 2
 504 210 512 215 522 215 c 0
 536 215 548 204 548 189 c 0
 548 183 546 178 544 175 c 2
 434 -25 l 1
 474 -57 518 -86 570 -86 c 0
 647 -86 706 -18 706 57 c 2
 706 58 l 2xf4
 707 66 709 79 717 85 c 0xf8
 718 86 722 88 726 88 c 0
 727 88 731 88 735 85 c 0
 743 79 745 66 746 58 c 2
 746 57 l 1
 746 49 l 2xf4
 746 -50 680 -156 570 -156 c 0
 504 -156 451 -117 404 -78 c 1
 299 -270 l 2
 294 -277 286 -282 276 -282 c 0
 262 -282 250 -271 250 -256 c 0
 250 -250 252 -245 254 -242 c 2
 364 -43 l 1
 324 -11 280 18 228 18 c 0
 152 18 92 -50 92 -125 c 2
 92 -126 l 2
 91 -132 89 -147 81 -153 c 0
 78 -155 75 -156 72 -156 c 0
 71 -156 67 -156 63 -153 c 0
 59 -150 54 -143 52 -126 c 2
EndSplineSet
EndChar

StartChar: follownotsim
Encoding: 8937 8937 175
Width: 799
VWidth: 1000
Flags: W
HStem: -156 70<490.732 640.585> 18 70<157.843 307.018> 484 53<471.625 716.618>
VStem: 52 40<-152.712 -52.6154> 81 53<234.453 326.74 694.259 786.548> 706 40<-15.3846 84.7137>
LayerCount: 2
Fore
SplineSet
52 -126 m 2xf4
 52 -125 l 1
 52 -117 l 2
 52 -17 119 88 228 88 c 0
 293 88 347 50 393 11 c 1
 499 203 l 2
 504 210 512 215 522 215 c 0
 536 215 548 204 548 189 c 0
 548 183 546 178 544 175 c 2
 434 -25 l 1
 474 -57 518 -86 570 -86 c 0
 647 -86 706 -18 706 57 c 2
 706 58 l 2
 707 66 709 79 717 85 c 0
 718 86 722 88 726 88 c 0
 727 88 731 88 735 85 c 0
 743 79 745 66 746 58 c 2
 746 57 l 1
 746 49 l 2
 746 -50 680 -156 570 -156 c 0
 504 -156 451 -117 404 -78 c 1
 299 -270 l 2
 294 -277 286 -282 276 -282 c 0
 262 -282 250 -271 250 -256 c 0
 250 -250 252 -245 254 -242 c 2
 364 -43 l 1
 324 -11 280 18 228 18 c 0
 152 18 92 -50 92 -125 c 2
 92 -126 l 2xf4
 91 -132 89 -147 81 -153 c 0xec
 78 -155 75 -156 72 -156 c 0
 71 -156 67 -156 63 -153 c 0
 59 -150 54 -143 52 -126 c 2xf4
81 263 m 2xec
 81 264 l 1
 95 409 255 481 392 511 c 1
 253 541 97 610 81 758 c 1
 81 759 l 1
 81 774 92 787 108 787 c 0
 122 787 132 776 134 764 c 1
 155 550 502 537 693 537 c 2
 694 537 l 2
 706 535 717 525 717 511 c 0
 717 496 706 486 694 484 c 2
 693 484 l 1
 501 484 155 469 134 258 c 1
 132 245 122 234 108 234 c 0
 92 234 81 247 81 263 c 2xec
EndSplineSet
EndChar

StartChar: lessnotsim
Encoding: 8934 8934 176
Width: 799
VWidth: 1000
Flags: W
HStem: -156 70<490.732 640.585> 18 70<157.843 307.018> 230 49<704 716.567> 732 51<701 716.668>
VStem: 52 40<-152.712 -52.6154> 706 40<-15.3846 84.7137>
LayerCount: 2
Fore
SplineSet
81 507 m 0
 81 518 89 526 98 531 c 2
 681 781 l 2
 684 782 687 783 689 783 c 0
 691 783 l 0
 704 783 717 771 717 757 c 0
 717 745 710 736 701 732 c 2
 169 507 l 1
 704 279 l 2
 712 275 717 266 717 257 c 0
 717 242 705 230 691 230 c 2
 690 230 l 2
 689 230 687 230 686 230 c 0
 684 230 682 231 680 233 c 2
 95 483 l 2
 86 487 81 497 81 507 c 0
52 -126 m 6
 52 -125 l 5
 52 -117 l 6
 52 -17 119 88 228 88 c 4
 293 88 347 50 393 11 c 5
 499 203 l 6
 504 210 512 215 522 215 c 4
 536 215 548 204 548 189 c 4
 548 183 546 178 544 175 c 6
 434 -25 l 5
 474 -57 518 -86 570 -86 c 4
 647 -86 706 -18 706 57 c 6
 706 58 l 6
 707 66 709 79 717 85 c 4
 718 86 722 88 726 88 c 4
 727 88 731 88 735 85 c 4
 743 79 745 66 746 58 c 6
 746 57 l 5
 746 49 l 6
 746 -50 680 -156 570 -156 c 4
 504 -156 451 -117 404 -78 c 5
 299 -270 l 6
 294 -277 286 -282 276 -282 c 4
 262 -282 250 -271 250 -256 c 4
 250 -250 252 -245 254 -242 c 6
 364 -43 l 5
 324 -11 280 18 228 18 c 4
 152 18 92 -50 92 -125 c 6
 92 -126 l 6
 91 -132 89 -147 81 -153 c 4
 78 -155 75 -156 72 -156 c 4
 71 -156 67 -156 63 -153 c 4
 59 -150 54 -143 52 -126 c 6
EndSplineSet
EndChar

StartChar: greaternotsim
Encoding: 8935 8935 177
Width: 799
VWidth: 1000
Flags: W
HStem: -156 70<490.732 640.585> 18 70<157.843 307.018> 234 51<81.4551 98> 737 50<81.309 95>
VStem: 52 40<-152.712 -52.6154> 706 40<-15.3846 84.7137>
LayerCount: 2
Fore
SplineSet
52 -126 m 6
 52 -125 l 5
 52 -117 l 6
 52 -17 119 88 228 88 c 4
 293 88 347 50 393 11 c 5
 499 203 l 6
 504 210 512 215 522 215 c 4
 536 215 548 204 548 189 c 4
 548 183 546 178 544 175 c 6
 434 -25 l 5
 474 -57 518 -86 570 -86 c 4
 647 -86 706 -18 706 57 c 6
 706 58 l 6
 707 66 709 79 717 85 c 4
 718 86 722 88 726 88 c 4
 727 88 731 88 735 85 c 4
 743 79 745 66 746 58 c 6
 746 57 l 5
 746 49 l 6
 746 -50 680 -156 570 -156 c 4
 504 -156 451 -117 404 -78 c 5
 299 -270 l 6
 294 -277 286 -282 276 -282 c 4
 262 -282 250 -271 250 -256 c 4
 250 -250 252 -245 254 -242 c 6
 364 -43 l 5
 324 -11 280 18 228 18 c 4
 152 18 92 -50 92 -125 c 6
 92 -126 l 6
 91 -132 89 -147 81 -153 c 4
 78 -155 75 -156 72 -156 c 4
 71 -156 67 -156 63 -153 c 4
 59 -150 54 -143 52 -126 c 6
98 285 m 2
 629 511 l 1
 95 737 l 2
 86 741 81 751 81 761 c 0
 81 775 93 787 108 787 c 0
 111 787 114 788 118 786 c 2
 704 533 l 2
 712 529 717 520 717 511 c 0
 717 499 710 490 701 486 c 2
 118 237 l 2
 114 234 110 234 108 234 c 0
 93 234 81 246 81 261 c 0
 81 272 89 280 98 285 c 2
EndSplineSet
EndChar

StartChar: notlesseql
Encoding: 8816 8816 178
Width: 799
VWidth: 1000
Flags: W
HStem: -159 53<81.4469 202 280 716.586> 44 49<704 716.692> 606 51<701 716.548>
VStem: 145 51<-327.65 -312> 602 51<812 827.65>
LayerCount: 2
Fore
SplineSet
169 350 m 1
 371 253 l 1
 471 496 l 1
 169 350 l 1
146 -292 m 2
 202 -159 l 1
 106 -159 l 1
 105 -159 l 2
 93 -157 81 -148 81 -133 c 0
 81 -117 94 -108 105 -106 c 2
 106 -106 l 1
 224 -106 l 1
 352 204 l 1
 95 327 l 2
 83 332 81 345 81 350 c 0
 81 361 89 369 98 374 c 2
 502 569 l 1
 602 812 l 2
 606 822 616 828 627 828 c 0
 640 828 653 816 653 802 c 0
 653 801 653 796 652 793 c 1
 652 792 l 2
 574 603 l 1
 681 654 l 2
 684 655 687 657 691 657 c 0
 705 657 717 645 717 630 c 0
 717 619 709 611 701 606 c 2
 544 530 l 1
 419 229 l 1
 704 93 l 2
 712 89 717 79 717 70 c 0
 717 55 705 44 691 44 c 0
 690 44 685 44 682 45 c 0
 682 45 682 46 681 46 c 2
 400 181 l 1
 280 -106 l 1
 694 -106 l 1
 705 -109 717 -118 717 -133 c 0
 717 -149 705 -157 694 -159 c 2
 693 -159 l 1
 258 -159 l 1
 196 -312 l 2
 192 -322 182 -328 171 -328 c 0
 158 -328 145 -316 145 -302 c 0
 145 -301 145 -296 146 -293 c 1
 146 -293 145 -294 146 -292 c 2
EndSplineSet
Validated: 1
EndChar

StartChar: notgreatereql
Encoding: 8817 8817 179
Width: 799
VWidth: 1000
Flags: W
HStem: -159 53<81.4236 202 280 716.586> 44 50<81.3329 95> 606 51<81.4551 98>
VStem: 145 51<-327.65 -312> 602 51<812 827.65>
LayerCount: 2
Fore
SplineSet
430 254 m 1
 629 350 l 1
 496 414 l 1
 430 254 l 1
146 -292 m 2
 202 -159 l 1
 106 -159 l 1
 105 -159 l 2
 93 -157 81 -148 81 -133 c 0
 81 -122 88 -111 105 -106 c 2
 224 -106 l 1
 327 147 l 1
 118 46 l 1
 118 45 l 1
 114 44 110 44 108 44 c 0
 94 44 81 55 81 70 c 0
 81 79 87 91 95 94 c 2
 358 220 l 1
 448 438 l 1
 98 606 l 2
 89 611 81 619 81 630 c 0
 81 645 93 657 108 657 c 0
 110 657 112 657 118 655 c 2
 468 487 l 1
 602 812 l 2
 606 822 616 828 627 828 c 0
 640 828 653 816 653 802 c 0
 653 801 653 796 652 793 c 1
 652 792 l 2
 515 463 l 1
 701 374 l 2
 709 369 717 361 717 350 c 0
 717 341 712 332 704 328 c 2
 399 181 l 1
 280 -106 l 1
 693 -106 l 1
 694 -106 l 2
 706 -108 717 -118 717 -133 c 0
 717 -149 705 -157 694 -159 c 2
 693 -159 l 1
 258 -159 l 1
 196 -312 l 2
 192 -322 182 -328 171 -328 c 0
 158 -328 145 -316 145 -302 c 0
 145 -301 145 -296 146 -293 c 1
 146 -293 145 -294 146 -292 c 2
EndSplineSet
Validated: 1
EndChar

StartChar: notless
Encoding: 8814 8814 180
Width: 799
VWidth: 1000
Flags: W
HStem: -57 51<701 716.682> 507 49<704 716.668>
VStem: 604 49<715 726.716>
LayerCount: 2
Fore
SplineSet
169 250 m 1
 330 172 l 1
 433 376 l 1
 169 250 l 1
147 -191 m 2
 306 125 l 1
 98 225 l 2
 91 228 81 235 81 250 c 0
 81 255 83 268 95 273 c 2
 472 454 l 1
 604 715 l 1
 605 717 613 727 627 727 c 0
 641 727 653 716 653 701 c 0
 653 700 653 695 652 692 c 1
 651 691 l 2
 551 492 l 1
 681 554 l 2
 685 556 689 556 691 556 c 0
 704 556 717 544 717 530 c 0
 717 521 712 511 704 507 c 2
 512 414 l 1
 378 149 l 1
 701 -6 l 2
 710 -10 717 -19 717 -31 c 0
 717 -44 705 -57 691 -57 c 0
 690 -57 685 -57 682 -56 c 0
 682 -56 682 -55 681 -55 c 2
 354 101 l 1
 194 -215 l 1
 193 -217 185 -227 171 -227 c 0
 157 -227 145 -216 145 -201 c 0
 145 -200 145 -195 146 -192 c 2
 146 -192 146 -193 147 -191 c 2
EndSplineSet
Validated: 1
EndChar

StartChar: notgreater
Encoding: 8815 8815 181
Width: 799
VWidth: 1000
Flags: W
HStem: -57 51<81.309 98> 506 50<81.309 95>
VStem: 145 49<-226.716 -214> 604 49<714 726.716>
LayerCount: 2
Fore
SplineSet
364 122 m 1
 629 250 l 1
 467 327 l 1
 364 122 l 1
149 -187 m 2
 247 7 l 1
 118 -56 l 1
 114 -57 110 -57 108 -57 c 0
 93 -57 81 -45 81 -31 c 0
 81 -16 91 -9 98 -6 c 2
 285 85 l 1
 420 350 l 1
 95 506 l 2
 86 510 81 520 81 530 c 0
 81 544 93 556 108 556 c 0
 111 556 114 556 118 555 c 2
 444 398 l 1
 604 714 l 1
 604 715 l 1
 605 717 613 727 627 727 c 0
 641 727 653 716 653 701 c 0
 653 696 651 691 649 688 c 2
 492 374 l 1
 704 272 l 2
 712 268 717 259 717 250 c 0
 717 238 710 229 701 225 c 2
 325 44 l 1
 194 -214 l 1
 194 -215 l 1
 193 -217 185 -227 171 -227 c 0
 157 -227 145 -216 145 -201 c 0
 145 -196 147 -190 149 -187 c 2
EndSplineSet
Validated: 1
EndChar

StartChar: difference
Encoding: 8783 8783 182
Width: 818
Flags: W
HStem: 125 54<53.4482 763.553> 333 54<53.7323 258.019 559.006 763.27> 464 54<346.874 470.849>
LayerCount: 2
Fore
SplineSet
53 359 m 0
 53 374 66 384 78 387 c 2
 253 387 l 1
 266 461 332 518 409 518 c 0
 486 518 551 461 564 387 c 1
 740 387 l 1
 751 384 764 374 764 359 c 0
 764 344 751 335 740 333 c 2
 739 333 l 1
 538 333 l 2
 524 333 515 346 513 356 c 2
 513 357 l 2
 513 414 467 464 409 464 c 0
 351 464 304 414 304 357 c 0
 304 342 291 335 281 333 c 2
 79 333 l 1
 78 333 l 2
 66 335 53 344 53 359 c 0
53 152 m 0
 53 167 66 176 78 179 c 2
 740 179 l 1
 751 176 764 167 764 152 c 0
 764 137 752 127 740 125 c 2
 739 125 l 1
 79 125 l 1
 78 125 l 2
 65 127 53 137 53 152 c 0
EndSplineSet
Validated: 1
EndChar

StartChar: approx
Encoding: 8776 8776 183
Width: 799
VWidth: 1000
Flags: W
HStem: 43 90<478.384 653.424> 166 90<144.797 319.616> 286 90<478.384 653.424> 409 90<144.797 319.616>
VStem: 52 44<46.3844 122.079 289.384 365.079> 702 44<174.357 252.616 417.357 495.616>
LayerCount: 2
Fore
SplineSet
52 325 m 2
 52 338 l 2
 52 438 135 499 228 499 c 0
 357 499 446 376 570 376 c 0
 619 376 702 407 702 461 c 0
 702 468 705 488 715 496 c 0
 715 496 719 499 724 499 c 0
 727 499 729 498 731 497 c 0
 742 492 746 473 746 461 c 2
 746 448 l 2
 746 347 664 286 570 286 c 0
 441 286 352 409 228 409 c 0
 179 409 96 378 96 325 c 0
 96 318 92 297 82 289 c 0
 82 289 79 286 74 286 c 0
 70 286 69 286 68 287 c 0
 54 294 52 321 52 325 c 2
52 82 m 2
 52 95 l 2
 52 195 135 256 228 256 c 0
 357 256 446 133 570 133 c 0
 619 133 702 164 702 218 c 0
 702 225 705 245 715 253 c 0
 715 253 719 256 724 256 c 0
 727 256 729 255 731 254 c 0
 742 249 746 230 746 218 c 2
 746 205 l 2
 746 104 664 43 570 43 c 0
 441 43 352 166 228 166 c 0
 179 166 96 135 96 82 c 0
 96 75 92 54 82 46 c 0
 82 46 79 43 74 43 c 0
 70 43 69 43 68 44 c 0
 54 51 52 78 52 82 c 2
EndSplineSet
Validated: 1
EndChar

StartChar: simeqq
Encoding: 8773 8773 184
Width: 799
VWidth: 1000
Flags: W
HStem: -10 53<52.498 745.618> 193 53<52.498 745.618> 388 70<486.097 649.65> 528 73<155.99 320.152>
VStem: 52 40<391.288 471.12> 706 40<513.892 597.712>
LayerCount: 2
Fore
SplineSet
77 43 m 1
 722 43 l 1
 723 43 l 2
 735 41 746 31 746 17 c 0
 746 2 735 -8 723 -10 c 2
 722 -10 l 1
 76 -10 l 1
 59 -5 52 6 52 17 c 0
 52 31 63 41 76 43 c 2
 77 43 l 1
77 246 m 1
 722 246 l 1
 723 246 l 2
 735 244 746 234 746 220 c 0
 746 205 735 195 723 193 c 2
 722 193 l 1
 76 193 l 1
 59 198 52 209 52 220 c 0
 52 234 63 244 76 246 c 2
 77 246 l 1
241 528 m 0
 176 528 92 486 92 419 c 2
 92 418 l 2
 91 412 89 397 81 391 c 0
 78 389 75 388 72 388 c 0
 71 388 67 388 63 391 c 0
 59 394 54 401 52 418 c 2
 52 419 l 1
 52 427 l 2
 52 525 131 601 228 601 c 0
 336 601 408 511 500 473 c 0
 535 459 560 458 570 458 c 0
 634 458 706 502 706 570 c 2
 706 571 l 2
 707 577 709 592 717 598 c 0
 720 600 723 601 726 601 c 0
 727 601 731 601 735 598 c 0
 739 595 744 588 746 571 c 2
 746 570 l 1
 746 562 l 2
 746 463 667 388 570 388 c 0
 544 388 500 400 485 408 c 0
 401 451 321 528 241 528 c 0
EndSplineSet
Validated: 1
EndChar

StartChar: notsimdbleql
Encoding: 8775 8775 185
Width: 799
VWidth: 1000
Flags: W
HStem: -10 53<52.498 221 312 745.618> 193 53<52.498 336 428 745.618> 388 70<548.43 649.65> 531 70<148.35 314.747>
VStem: 52 40<391.288 475.108> 706 40<513.892 597.712>
LayerCount: 2
Fore
SplineSet
149 -137 m 2
 221 -10 l 1
 76 -10 l 1
 59 -5 52 6 52 17 c 0
 52 31 63 41 76 43 c 2
 77 43 l 1
 251 43 l 1
 336 193 l 1
 76 193 l 1
 59 198 52 209 52 220 c 0
 52 234 63 244 76 246 c 2
 77 246 l 1
 366 246 l 1
 463 417 l 1
 386 457 319 531 228 531 c 0
 164 531 92 487 92 419 c 2
 92 418 l 2
 91 412 89 397 81 391 c 0
 78 389 75 388 72 388 c 0
 71 388 67 388 63 391 c 0
 59 394 54 401 52 418 c 2
 52 419 l 1
 52 427 l 2
 52 525 131 601 228 601 c 0
 334 601 406 513 496 474 c 1
 604 664 l 2
 606 668 613 678 627 678 c 0
 641 678 653 666 653 651 c 0
 653 645 651 640 649 637 c 2
 548 459 l 1
 555 458 563 458 570 458 c 0
 634 458 706 502 706 570 c 2
 706 571 l 2
 707 577 709 592 717 598 c 0
 720 600 723 601 726 601 c 0
 727 601 731 601 735 598 c 0
 739 595 744 588 746 571 c 2
 746 570 l 1
 746 562 l 2
 746 463 667 388 570 388 c 0
 550 388 530 391 512 396 c 1
 428 246 l 1
 722 246 l 1
 723 246 l 2
 735 244 746 234 746 220 c 0
 746 205 735 195 723 193 c 2
 722 193 l 1
 397 193 l 1
 312 43 l 1
 722 43 l 1
 723 43 l 2
 735 41 746 31 746 17 c 0
 746 2 735 -8 723 -10 c 2
 722 -10 l 1
 282 -10 l 1
 194 -164 l 2
 192 -168 185 -178 171 -178 c 0
 157 -178 145 -166 145 -151 c 0
 145 -145 147 -140 149 -137 c 2
EndSplineSet
Validated: 1
EndChar

StartChar: lessnotapprox
Encoding: 10889 10889 186
Width: 799
VWidth: 1000
Flags: W
HStem: -234 71<486.872 654.56> -88 71<144.651 312.278> 14 72<485.659 654.56> 161 71<144.651 312.429> 328 52<701 716.568> 768 51<701 716.668>
VStem: 44 41<-230.712 -145.318 17.3339 103.682> 262 51<-296.68 -280> 485 51<283 299.68> 714 41<-105.328 -20.2863 143.31 228.714>
LayerCount: 2
Fore
SplineSet
81 574 m 0
 81 584 87 594 98 599 c 2
 681 818 l 2
 684 819 687 819 689 819 c 0
 690 819 690 819 691 819 c 0
 704 819 717 807 717 793 c 0
 717 782 711 772 701 768 c 2
 175 574 l 1
 701 380 l 1
 711 375 717 365 717 355 c 0
 717 340 705 328 691 328 c 2
 690 328 l 2
 689 328 687 328 686 328 c 0
 684 328 682 329 680 331 c 1
 98 549 l 2
 87 553 81 563 81 574 c 0
44 -204 m 5
 44 -203 l 5
 44 -195 l 6
 44 -94 125 -17 224 -17 c 4
 270 -17 309 -33 347 -55 c 5
 403 83 l 5
 346 121 292 161 224 161 c 4
 159 161 85 117 85 46 c 6
 85 45 l 5
 84 39 82 24 74 17 c 4
 73 16 69 14 65 14 c 4
 64 14 61 13 57 16 c 4
 52 19 46 27 44 45 c 5
 44 46 l 5
 44 54 l 6
 44 155 125 232 224 232 c 4
 303 232 364 183 427 142 c 5
 485 283 l 6
 489 293 499 300 510 300 c 4
 524 300 536 288 536 273 c 4
 536 269 537 267 535 263 c 6
 474 114 l 5
 505 97 538 86 575 86 c 4
 641 86 714 131 714 201 c 6
 714 202 l 5
 715 210 717 223 725 229 c 4
 726 230 730 232 734 232 c 4
 737 232 738 232 740 231 c 4
 749 227 754 214 755 202 c 5
 755 201 l 5
 755 192 l 6
 755 92 674 14 575 14 c 4
 528 14 487 31 449 54 c 5
 393 -84 l 5
 451 -122 506 -163 575 -163 c 4
 641 -163 714 -118 714 -48 c 6
 714 -47 l 5
 715 -39 717 -26 725 -20 c 4
 726 -19 730 -17 734 -17 c 4
 737 -17 738 -17 740 -18 c 4
 749 -22 754 -35 755 -47 c 5
 755 -48 l 5
 755 -56 l 6
 755 -156 674 -234 575 -234 c 4
 495 -234 433 -184 369 -143 c 5
 313 -280 l 6
 309 -290 299 -297 288 -297 c 4
 274 -297 262 -285 262 -270 c 4
 262 -266 262 -264 263 -260 c 6
 322 -115 l 5
 291 -99 260 -88 224 -88 c 4
 159 -88 85 -132 85 -203 c 6
 85 -204 l 5
 84 -210 82 -225 74 -231 c 4
 71 -233 69 -234 66 -234 c 6
 65 -234 l 6
 62 -234 60 -234 57 -232 c 4
 48 -227 45 -212 44 -204 c 5
EndSplineSet
EndChar

StartChar: greaternotapprox
Encoding: 10890 10890 187
Width: 799
VWidth: 1000
Flags: W
HStem: -234 71<486.872 654.56> -88 71<144.651 312.278> 14 72<485.659 654.56> 161 71<144.651 312.429> 328 52<81.4356 98> 768 51<81.309 98>
VStem: 44 41<-230.712 -145.318 17.3339 103.682> 262 51<-296.68 -280> 485 51<283 299.68> 714 41<-105.328 -20.2863 143.31 228.714>
LayerCount: 2
Fore
SplineSet
44 -204 m 1
 44 -203 l 1
 44 -195 l 2
 44 -94 125 -17 224 -17 c 0
 270 -17 309 -33 347 -55 c 1
 403 83 l 1
 346 121 292 161 224 161 c 0
 159 161 85 117 85 46 c 2
 85 45 l 1
 84 39 82 24 74 17 c 0
 73 16 69 14 65 14 c 0
 64 14 61 13 57 16 c 0
 52 19 46 27 44 45 c 1
 44 46 l 1
 44 54 l 2
 44 155 125 232 224 232 c 0
 303 232 364 183 427 142 c 1
 485 283 l 2
 489 293 499 300 510 300 c 0
 524 300 536 288 536 273 c 0
 536 269 537 267 535 263 c 2
 474 114 l 1
 505 97 538 86 575 86 c 0
 641 86 714 131 714 201 c 2
 714 202 l 1
 715 210 717 223 725 229 c 0
 726 230 730 232 734 232 c 0
 737 232 738 232 740 231 c 0
 749 227 754 214 755 202 c 1
 755 201 l 1
 755 192 l 2
 755 92 674 14 575 14 c 0
 528 14 487 31 449 54 c 1
 393 -84 l 1
 451 -122 506 -163 575 -163 c 0
 641 -163 714 -118 714 -48 c 2
 714 -47 l 1
 715 -39 717 -26 725 -20 c 0
 726 -19 730 -17 734 -17 c 0
 737 -17 738 -17 740 -18 c 0
 749 -22 754 -35 755 -47 c 1
 755 -48 l 1
 755 -56 l 2
 755 -156 674 -234 575 -234 c 0
 495 -234 433 -184 369 -143 c 1
 313 -280 l 2
 309 -290 299 -297 288 -297 c 0
 274 -297 262 -285 262 -270 c 0
 262 -266 262 -264 263 -260 c 2
 322 -115 l 1
 291 -99 260 -88 224 -88 c 0
 159 -88 85 -132 85 -203 c 2
 85 -204 l 1
 84 -210 82 -225 74 -231 c 0
 71 -233 69 -234 66 -234 c 2
 65 -234 l 2
 62 -234 60 -234 57 -232 c 0
 48 -227 45 -212 44 -204 c 1
98 380 m 2
 623 574 l 1
 98 768 l 2
 87 772 81 782 81 793 c 0
 81 807 93 819 108 819 c 0
 111 819 114 819 118 818 c 2
 701 599 l 2
 711 594 717 584 717 574 c 0
 717 563 711 553 701 549 c 2
 118 330 l 2
 114 328 111 328 109 328 c 2
 108 328 l 2
 93 328 81 340 81 355 c 0
 81 365 87 375 98 380 c 2
EndSplineSet
EndChar

StartChar: lessnoteql
Encoding: 10887 10887 188
Width: 799
VWidth: 1000
Flags: W
HStem: -159 53<81.4469 335 463 716.618> -25 20G<495.5 508> 44 49<704 716.567> 606 51<701 716.668>
LayerCount: 2
Fore
SplineSet
81 351 m 0
 81 362 89 370 98 375 c 2
 681 655 l 2
 684 656 687 657 689 657 c 0
 691 657 l 0
 704 657 717 645 717 631 c 0
 717 619 710 610 701 606 c 2
 169 351 l 1
 704 93 l 2
 712 89 717 80 717 71 c 0
 717 56 705 44 691 44 c 0
 690 44 l 0
 689 44 687 44 686 44 c 0
 684 44 682 45 680 47 c 2
 95 327 l 2
 86 331 81 341 81 351 c 0
81 -133 m 0
 81 -117 94 -108 105 -106 c 2
 106 -106 l 1
 388 -106 l 1
 482 -13 l 2
 484 -10 490 -5 501 -5 c 0
 515 -5 527 -16 527 -31 c 0
 527 -35 527 -43 520 -50 c 2
 463 -106 l 1
 693 -106 l 1
 694 -106 l 2
 706 -108 717 -118 717 -133 c 0
 717 -147 706 -157 694 -159 c 2
 693 -159 l 1
 410 -159 l 1
 317 -254 l 1
 316 -254 l 1
 309 -260 302 -261 298 -261 c 0
 283 -261 271 -249 271 -234 c 0
 271 -230 271 -222 278 -215 c 2
 335 -159 l 1
 106 -159 l 1
 105 -159 l 2
 92 -157 81 -147 81 -133 c 0
EndSplineSet
Validated: 1
EndChar

StartChar: greaternoteql
Encoding: 10888 10888 189
Width: 799
VWidth: 1000
Flags: W
HStem: -159 53<81.4469 335 463 716.618> -25 20G<495.5 508> 44 51<81.4551 98> 607 50<81.309 95>
LayerCount: 2
Fore
SplineSet
98 95 m 2
 629 351 l 1
 95 607 l 2
 86 611 81 621 81 631 c 0
 81 645 93 657 108 657 c 0
 111 657 114 657 118 656 c 2
 704 373 l 2
 712 369 717 360 717 351 c 0
 717 339 710 330 701 326 c 2
 118 47 l 2
 114 44 110 44 108 44 c 0
 93 44 81 56 81 71 c 0
 81 82 89 90 98 95 c 2
81 -133 m 0
 81 -117 94 -108 105 -106 c 2
 106 -106 l 1
 388 -106 l 1
 482 -13 l 2
 484 -10 490 -5 501 -5 c 0
 515 -5 527 -16 527 -31 c 0
 527 -38 524 -44 520 -50 c 2
 520 -51 l 1
 463 -106 l 1
 693 -106 l 1
 694 -106 l 2
 706 -108 717 -118 717 -133 c 0
 717 -147 706 -157 694 -159 c 2
 693 -159 l 1
 410 -159 l 1
 317 -254 l 1
 316 -254 l 1
 309 -260 302 -261 298 -261 c 0
 283 -261 271 -249 271 -234 c 0
 271 -223 277 -217 280 -215 c 2
 335 -159 l 1
 106 -159 l 1
 105 -159 l 2
 92 -157 81 -147 81 -133 c 0
EndSplineSet
Validated: 1
EndChar

StartChar: precedeapprox
Encoding: 10935 10935 190
Width: 799
VWidth: 1000
Flags: W
HStem: -257 70<482.534 649.65> -114 70<148.35 315.466> -14 70<482.534 649.65> 129 70<148.35 315.466> 517 53<81.4469 321.822>
VStem: 52 40<-253.712 -169.892 -10.7122 73.1084> 664 53<268.453 357.527 730.179 818.618> 706 40<-131.108 -47.2878 111.892 195.712>
LayerCount: 2
Fore
SplineSet
81 544 m 0xfe
 81 558 92 568 105 570 c 2
 106 570 l 1
 288 570 637 572 664 796 c 0
 665 808 676 819 691 819 c 0
 707 819 717 805 717 791 c 2
 717 790 l 2
 698 632 568 570 448 544 c 1
 566 517 699 456 717 298 c 2
 717 297 l 1
 717 281 707 268 691 268 c 0
 675 268 665 281 664 292 c 0
 637 515 288 517 106 517 c 2
 105 517 l 2
 94 519 81 528 81 544 c 0xfe
52 16 m 2
 52 17 l 1
 52 25 l 2
 52 123 131 199 228 199 c 0
 362 199 443 56 570 56 c 0
 634 56 706 100 706 168 c 2
 706 169 l 2xfd
 707 175 709 190 717 196 c 0xfe
 720 198 723 199 726 199 c 0
 727 199 731 199 735 196 c 0
 739 193 744 186 746 169 c 2
 746 168 l 1
 746 160 l 2xfd
 746 62 667 -14 570 -14 c 0
 436 -14 355 129 228 129 c 0
 164 129 92 85 92 17 c 2
 92 16 l 2
 91 10 89 -5 81 -11 c 0
 78 -13 75 -14 72 -14 c 0
 68 -14 66 -13 63 -11 c 0
 59 -8 54 -1 52 16 c 2
52 -227 m 2
 52 -226 l 1
 52 -218 l 2
 52 -120 131 -44 228 -44 c 0
 362 -44 443 -187 570 -187 c 0
 634 -187 706 -143 706 -75 c 2
 706 -74 l 2xfd
 707 -68 709 -53 717 -47 c 0xfe
 720 -45 723 -44 726 -44 c 0
 727 -44 731 -44 735 -47 c 0
 739 -50 744 -57 746 -74 c 2
 746 -75 l 1
 746 -83 l 2
 746 -181 667 -257 570 -257 c 0
 436 -257 355 -114 228 -114 c 0
 164 -114 92 -158 92 -226 c 2
 92 -227 l 2
 91 -233 89 -248 81 -254 c 0
 78 -256 75 -257 72 -257 c 0
 71 -257 67 -257 63 -254 c 0
 59 -251 54 -244 52 -227 c 2
EndSplineSet
EndChar

StartChar: followapprox
Encoding: 10936 10936 191
Width: 799
VWidth: 1000
Flags: W
HStem: -257 70<482.534 649.65> -114 70<148.35 315.466> -14 70<482.534 649.65> 129 70<148.35 315.466> 517 53<476.482 716.618>
VStem: 52 40<-253.712 -169.892 -10.7122 73.1084> 81 53<268.453 357.527 730.179 818.548> 706 40<-131.108 -47.2878 111.892 195.712>
LayerCount: 2
Fore
SplineSet
81 297 m 2xfb
 81 298 l 2
 99 456 232 516 351 544 c 1
 231 570 99 632 81 790 c 2
 81 791 l 1
 81 806 92 819 108 819 c 0
 122 819 133 808 134 796 c 0
 161 572 510 570 693 570 c 2
 694 570 l 2
 706 568 717 558 717 544 c 0
 717 529 706 519 694 517 c 2
 693 517 l 1
 510 517 161 515 134 292 c 0
 132 279 122 268 108 268 c 0
 92 268 81 281 81 297 c 2xfb
52 16 m 6xfd
 52 17 l 5
 52 25 l 6
 52 123 131 199 228 199 c 4
 362 199 443 56 570 56 c 4
 634 56 706 100 706 168 c 6
 706 169 l 6
 707 175 709 190 717 196 c 4
 720 198 723 199 726 199 c 4
 727 199 731 199 735 196 c 4
 739 193 744 186 746 169 c 6
 746 168 l 5
 746 160 l 6
 746 62 667 -14 570 -14 c 4
 436 -14 355 129 228 129 c 4
 164 129 92 85 92 17 c 6
 92 16 l 6xfd
 91 10 89 -5 81 -11 c 4xfb
 78 -13 75 -14 72 -14 c 4
 68 -14 66 -13 63 -11 c 4
 59 -8 54 -1 52 16 c 6xfd
52 -227 m 6
 52 -226 l 5
 52 -218 l 6
 52 -120 131 -44 228 -44 c 4
 362 -44 443 -187 570 -187 c 4
 634 -187 706 -143 706 -75 c 6
 706 -74 l 6
 707 -68 709 -53 717 -47 c 4
 720 -45 723 -44 726 -44 c 4
 727 -44 731 -44 735 -47 c 4
 739 -50 744 -57 746 -74 c 6
 746 -75 l 5
 746 -83 l 6
 746 -181 667 -257 570 -257 c 4
 436 -257 355 -114 228 -114 c 4
 164 -114 92 -158 92 -226 c 6
 92 -227 l 6xfd
 91 -233 89 -248 81 -254 c 4xfb
 78 -256 75 -257 72 -257 c 4
 71 -257 67 -257 63 -254 c 4
 59 -251 54 -244 52 -227 c 6
EndSplineSet
EndChar

StartChar: notsubseteql
Encoding: 8840 8840 192
Width: 799
VWidth: 1000
Flags: W
HStem: -159 53<103.414 202 280 716.618> 44 53<365 716.618> 604 53<297.399 517 595 716.618>
VStem: 81 53<252.088 451.004> 145 51<-327.65 -312> 602 51<812 827.65>
LayerCount: 2
Fore
SplineSet
313 111 m 1
 517 604 l 1
 401 604 l 2
 258 604 134 496 134 351 c 0
 134 241 209 145 313 111 c 1
146 -292 m 2
 202 -159 l 1
 127 -159 l 1
 126 -159 l 2
 115 -157 103 -149 103 -133 c 0
 103 -119 113 -108 126 -106 c 2
 127 -106 l 1
 224 -106 l 1
 292 62 l 1
 170 103 81 220 81 351 c 0
 81 523 227 657 397 657 c 2
 539 657 l 1
 602 812 l 2
 606 822 616 828 627 828 c 0
 640 828 653 816 653 802 c 0
 653 801 653 796 652 793 c 1
 652 792 l 2
 595 657 l 1
 693 657 l 1
 694 657 l 2
 706 655 717 645 717 631 c 0
 717 616 706 606 694 604 c 2
 693 604 l 1
 574 604 l 1
 365 99 l 1
 377 98 389 97 401 97 c 2
 693 97 l 1
 694 97 l 2
 706 95 717 85 717 71 c 0
 717 56 706 46 694 44 c 2
 693 44 l 1
 397 44 l 2
 379 44 361 45 344 48 c 1
 280 -106 l 1
 693 -106 l 1
 694 -106 l 2
 706 -108 717 -118 717 -133 c 0
 717 -147 706 -157 694 -159 c 2
 693 -159 l 1
 259 -159 l 1
 196 -312 l 2
 192 -322 182 -328 171 -328 c 0
 158 -328 145 -316 145 -302 c 0
 145 -301 145 -296 146 -293 c 1
 146 -293 145 -294 146 -292 c 2
EndSplineSet
Validated: 1
EndChar

StartChar: notsuperseteql
Encoding: 8841 8841 193
Width: 799
VWidth: 1000
Flags: W
HStem: -159 53<81.4469 202 280 695.553> 44 53<81.4469 286 364 500.601> 604 53<81.4469 505.358>
VStem: 145 51<-327.65 -312> 602 51<812 827.65> 664 53<250.46 449.516>
LayerCount: 2
Fore
SplineSet
364 97 m 1
 397 97 l 2
 540 97 664 205 664 351 c 0
 664 433 621 509 554 556 c 1
 364 97 l 1
146 -292 m 2
 202 -159 l 1
 106 -159 l 1
 105 -159 l 2
 92 -157 81 -147 81 -133 c 0
 81 -117 94 -108 105 -106 c 2
 106 -106 l 1
 224 -106 l 1
 286 44 l 1
 106 44 l 1
 105 44 l 2
 94 46 81 55 81 71 c 0
 81 85 92 95 105 97 c 2
 106 97 l 1
 307 97 l 1
 507 582 l 1
 472 596 435 604 397 604 c 2
 106 604 l 1
 105 604 l 2
 94 606 81 615 81 631 c 0
 81 645 92 655 105 657 c 2
 106 657 l 1
 401 657 l 2
 444 657 488 648 527 631 c 1
 602 812 l 2
 606 822 616 828 627 828 c 0
 640 828 653 816 653 802 c 0
 653 801 653 796 652 793 c 1
 652 792 l 2
 575 606 l 1
 661 551 717 454 717 351 c 0
 717 178 571 44 401 44 c 2
 342 44 l 1
 280 -106 l 1
 671 -106 l 1
 672 -106 l 2
 683 -108 696 -117 696 -133 c 0
 696 -147 685 -157 672 -159 c 2
 671 -159 l 1
 259 -159 l 1
 196 -312 l 2
 192 -322 182 -328 171 -328 c 0
 158 -328 145 -316 145 -302 c 0
 145 -301 145 -296 146 -293 c 1
 146 -293 145 -294 146 -292 c 2
EndSplineSet
Validated: 1
EndChar

StartChar: subsetnoteq
Encoding: 8842 8842 194
Width: 799
VWidth: 1000
Flags: W
HStem: -159 53<103.414 330 468 716.618> -25 20G<509 518> 44 53<297.399 716.618> 604 53<297.399 716.618>
VStem: 81 53<250.46 451.004>
LayerCount: 2
Fore
SplineSet
397 657 m 2
 693 657 l 1
 694 657 l 2
 706 655 717 645 717 631 c 0
 717 616 706 606 694 604 c 2
 693 604 l 1
 401 604 l 2
 258 604 134 496 134 351 c 0
 134 205 258 97 401 97 c 2
 693 97 l 1
 694 97 l 2
 706 95 717 85 717 71 c 0
 717 56 706 46 694 44 c 2
 693 44 l 1
 397 44 l 2
 227 44 81 178 81 351 c 0
 81 523 227 657 397 657 c 2
103 -133 m 0
 103 -119 113 -108 126 -106 c 2
 127 -106 l 1
 389 -106 l 1
 493 -12 l 2
 500 -5 507 -5 511 -5 c 0
 525 -5 538 -16 538 -31 c 0
 538 -39 534 -46 529 -51 c 2
 468 -106 l 1
 693 -106 l 1
 694 -106 l 2
 706 -108 717 -118 717 -133 c 0
 717 -147 706 -157 694 -159 c 2
 693 -159 l 1
 409 -159 l 1
 305 -254 l 2
 298 -260 291 -261 287 -261 c 0
 272 -261 260 -249 260 -234 c 0
 260 -223 268 -216 269 -215 c 2
 330 -159 l 1
 127 -159 l 1
 126 -159 l 2
 115 -157 103 -149 103 -133 c 0
EndSplineSet
Validated: 1
EndChar

StartChar: supersetnoteq
Encoding: 8843 8843 195
Width: 799
VWidth: 1000
Flags: W
HStem: -159 53<81.4469 340 458 695.553> -25 20G<487 497.5> 44 53<81.4469 500.601> 604 53<81.4469 500.601>
VStem: 664 53<250.46 451.004>
LayerCount: 2
Fore
SplineSet
81 71 m 0
 81 85 92 95 105 97 c 2
 106 97 l 1
 397 97 l 2
 540 97 664 205 664 351 c 0
 664 496 540 604 397 604 c 2
 106 604 l 1
 105 604 l 2
 94 606 81 615 81 631 c 0
 81 645 92 655 105 657 c 2
 106 657 l 1
 401 657 l 2
 571 657 717 523 717 351 c 0
 717 178 571 44 401 44 c 2
 106 44 l 1
 105 44 l 2
 94 46 81 55 81 71 c 0
81 -133 m 0
 81 -117 94 -108 105 -106 c 2
 106 -106 l 1
 387 -106 l 1
 471 -13 l 2
 475 -7 484 -5 490 -5 c 0
 505 -5 516 -16 516 -31 c 0
 516 -42 510 -48 509 -49 c 2
 458 -106 l 1
 671 -106 l 1
 672 -106 l 2
 683 -108 696 -117 696 -133 c 0
 696 -147 685 -157 672 -159 c 2
 671 -159 l 1
 411 -159 l 1
 327 -253 l 2
 323 -259 314 -261 308 -261 c 0
 293 -261 282 -248 282 -234 c 0
 282 -223 288 -217 289 -216 c 2
 340 -159 l 1
 106 -159 l 1
 105 -159 l 2
 92 -157 81 -147 81 -133 c 0
EndSplineSet
Validated: 1
EndChar

StartChar: notturnstile
Encoding: 8876 8876 196
Width: 628
VWidth: 1000
Flags: W
HStem: -5 21G<-43 -30.5 71 86> 321 53<105 197 316 574.586>
VStem: 52 53<-4.55307 79 218 321 374 698.618>
LayerCount: 2
Fore
SplineSet
105 218 m 1
 197 321 l 1
 105 321 l 1
 105 218 l 1
-55 40 m 2
 52 159 l 1
 52 675 l 1
 52 676 l 2
 54 688 64 699 79 699 c 0
 93 699 103 688 105 676 c 2
 105 675 l 1
 105 374 l 1
 245 374 l 1
 529 691 l 2
 536 698 544 699 548 699 c 0
 563 699 575 687 575 673 c 0
 575 662 569 656 568 655 c 2
 316 374 l 1
 552 374 l 1
 563 371 575 362 575 347 c 0
 575 331 563 323 552 321 c 2
 551 321 l 1
 268 321 l 1
 105 138 l 1
 105 20 l 1
 105 19 l 2
 103 6 93 -5 79 -5 c 0
 63 -5 54 8 52 19 c 2
 52 20 l 1
 52 79 l 1
 -17 3 l 2
 -19 0 -25 -5 -36 -5 c 0
 -50 -5 -62 7 -62 22 c 0
 -62 28 -59 34 -55 40 c 2
EndSplineSet
Validated: 1
EndChar

StartChar: notforces
Encoding: 8878 8878 197
Width: 742
VWidth: 1000
Flags: W
HStem: -5 21G<-43 -30.5 71 86 274 289> 321 53<382 688.618>
VStem: 52 53<-4.55307 67 189 698.618> 255 53<-4.55307 256 380 698.618>
LayerCount: 2
Fore
SplineSet
-54 41 m 2
 52 139 l 1
 52 675 l 1
 52 676 l 2
 54 688 64 699 79 699 c 0
 93 699 103 688 105 676 c 2
 105 675 l 1
 105 189 l 1
 255 329 l 1
 255 675 l 1
 255 676 l 2
 257 688 267 699 282 699 c 0
 296 699 306 688 308 676 c 2
 308 675 l 1
 308 380 l 1
 644 692 l 2
 651 699 658 699 662 699 c 0
 677 699 689 687 689 673 c 0
 689 662 684 656 681 654 c 2
 382 374 l 1
 665 374 l 1
 666 374 l 2
 678 372 689 362 689 348 c 0
 689 333 678 323 666 321 c 2
 665 321 l 1
 325 321 l 1
 308 306 l 1
 308 20 l 1
 308 19 l 2
 306 6 296 -5 282 -5 c 0
 266 -5 257 8 255 19 c 2
 255 20 l 1
 255 256 l 1
 105 116 l 1
 105 20 l 1
 105 19 l 2
 103 6 93 -5 79 -5 c 0
 63 -5 54 8 52 19 c 2
 52 20 l 1
 52 67 l 1
 -18 2 l 2
 -19 1 -25 -5 -36 -5 c 0
 -50 -5 -62 7 -62 22 c 0
 -62 26 -61 34 -54 41 c 2
EndSplineSet
Validated: 1
EndChar

StartChar: notsatisfies
Encoding: 8877 8877 198
Width: 628
VWidth: 1000
Flags: W
HStem: -5 21G<-43 -32.5 71 86> 220 53<105 107 225 574.618> 423 53<105 289 408 574.618>
VStem: 52 53<-4.55307 79 218 220 273 423 476 698.618>
LayerCount: 2
Fore
SplineSet
105 273 m 1
 155 273 l 1
 289 423 l 1
 105 423 l 1
 105 273 l 1
105 218 m 1
 107 220 l 1
 105 220 l 1
 105 218 l 1
-55 40 m 2
 52 159 l 1
 52 675 l 1
 52 676 l 2
 54 688 64 699 79 699 c 0
 93 699 103 688 105 676 c 2
 105 675 l 1
 105 476 l 1
 337 476 l 1
 529 691 l 2
 536 698 544 699 548 699 c 0
 563 699 575 687 575 673 c 0
 575 662 569 656 568 655 c 2
 408 476 l 1
 551 476 l 1
 552 476 l 2
 564 474 575 464 575 450 c 0
 575 435 564 425 552 423 c 2
 551 423 l 1
 360 423 l 1
 225 273 l 1
 551 273 l 1
 552 273 l 2
 564 271 575 261 575 247 c 0
 575 232 564 222 552 220 c 2
 551 220 l 1
 178 220 l 1
 105 138 l 1
 105 20 l 1
 105 19 l 2
 103 6 93 -5 79 -5 c 0
 63 -5 54 8 52 19 c 2
 52 20 l 1
 52 79 l 1
 -16 4 l 2
 -21 -2 -29 -5 -36 -5 c 0
 -50 -5 -62 7 -62 22 c 0
 -62 28 -59 34 -55 40 c 2
EndSplineSet
Validated: 1
EndChar

StartChar: notforcesextra
Encoding: 8879 8879 199
Width: 742
VWidth: 1000
Flags: W
HStem: -5 21G<-43 -30.5 71 86 274 289> 220 53<308 688.586> 423 53<308 355 490 688.586>
VStem: 52 53<-4.55307 67 189 698.618> 255 53<-4.55307 220 379 423 476 698.618>
LayerCount: 2
Fore
SplineSet
308 379 m 1
 355 423 l 1
 308 423 l 1
 308 379 l 1
-54 41 m 2
 52 139 l 1
 52 675 l 1
 52 676 l 2
 54 688 64 699 79 699 c 0
 93 699 103 688 105 676 c 2
 105 675 l 1
 105 189 l 1
 255 329 l 1
 255 675 l 1
 255 676 l 2
 257 688 267 699 282 699 c 0
 296 699 306 688 308 676 c 2
 308 675 l 1
 308 476 l 1
 412 476 l 1
 644 692 l 2
 651 699 658 699 662 699 c 0
 677 699 689 687 689 673 c 0
 689 662 684 656 681 654 c 2
 490 476 l 1
 666 476 l 1
 677 473 689 464 689 449 c 0
 689 433 677 425 666 423 c 2
 665 423 l 1
 433 423 l 1
 308 306 l 1
 308 273 l 1
 666 273 l 1
 677 270 689 261 689 246 c 0
 689 230 677 222 666 220 c 2
 665 220 l 1
 308 220 l 1
 308 20 l 1
 308 19 l 2
 306 6 296 -5 282 -5 c 0
 266 -5 257 8 255 19 c 2
 255 20 l 1
 255 256 l 1
 105 116 l 1
 105 20 l 1
 105 19 l 2
 103 6 93 -5 79 -5 c 0
 63 -5 54 8 52 19 c 2
 52 20 l 1
 52 67 l 1
 -18 2 l 2
 -19 1 -25 -5 -36 -5 c 0
 -50 -5 -62 7 -62 22 c 0
 -62 26 -61 34 -54 41 c 2
EndSplineSet
Validated: 1
EndChar

StartChar: nottrianglelefteq
Encoding: 8940 8940 200
Width: 799
VWidth: 1000
Flags: W
HStem: -159 53<82.4137 223 298 716.586>
VStem: 173 52<-327.582 -312> 574 51<812 827.692> 664 53<112 588>
LayerCount: 2
Fore
SplineSet
170 350 m 1
 372 253 l 1
 457 488 l 1
 170 350 l 1
420 230 m 1
 664 112 l 1
 664 588 l 1
 525 521 l 1
 420 230 l 1
174 -293 m 2
 223 -159 l 1
 106 -159 l 1
 105 -159 l 2
 83 -155 82 -138 82 -133 c 0
 82 -117 94 -109 105 -106 c 2
 241 -106 l 1
 354 202 l 1
 98 326 l 2
 89 331 82 339 82 350 c 0
 82 355 83 369 95 374 c 2
 483 560 l 1
 574 812 l 1
 577 825 591 828 599 828 c 0
 612 828 625 816 625 802 c 0
 625 799 625 798 625 797 c 0
 624 796 l 0
 624 794 l 0
 624 793 l 2
 551 593 l 1
 681 654 l 2
 684 655 687 657 691 657 c 0
 705 657 715 646 717 633 c 2
 717 632 l 1
 717 68 l 1
 717 67 l 2
 715 56 707 44 691 44 c 1
 691 44 685 44 682 45 c 0
 682 45 682 46 681 46 c 2
 402 180 l 1
 298 -106 l 1
 693 -106 l 1
 694 -106 l 2
 706 -108 717 -118 717 -133 c 0
 717 -149 705 -157 694 -159 c 2
 693 -159 l 1
 280 -159 l 1
 225 -312 l 2
 221 -323 210 -328 200 -328 c 0
 185 -328 173 -316 173 -302 c 0
 173 -299 173 -298 173 -297 c 0
 173 -296 174 -296 174 -296 c 2
 174 -296 174 -295 174 -294 c 1
 174 -294 173 -295 174 -293 c 2
EndSplineSet
Validated: 1
EndChar

StartChar: nottriangleleft
Encoding: 8938 8938 201
Width: 799
VWidth: 1000
Flags: W
VStem: 173 52<-226.568 -211> 574 51<711 726.65> 664 53<11 487>
LayerCount: 2
Fore
SplineSet
170 249 m 1
 335 170 l 1
 424 372 l 1
 170 249 l 1
383 146 m 1
 664 11 l 1
 664 487 l 1
 498 407 l 1
 383 146 l 1
176 -190 m 2
 313 122 l 1
 98 225 l 2
 89 230 82 238 82 249 c 0
 82 254 83 268 95 273 c 2
 457 447 l 1
 574 711 l 2
 578 721 588 727 599 727 c 0
 612 727 625 715 625 701 c 0
 625 700 625 695 624 692 c 1
 624 691 l 2
 531 481 l 1
 681 553 l 2
 684 554 687 556 691 556 c 0
 705 556 715 545 717 532 c 2
 717 531 l 1
 717 -33 l 1
 717 -34 l 2
 715 -45 707 -57 691 -57 c 0
 690 -57 685 -57 682 -56 c 0
 682 -56 682 -55 681 -55 c 2
 360 98 l 1
 225 -211 l 2
 220 -221 210 -227 200 -227 c 0
 185 -227 173 -215 173 -201 c 0
 173 -200 173 -198 173 -196 c 0
 173 -194 174 -192 176 -190 c 2
EndSplineSet
Validated: 1
EndChar

StartChar: nottriangleright
Encoding: 8939 8939 202
Width: 799
VWidth: 1000
Flags: W
VStem: 81 53<11 487> 173 52<-226.568 -211> 574 51<711 726.65>
LayerCount: 2
Fore
SplineSet
373 126 m 1
 629 249 l 1
 463 329 l 1
 373 126 l 1
134 11 m 1
 299 91 l 1
 415 353 l 1
 134 487 l 1
 134 11 l 1
176 -190 m 2
 266 16 l 1
 118 -56 l 1
 114 -57 110 -57 108 -57 c 0
 94 -57 83 -47 81 -34 c 2
 81 -33 l 1
 81 531 l 1
 81 532 l 2
 83 543 92 556 108 556 c 0
 110 556 112 556 118 554 c 2
 437 401 l 1
 574 711 l 2
 578 721 588 727 599 727 c 0
 612 727 625 715 625 701 c 0
 625 700 625 695 624 692 c 1
 624 691 l 2
 485 377 l 1
 701 273 l 2
 710 268 718 260 718 249 c 0
 718 244 716 231 704 226 c 2
 340 51 l 1
 225 -211 l 2
 220 -221 210 -227 200 -227 c 0
 185 -227 173 -215 173 -201 c 0
 173 -200 173 -198 173 -196 c 0
 173 -194 174 -192 176 -190 c 2
EndSplineSet
Validated: 1
EndChar

StartChar: nottrianglerighteq
Encoding: 8941 8941 203
Width: 799
VWidth: 1000
Flags: W
HStem: -159 53<81.4236 223 298 717.553>
VStem: 81 53<112 588> 173 52<-327.582 -312> 574 51<812 827.692>
LayerCount: 2
Fore
SplineSet
429 254 m 1
 629 350 l 1
 488 418 l 1
 429 254 l 1
134 112 m 1
 360 221 l 1
 440 441 l 1
 134 588 l 1
 134 112 l 1
174 -293 m 2
 223 -159 l 1
 106 -159 l 1
 105 -159 l 2
 93 -157 81 -148 81 -133 c 0
 81 -122 88 -111 105 -106 c 2
 241 -106 l 1
 334 150 l 1
 118 46 l 1
 118 45 l 1
 114 44 110 44 108 44 c 0
 94 44 83 54 81 67 c 2
 81 68 l 1
 81 632 l 1
 81 633 l 2
 83 644 92 657 108 657 c 0
 110 657 112 657 118 655 c 2
 458 491 l 1
 574 812 l 1
 577 825 591 828 599 828 c 0
 612 828 625 816 625 802 c 0
 625 799 625 798 625 797 c 0
 624 796 l 0
 624 794 l 0
 624 793 l 2
 506 469 l 1
 701 374 l 2
 710 369 718 361 718 350 c 0
 718 345 716 332 704 327 c 2
 403 182 l 1
 298 -106 l 1
 693 -106 l 1
 694 -106 l 2
 705 -108 718 -117 718 -133 c 0
 718 -148 706 -157 694 -159 c 2
 693 -159 l 1
 280 -159 l 1
 225 -312 l 2
 221 -323 210 -328 200 -328 c 0
 185 -328 173 -316 173 -302 c 0
 173 -299 173 -298 173 -297 c 0
 173 -296 174 -296 174 -296 c 2
 174 -296 174 -295 174 -294 c 1
 174 -294 173 -295 174 -293 c 2
EndSplineSet
Validated: 1
EndChar

